<!-- Generated by IcoMoon.io -->
<svg version="1.1" xmlns="http://www.w3.org/2000/svg" width="32" height="32" viewBox="0 0 32 32">
<title>actors</title>
<path fill="none" stroke="#c9c9c9" stroke-linejoin="miter" stroke-linecap="butt" stroke-miterlimit="4" stroke-width="0.3245" d="M31.585 16.002c0 8.747-7.034 15.837-15.711 15.837v0c-8.677 0-15.711-7.091-15.711-15.837v0c0-8.747 7.034-15.837 15.711-15.837v0c8.677 0 15.711 7.091 15.711 15.837v0z"></path>
<path d="M13.581 6.107c-1.082 0-1.996 0.256-2.832 0.792-1.087 0.698-1.758 1.774-1.933 3.104-0.063 0.477-0.044 1.717 0.033 2.207 0.063 0.401 0.193 0.99 0.225 1.022 0.028 0.028 0.22-0.026 0.585-0.164l0.254-0.096v-0.468c0-1.153 0.162-2.195 0.421-2.707 0.101-0.201 0.288-0.38 0.444-0.427 0.163-0.049 0.313-0.010 0.885 0.23 1.432 0.601 2.381 0.597 3.856-0.014 0.248-0.102 0.507-0.201 0.577-0.219 0.188-0.048 0.336-0.008 0.488 0.132 0.233 0.215 0.38 0.563 0.506 1.2 0.121 0.615 0.143 0.93 0.143 2.065 0 1.493-0.040 1.814-0.31 2.486-0.376 0.936-0.819 1.646-1.36 2.178-0.93 0.914-2.008 1.145-3.058 0.652-0.137-0.064-0.255-0.111-0.262-0.105s-0.022 0.076-0.033 0.154l-0.021 0.141 0.211 0.094c0.811 0.363 1.63 0.355 2.39-0.022 0.434-0.216 0.854-0.541 1.193-0.925l0.22-0.25-0.008 0.518-0.008 0.518-1.279 0.362c-0.703 0.199-1.307 0.361-1.341 0.36s-0.367-0.088-0.74-0.195c-0.373-0.106-0.682-0.191-0.687-0.187s-0.049 0.158-0.097 0.342c-0.111 0.422-0.304 0.95-0.499 1.365-0.083 0.177-0.14 0.331-0.127 0.343 0.041 0.038 0.997 0.529 1.007 0.518 0.005-0.006 0.172-0.316 0.372-0.689 0.566-1.055 0.76-1.402 0.785-1.402 0.013 0 0.069 0.087 0.126 0.193s0.308 0.567 0.559 1.025c0.251 0.458 0.461 0.845 0.466 0.861 0.009 0.026 0.44-0.189 2.055-1.024 0.28-0.144 0.495-0.248 0.478-0.23-0.056 0.059-2.52 1.588-2.565 1.591-0.028 0.002-0.122-0.18-0.265-0.512-0.122-0.284-0.229-0.516-0.238-0.516-0.029-0.001-0.277 0.599-0.277 0.671 0 0.039 0.069 0.628 0.154 1.31s0.216 1.752 0.294 2.38c0.077 0.627 0.195 1.586 0.263 2.13 0.017 0.141 0.030 0.244 0.045 0.367 1.994-0.152 3.818-0.758 5.408-1.714l-0.055 0.031 0.112-0.999 0.001 0.935c1.024-0.626 1.905-1.353 2.673-2.187l0.008-0.009c-0.252-0.744-0.632-1.352-1.067-1.702-0.163-0.131-1.147-0.631-3.389-1.722-0.343-0.167-0.624-0.314-0.624-0.325 0-0.025-0.827-1.512-0.86-1.548-0.012-0.013-0.082-0.003-0.155 0.023-0.264 0.093-0.248 0.132-0.246-0.613l0.002-0.66 0.11-0.18c0.228-0.373 0.529-1.009 0.719-1.52 0.047-0.127 0.157-0.349 0.243-0.493 0.321-0.535 0.607-1.421 0.746-2.311 0.091-0.582 0.114-1.745 0.045-2.269-0.174-1.328-0.845-2.406-1.933-3.104-0.836-0.536-1.75-0.792-2.832-0.792zM20.999 7.555c-0.966 0.010-1.928 0.258-2.69 0.731-0.063 0.039-0.132 0.088-0.202 0.141 0.835 1.717 0.427 3.767 0.356 4.086 1.134 0.010 2.292-0.18 3.069-0.509 0.692-0.293 1.344-0.822 1.703-1.383 0.091-0.143 0.182-0.26 0.201-0.26 0.066 0 0.635 0.6 0.78 0.823 0.081 0.124 0.227 0.384 0.324 0.578 0.16 0.318 0.179 0.385 0.193 0.669 0.017 0.369-0.031 0.772-0.187 1.57-0.062 0.317-0.107 0.582-0.1 0.589s0.049-0.081 0.093-0.197c0.175-0.456 0.392-0.689 0.569-0.608 0.162 0.074 0.248 0.264 0.248 0.546-0.001 0.462-0.162 0.892-0.453 1.204-0.108 0.117-0.249 0.331-0.33 0.506-0.348 0.744-0.832 1.409-1.481 2.034-0.494 0.477-1.11 0.901-1.555 1.073-0.467 0.18-0.705 0.155-1.285-0.135-0.673-0.337-1.57-1.147-2.114-1.91-0.142-0.2-0.375-0.589-0.517-0.865-0.099-0.193-0.216-0.39-0.311-0.53-0.073 0.132-0.121 0.208-0.121 0.208s-0.063 0.208-0.206 0.522c0.018 0.165-0.010 0.37-0.073 0.679-0.036 0.179-0.080 0.342-0.129 0.495l-0.008 0.116 0.299-0.154 0.95 1.768 0.426 0.191c0.16-0.076 0.299-0.165 0.478-0.3l0.246-0.186 0.19 0.13c0.492 0.337 1.026 0.594 1.38 0.664 0.539 0.107 1.073-0.070 1.976-0.651 0.071-0.046 0.1-0.037 0.27 0.084 0.272 0.193 0.541 0.321 0.93 0.44 0.319 0.098 0.384 0.105 1.091 0.105 0.62 0 0.816-0.014 1.118-0.080 0.593-0.13 1.010-0.252 0.976-0.285-0.017-0.017-0.123-0.067-0.234-0.11-0.562-0.22-1.091-0.706-1.355-1.244-0.243-0.494-0.32-0.842-0.326-1.463l-0.005-0.525 0.176-0.189c0.228-0.244 0.353-0.462 0.484-0.843 0.088-0.257 0.106-0.376 0.108-0.713 0.002-0.348-0.010-0.428-0.085-0.568-0.101-0.189-0.235-0.29-0.396-0.295-0.063-0.002-0.114-0.017-0.114-0.032s0.029-0.223 0.065-0.462c0.1-0.665 0.093-1.937-0.013-2.421-0.264-1.204-1.032-2.1-2.242-2.622-0.663-0.285-1.416-0.421-2.167-0.413zM5.501 12.954c-0.154-0.002-0.285 0.049-0.439 0.151-0.375 0.248-0.658 0.862-0.83 1.799-0.061 0.332-0.068 0.469-0.066 1.341 0.002 1.047 0.036 1.389 0.219 2.219 0.199 0.903 0.653 1.993 1.072 2.572 0.588 0.815 1.307 1.304 2.126 1.449 0.163 0.029 0.377 0.039 0.619 0.031 1.346-0.049 2.384-0.843 3.124-2.389 0.291-0.607 0.476-1.191 0.631-1.987 0.145-0.747 0.159-0.912 0.158-1.895 0-0.843-0.008-0.981-0.071-1.341-0.087-0.492-0.271-1.056-0.435-1.338-0.167-0.285-0.418-0.511-0.64-0.576-0.227-0.066-0.405-0.040-0.742 0.108-1.627 0.716-2.54 0.72-4.151 0.018-0.245-0.107-0.421-0.161-0.575-0.162zM6.343 15.788c0.028 0 0.057 0.001 0.087 0.003 0.434 0.026 0.76 0.192 0.894 0.456 0.079 0.155 0.083 0.291 0.007 0.261-0.128-0.050-0.565-0.136-0.778-0.154-0.257-0.022-0.689 0.019-0.97 0.092-0.102 0.026-0.209 0.055-0.239 0.064-0.092 0.028-0.066-0.147 0.046-0.314 0.181-0.267 0.527-0.415 0.954-0.409zM9.929 15.796c0.194 0 0.389 0.023 0.516 0.071 0.232 0.087 0.403 0.225 0.482 0.39 0.078 0.161 0.086 0.282 0.017 0.255-0.13-0.050-0.43-0.113-0.687-0.144-0.334-0.040-0.746-0.006-1.114 0.092-0.127 0.034-0.24 0.062-0.251 0.062-0.030 0.001 0.018-0.185 0.076-0.297 0.069-0.134 0.25-0.276 0.452-0.356 0.122-0.048 0.315-0.073 0.509-0.073zM10.013 19.359l-0.019 0.161c-0.060 0.505-0.52 0.934-1.183 1.104-0.277 0.071-0.811 0.099-1.085 0.057-0.249-0.038-0.615-0.16-0.791-0.263-0.359-0.21-0.607-0.552-0.647-0.89-0.018-0.154-0.015-0.177 0.026-0.161 0.64 0.245 1.551 0.37 2.246 0.307 0.412-0.037 0.971-0.149 1.279-0.254zM24.477 20.189c-0.023 0-0.042 0.049-0.042 0.11 0 0.211-0.153 0.899-0.283 1.272-0.27 0.775-0.661 1.395-1.247 1.945-0.499 0.548-2.063 2.097-4.645 3.168 0.855 0 1.695 0 2.829-0.001l1.897-0.001c0.532-0.364 1.058-0.83 1.476-1.233 1.043-1.019 1.972-2.273 2.626-3.454 0.138-0.264 0.267-0.532 0.388-0.804-0.178-0.076-0.361-0.151-0.566-0.225-0.471-0.17-2.371-0.776-2.434-0.776zM12.935 20.454c-0.001 0-0.003 0-0.004 0.001-0.015 0.015-0.117 0.243-0.227 0.506-0.127 0.301-0.217 0.476-0.244 0.474-0.023-0.002-0.29-0.158-0.593-0.348s-0.56-0.341-0.573-0.336c-0.013 0.005-0.106 0.134-0.208 0.286-0.587 0.879-1.294 1.411-2.174 1.633l-0.282 0.071-0.008 2.777-0.002 0.621c1.126 0.541 2.435 0.924 3.812 1.079l0.056 0.005c0.022-0.183 0.043-0.353 0.070-0.573 0.084-0.68 0.189-1.528 0.232-1.884s0.162-1.317 0.263-2.134c0.101-0.818 0.184-1.519 0.184-1.559 0-0.097-0.257-0.618-0.303-0.62zM5.502 21.537l-0.146 0.122c-0.256 0.214-0.552 0.616-0.748 1.012-0.050 0.101-0.097 0.205-0.142 0.313 0.739 0.865 1.578 1.613 2.507 2.237l0.044 0.028 0.001-0.667 0.080 0.717c0.134 0.090 0.317 0.203 0.503 0.312l0.058 0.031v-2.893l-0.085-0.017c-0.749-0.152-1.265-0.422-1.819-0.952zM8.369 22.671l-0.462 0.020v3.103c0.082 0.045 0.233 0.12 0.387 0.192l0.076 0.032v-0.534zM14.144 23.769c-0.011-0.013-1.155 0.574-1.199 0.616-0.028 0.027-0.077 0.388-0.055 0.41 0.006 0.006 0.3-0.137 0.655-0.317l0.644-0.327-0.018-0.185c-0.010-0.102-0.022-0.19-0.028-0.196zM14.273 25.097c-0.006-0.006-1.45 0.718-1.49 0.748-0.005 0.003-0.019 0.098-0.033 0.211s-0.013 0.205 0.001 0.205 0.374-0.175 0.799-0.388l0.773-0.388-0.021-0.189c-0.012-0.104-0.025-0.193-0.029-0.198zM14.407 26.437v0.001c-0.038 0.003-0.276 0.113-0.554 0.256-0.296 0.153-0.693 0.356-0.883 0.453-0.077 0.039-0.138 0.071-0.187 0.098 0.214 0.019 0.475 0.032 0.738 0.037l0.012 0c0.035-0.017 0.060-0.030 0.095-0.048l0.838-0.419-0.017-0.177c-0.009-0.097-0.026-0.187-0.037-0.199-0.001-0.001-0.002-0.001-0.005-0.001z"></path>
</svg>
