<!-- Generated by IcoMoon.io -->
<svg version="1.1" xmlns="http://www.w3.org/2000/svg" width="32" height="32" viewBox="0 0 32 32">
<title>afisha</title>
<path fill="#b6b6b6" d="M5.547 9.398c-0.437 0.351-0.64 0.802-0.7 0.987 0.049 0.086 0.835 0.285 0.697 0.331l-0.801 0.035c-0.739 2.895 0.614 4.081 0.614 4.081l2.348 0.030-0.035-5.54z"></path>
<path fill="#65656a" d="M5.752 11.31c-0.668 0.302-0.545 1.595-0.397 1.988 0.767 0.017 2.348 0.030 2.348 0.030l-0.022-2.017z"></path>
<path fill="#868682" d="M5.752 11.31c1.388 0.781 0.796 3.521-0.397 3.521 0.767 0.017 2.348 0.030 2.348 0.030l-0.022-3.55z"></path>
<path fill="#d7d7d7" d="M9.314 25.96c-1.018-1.055-1.544-2.73-1.714-5.458-0.061-0.969-0.063-2.497-0.004-2.533 0.024-0.015 0.194-0.064 0.377-0.109l0.333-0.082-0.354-0.083c-0.195-0.046-0.365-0.102-0.379-0.125s-0.011-0.232 0.007-0.465c0.029-0.391 0.041-0.427 0.144-0.466 0.061-0.023 0.513-0.102 1.005-0.174 0.954-0.141 1.448-0.172 0.646-0.225-0.471-0.031-1.514-0.094-1.649-0.136-0.072-0.022-0.081-0.093-0.081-0.601v-0.576c0.156-4.968-0.696-5.518-2.098-5.527l0.158-0.106 5.47 0c5.832 0 5.98 0.005 6.622 0.228 0.823 0.285 1.555 0.729 1.879 1.651s0.569 1.496 0.982 6.795l0.032 0.561c0.025 0.451 0.019 0.572-0.033 0.615-0.035 0.029-0.238 0.095-0.451 0.146s-0.946 0.117-0.96 0.131c-0.014 0.014 0.703 0.012 0.922 0.012 0.511 0 0.547 0.015 0.547 0.228 0 0.526 0.338 2.443 0.576 3.142 0.156 0.457-0.913 0.238-0.895 0.351-0.158 0.005 0.591-0.020 0.838 0.021 0.164 0.027 0.176 0.043 0.333 0.434 0.421 1.049 0.826 1.76 1.271 2.231l0.231 0.244h1.986c2.239 0 2.072-0.032 1.893 0.365-0.149 0.328-0.355 0.55-0.641 0.691l-0.265 0.13-6.837 0.013c-5.959 0.011-6.896 0.004-7.293-0.058-1.067-0.139-1.95-0.6-2.596-1.265z"></path>
<path fill="#65656a" d="M14.509 26.107l10.546-0.027c2.239 0 2.072-0.032 1.892 0.365-0.149 0.328-0.355 0.55-0.641 0.691l-0.265 0.13-6.837 0.013c-5.959 0.011-6.896 0.004-7.293-0.058 1.54-0.017 2.272-0.377 2.601-1.114z"></path>
<path fill="#1c1c1e" d="M25.383 6.112s0.244 2.84-1.394 5.122c0 0 1.309-0.309 2.491-0.993-0.074-0.961-0.487-3.135-1.097-4.129zs-0.335 1.263-2.056 2.909c0.421 0.661 0.562 1.338 0.593 1.513-0.034 0.053-0.068 0.106-0.102 0.158-0.059-0.211-0.299-1.026-0.638-1.494-0.649 0.88-1.037 1.374-2.303 2.147 0.496 0.762 0.584 1.635 0.6 1.918-0.005 0.005-0.011 0.009-0.016 0.014-0.068-0.272-0.328-1.216-0.817-1.809-1.552 1.080-3.046 1.845-3.046 1.845 0.286 0.649 0.555 1.776 0.581 2.51-0.062 0.049-0.143 0.11-0.204 0.159-0.084-0.771-0.298-1.883-0.639-2.529-1.22 0.614-2.517 2.413-2.648 2.996 0 0 0.11 1.004 0.547 2.328-0.048 0.071-0.095 0.144-0.141 0.217-0.123-0.317-0.484-1.204-0.559-2.263-0.78 1.87-0.573 4.396-0.512 5.045-0.020 0.11-0.037 0.222-0.053 0.335-0.008-0.022-0.34-0.871-1.087-0.656 0.778-0.126 1.012 0.99 1.036 1.113-0.059 0.67-0.052 1.401 0.032 2.202l0.546 1.089c-2.021-10.456 10.891-9.783 10.891-19.746zM26.524 10.554c-1.586 0.854-2.709 0.958-2.709 0.958-0.47 0.74-1.681 1.943-2.099 2.287 0.048 0.013 2.378 0.157 4.587-0.715 0 0 0.336-1.355 0.221-2.53zM26.184 13.428c-2.198 0.695-3.625 0.654-4.721 0.592-1.421 1.325-1.728 1.339-4.094 3.415 2.575-0.677 4.582-0.401 4.582-0.401 2.334-0.976 4.155-3.458 4.233-3.606zM20.539 17.29c-0.679-0.001-1.805 0.072-3.406 0.411-1.295 1.168-1.977 2.487-1.977 2.487s1.36-0.855 2.693-0.698c1.232-1.527 3.476-2.153 3.476-2.153s-0.258-0.046-0.786-0.047zM17.417 19.804c-1.22 0-2.352 0.623-2.352 0.623-0.488 0.901-0.675 2.217-0.675 2.217s0.823-2.186 3.027-2.84zM15.154 21.984c-0.351-0.002-0.786 0.845-0.786 0.845-0.034 0.206-0.050 0.549-0.050 0.549s0.751-2.172 1.16-0.978c-0.081-0.303-0.197-0.415-0.324-0.416zM13.571 22.613c-0.197-0.006-0.435 0.090-0.557 0.449 0.505-0.714 0.847 0.353 0.847 0.353s-0.011-0.425 0.024-0.682c-0.031-0.050-0.16-0.116-0.314-0.12z"></path>
<path fill="none" stroke="#c9c9c9" stroke-linejoin="miter" stroke-linecap="butt" stroke-miterlimit="4" stroke-width="0.3245" d="M31.585 16.002c0 8.747-7.034 15.837-15.711 15.837v0c-8.677 0-15.711-7.091-15.711-15.837v0c0-8.747 7.034-15.837 15.711-15.837v0c8.677 0 15.711 7.091 15.711 15.837v0z"></path>
</svg>
