<?xml version="1.0" encoding="UTF-8" standalone="no"?>
<!-- Created with Inkscape (http://www.inkscape.org/) -->
<svg xmlns:rdf="http://www.w3.org/1999/02/22-rdf-syntax-ns#" xmlns="http://www.w3.org/2000/svg" height="233.2mm" width="888.9mm" version="1.1" xmlns:cc="http://creativecommons.org/ns#" xmlns:dc="http://purl.org/dc/elements/1.1/" viewBox="0 0 888.93353 233.16228">
 <metadata>
  <rdf:RDF>
   <cc:Work rdf:about="">
    <dc:format>image/svg+xml</dc:format>
    <dc:type rdf:resource="http://purl.org/dc/dcmitype/StillImage"/>
    <dc:title/>
   </cc:Work>
  </rdf:RDF>
 </metadata>
 <g transform="translate(242.3 -3.99)">
  <g transform="matrix(.2646 0 0 .2646 -502.2 -1024)" fill="#8d0202">
   <path style="color-rendering:auto;text-decoration-color:#000000;color:#000000;font-variant-numeric:normal;shape-rendering:auto;font-variant-ligatures:normal;text-decoration-line:none;font-variant-position:normal;mix-blend-mode:normal;solid-color:#000000;font-feature-settings:normal;shape-padding:0;font-variant-alternates:normal;text-indent:0;dominant-baseline:auto;font-variant-caps:normal;image-rendering:auto;white-space:normal;text-decoration-style:solid;text-orientation:mixed;isolation:auto;text-transform:none" d="m1231 3931c-0.7886 44.82 1.07 82-0.6395 123.4-0.5123 12.05-1.629 23.96-2.8 27.69l-0.024 0.079-0.021 0.081c-8.106 20.75-32.08 33.71-52 34.11h-0.043c-5.489 0.099-9.451-0.033-12.24-0.3111 0.6971-0.2979 1.213-0.5539 2.108-0.8849l0.021-0.01c15.78-6.138 24.01-22.94 21.95-36.13-2.484-13.69-12.86-26.12-26.9-28.72l-0.053-0.01-0.051-0.01c-10.98-1.718-18.34 0.1859-27.97 5.974l-0.1403 0.084-0.1321 0.097c-16.19 11.79-19.06 32.23-10.6 48.34 8.46 16.1 28.14 28.03 55.45 24.68h0.044c13.96-1.886 41.98-8.801 56.21-30.87 3.905-5.822 7.049-10.65 9.017-18.1 1.972-7.46 2.815-17.31 2.85-33.85 0.031-38.69 0.3657-77.32 0.2803-115.6zm3.693 153.2-0.047 0.1596c0.01-0.017 0.01-0.042 0.013-0.058 0.011-0.035 0.024-0.071 0.034-0.1018z"/>
   <path d="m1260 4380c-3.752-9.344-0.8846-27.78 12.51-35.89 7.355-4.813 15.78-7.676 23.87-6.057 29.8 6.781 30.14 47.38 4.318 57.73-7.145 2.643-8.81 4.093-7.243 6.31 25.13 12.4 45.49-7.075 49.53-33.14 5.164-24.43 3.745-62.77 3.536-66.4-61.2-0.5615-104.1-34.55-118.5-72.06-25.15-69.66 45.77-117.6 86.58-141.3l28.23-16.21c-1.045-29.18-7.498-59.02-2.548-83.57 5.603-28.99 19.78-51.33 50.03-46.46 78.08 15.33 6.632 133-38.44 164.1l0.1983 23.7 0.1982 16.52c53.59 1.631 94.72 41.32 78.91 94.37-12.52 37.25-42.07 57.9-77.88 60.53l-0.064 30.2c-0.069 20.87-4.56 41.77-8.964 53.26-7.554 18.4-24.77 26.35-38.98 24.86-28.94-2.783-39.34-17.56-45.26-30.49 0-0.0001 0.0002 0 0.0002 0zm86.13-90.85c-0.095-35.11 0.332-77.55 0.09-110.3-49.17 1.138-61.38 59.83-27.45 81.63-38.95-13.18-38.13-52.97-35.33-65.57 8.754-33.99 37.13-44.08 62.15-47.51l-0.2122-13.16c-0.1166-11.53-0.496-21.17-0.843-21.41-0.6592-0.4668-2.321 0.5982-31.29 20.05-46.04 30.91-56.06 48.86-60.07 67.1-9.262 46.84 27.91 93.01 92.95 89.14zm56.21-45.18c6.342-40.76-18.08-63.2-49.69-65.1 0.4379 35.86 0.1763 75.17 0.7151 110.1 31.25-5.013 44.89-28.2 48.97-44.99zm-10.71-274.6c-31.78-6.504-35.26 39.86-40.33 96.35 39.93-20.58 76.78-90.5 40.33-96.35z" stroke-width=".7413"/>
   <path style="color-rendering:auto;text-decoration-color:#000000;color:#000000;font-variant-numeric:normal;shape-rendering:auto;font-variant-ligatures:normal;text-decoration-line:none;font-variant-position:normal;mix-blend-mode:normal;solid-color:#000000;font-feature-settings:normal;shape-padding:0;font-variant-alternates:normal;text-indent:0;dominant-baseline:auto;font-variant-caps:normal;image-rendering:auto;white-space:normal;text-decoration-style:solid;text-orientation:mixed;isolation:auto;text-transform:none" d="m1012 3928v272h39.61v40.49h114.4c-1.963 6.518-5.901 16.36-14.65 26.9-14.47 17.42-41.06 35.29-92.63 35.29h-6.56v113.1h6.56c122.8 0 186.5-29.81 219.3-60.74 16.43-15.47 25.04-31.13 29.48-43.01 1.932-5.168 2.99-9.53 3.676-13.03 7.801 1.55 23.63 4.501 36.53 4.33 9.448-0.125 20.4-3.627 29.59-6.936 3.378-1.216 5.981-2.288 8.566-3.336 0.7448 3.517 1.783 7.664 3.592 12.61 4.583 12.54 13.37 29.11 29.99 45.52 33.24 32.82 97.43 64.59 220.3 64.59h6.598l-0.6269-109.7h-114.6c1.55-11.75 7.227-21.01 15.64-28.91 9.922-9.319 23.7-16.37 37.71-21.41 28.02-10.07 56.39-12.1 56.39-12.1l6.105-0.4258v-40.05h39.61v-275.1zm13.12 13.12h649v248.8h-39.61v41.13c-10.14 1.148-31.76 4.297-53.82 12.22-15.07 5.416-30.37 13.03-42.26 24.19s-20.24 26.29-20.24 45.03v6.562h115.2l0.4766 83.36c-116.1-1.131-174.8-31.39-204.5-60.7-15.13-14.94-22.88-29.72-26.89-40.69-4.011-10.97-4.232-17.62-4.232-17.62l-0.4062-9.732-8.867 4.035s-6.772 3.082-15.42 6.195-19.39 6.082-25.32 6.16c-12.97 0.1716-40.49-5.324-40.49-5.324l-7.664-1.598-0.2324 7.826s-0.1132 6.09-3.938 16.32c-3.824 10.23-11.3 24.04-26.19 38.06-29.21 27.5-87.55 56.01-203.8 57.07v-87.02c50.49-1.568 80.07-20.35 96.17-39.72 16.81-20.23 19.46-41.03 19.46-41.03l0.9238-7.377h-117.1v-40.49h-39.61z"/>
   <path style="color-rendering:auto;text-decoration-color:#000000;color:#000000;font-variant-numeric:normal;shape-rendering:auto;font-variant-ligatures:normal;text-decoration-line:none;font-variant-position:normal;mix-blend-mode:normal;solid-color:#000000;font-feature-settings:normal;shape-padding:0;font-variant-alternates:normal;text-indent:0;dominant-baseline:auto;font-variant-caps:normal;image-rendering:auto;white-space:normal;text-decoration-style:solid;text-orientation:mixed;isolation:auto;text-transform:none" d="m1466 3933c0.06 50.7-0.9926 103.4 1.338 147.7 0.9183 6.824 2.775 11.3 5.801 17.39l0.09 0.1838 0.1128 0.1741c13.82 21.46 36.34 33.57 61.61 32.77 13.76-0.1515 23.88-1.867 32.04-6.473 19.49-11.88 28.46-43.38 15.97-60.7-7.864-9.127-20.25-13.76-31.92-12.02h-0.028c-23.29 3.644-35.1 25.19-27.77 44.66 7.648 13 14.31 16.59 24.84 21.11-2.784 0.2782-6.744 0.4105-12.23 0.3112h-0.19c-29.03 0.9589-47.45-17.54-51.85-34.11l-0.021-0.081-0.026-0.079c-1.171-3.73-2.287-15.63-2.8-27.68-1.14-41.22-0.6386-85.6-0.6378-123.1z"/>
  </g>
  <g transform="matrix(.2646 0 0 .2646 -501.5 -1049)">
   <g transform="matrix(3.259 0 0 3.259 882 4158)" fill="#323232">
    <g fill-rule="evenodd" fill="#323232">
     <path d="m56.59 160.6c0.6557-0.3942 0.9531-0.9882 1.437-1.206 0.3615-0.1624-0.2471 1.3-0.3008 1.44-0.768 2.003-7.414 3.763-7.085 0.8711 0.4091-3.595 4.757-5.465 3.982-4.726-2.901 2.766 0.8837 4.272 1.967 3.621z"/>
     <path d="m55.22 157.8c-0.8445 0.3949-0.8198 1.85 0.0336 2.178 1.027 0.3949 2.069-0.5716 1.671-1.608-0.1939-0.5048-0.9099-1.007-1.704-0.5696zm0.3644 0.05c0.4777 0 0.8648 0.362 0.8648 0.8082s-0.3871 0.8082-0.8648 0.8082c-0.4776 0-0.8648-0.362-0.8648-0.8082s0.3872-0.8082 0.8648-0.8082z"/>
     <path d="m53.11 169.6c1.061-1 1.504-2.662 1.504-1.34 0 3.474-1.969 4.4-4.478 5.896-1.253 0.7465-4.9 1.074-6.182 0.1338-3.246-2.378 0.625-7.464 2.908-8.844 2.829-1.71 1.106-0.3869 1.108 2.053 0.002 2.292 2.277 4.8 5.141 2.101z"/>
     <path d="m50.27 179.6c0.6041-1.932-0.6115-3.647-2.76-3.316-6.284 0.9695 1.163 8.425 2.76 3.316zm-3.491-1.758c0.7633-0.2232 1.568 0.2323 1.798 1.017 0.2295 0.7849-0.2033 1.602-0.9667 1.826-0.7634 0.2232-1.568-0.2323-1.798-1.017-0.2295-0.7846 0.2034-1.602 0.9668-1.825z"/>
     <path d="m44.36 177.8c-1.37 6.132 8.616 6.022 6.814-0.1409-0.073-0.2499-0.2406-1.375-0.0866-1.349 1.706 2.314 2.536 4.553 1.761 7.211-0.8248 2.83-2.126 4.021-3.43 5.17-1.419 1.25-3.131 1.739-4.104 1.564-1.399-0.2519-3.019-5.424-2.998-6.809 0.0205-1.38 0.3104-2.301 0.8948-3.543 0.1999-0.4246 1.107-2.245 1.148-2.103z"/>
     <path d="m45.22 194.4c2.601 4.136 8.148 0.9034 6.234-2.14-0.3594-0.5715-1.42-2.348-1.143-2.131 0.8217 0.6412 2.085 0.9877 3.101 1.73 3.46 2.528 0.4494 12.82-1.738 11.74-4.513-2.24-6.215-3.837-6.455-9.198z"/>
     <path d="m48.37 195.6c0.8573 0.1979 2.182-0.2732 2.396-1.447 0.1783-6-7.761-1.632-3.28 1.172 1.366 0.8545 2.309-0.1312 1.993-1.728-0.6845-3.46-4.816 1.148-1.109 2.003z"/>
     <path d="m55.66 203.5c3.556-0.3518 4.355 4.82 1.84 4.781-0.3557-0.006-1.932-0.0573-1.63 0.1219 1.296 0.7683 2.436 0.9228 3.869 0.6996 0.5969-0.0931 3.528-0.3188 3.662-1.054 0.2603-1.428-2.367-4.238-3.512-4.917-0.9982-0.5915-3.662-0.5894-4.229 0.3684z"/>
     <path d="m57.36 204.8c1.532 0.9991 1.064 2.644-0.6529 2.876-2.918 0.3924-2.061-4.646 0.6529-2.876zm-1.496 0.57c0.6425-0.5641 2.099 0.1222 1.598 0.9665-0.2212 0.3733-0.2767 0.5744-0.6842 0.7602-1.076 0.4906-1.521-1.194-0.9141-1.727z"/>
     <path d="m61.96 194.8c22.52 30.72 39.83 1.972 26.59-5.177 15.71 4.925 1.952 23.52-11.18 19.09-24.12-7.082-25.89-37.46-15.66-54.55 0.3306-0.5498-0.0167-2.647-0.4043-5.23-0.0716-0.4779-2.759-1.739-2.822-2.194-0.0453-0.3271 2.72 0.9628 2.684 0.6611 0.4951-2.444 2.029-2.706 2.029-2.706 0.0022 0.0192-0.6809 1.499-0.6347 3.23 0.0576 2.157 0.9052 4.599 1.633 3.854 32.35-31.86 62.67 1.074 138.2-21.86-5.039 2.278-20.72 7.305-35.82 9.814-46.19 7.677-59.43-4.911-84.2 5.67-24.76 10.58-28.19 35.44-20.44 49.4z"/>
     <path d="m64.24 178.2c2.694 6.767 7.403 6.917 10.66 9.213 4.364 3.075 4.851 5.317 7.119 7.906 1.605 1.832-4.777 2.384-8.136 2.072-7.948-0.9645-11.98-10.67-9.643-19.19z"/>
     <path d="m75.57 172.8c0.9977 1.827 2.715 8.19 4.445 9.212 0.2243 0.1324-0.9781 0.4213-1.07 0.4356-7.076 1.115-14.44-3.28-12.83-10.99 0.7554-3.613 1.569-5.605 2.535-6.349 1.204 4.106 5.333 4.777 6.923 7.689z"/>
     <path d="m75.74 159.7c3.337 0.894 5.314 1.121 6.267 4.579 0.8813 3.196 2.67 5.885-4.343 2.133-4.462-2.387-8.996-2.85-5.166-6.243 12.75-13.95 23.93-12.7 49.23-11.42 2.703 0.136 20.82-0.3136 12.37 1.105-6.368 1.07-10.2 2.144-19.68 2.412-5.6 0.1584-13.48 0.0176-18.92 1.106-0.7099 0.1423 11.16 1.112 15.67 9.145l4.385 7.81c3.749 6.678-3.86-7.225-15.49-13.25-8.319-4.308-21.31-1.105-24.32 2.622z"/>
     <path d="m102.9 162.6c0.3819 1.504 1.117 1.941 2.373 2.78 1.002 0.6708 0.5348-0.7257 0.5348-1.508 0-1.266-0.8968-2.518-1.855-3.316-0.3576-0.2977-1.092-1.169-1.57-1.284 0.5216 1.3 0.2437 2.249 0.5171 3.327z"/>
     <path d="m119.6 163.2c0.4447-0.1803-1.24-1.16-1.404-1.273-2.331-1.61-10.54-2.977-8.091-1.057 2.964 2.319 7.325 3.21 9.495 2.33z"/>
     <path d="m109 165c1.878 1.756 3.342 5.683 3.342 8.241 0 1.345 0.1335 2.691 0.1335 4.02 0 1.906-0.2579 2.401-1.236 0.3015-0.9267-1.988-1.945-4.692-2.306-6.867-0.3603-2.176 0.0333-3.575 0.0667-5.695z"/>
     <path d="m169 165.4c-8.256-6.331-18.17-8.946-28.67-8.777-2.919 0.0469-7.078 0.1413-9.625 1.34-0.883 0.4157 4.816 2.567 5.548 2.881 5.056 2.171 6.864 4.423 11.56 3.484 1.195-0.2389 8.977-1.303 5.414 0.804-0.7445 0.4404-4.363 0.9943-4.612 1.273-0.3569 0.4005 2.192 0.7042 2.406 0.7371 2.164 0.3334 20.95 0.3896 17.98-1.742zm-42.19-6.086c0.7682 0.1906 1.334 0.9369 1.623 1.162 5.588 4.364 10.2 7.562 16.7 9.622 2.512 0.7953 2.201 5.366 7.355 5.584 0.3097 0.0131-1.22-0.9913-2.273-2.231-0.9294-1.094-1.402-2.44-1.138-2.453 7.475-0.3666 17.11 1.042 24.2-3.521 20.94 16.86 42.3 15.13 55.61 9.246 1.814-0.8274 2.531-1.227 4.98-2.591-4.74 1.825-9.765 2.967-11.16 3.127-23.54 2.678-30.25-2.279-46.78-12.09-0.2492-0.1478 6.006-5.472 8.846-9.097 1.007-1.286 2.497-3.446 2.429-3.389-1.713 1.45-11.89 12.69-14.19 10.38-0.7001-0.7017-2.187-1.375-1.816-1.49 1.185-0.3702 4.403-2.099 4.774-5.243 0.2265-5.28-4.943-5.091-5.564-2.462-0.1592 0.6739 0.1118 2.148 0.4914 0.9834 1.067-3.273 5.496-0.0515 1.915 3.539-4.062 4.073-12.33-2.722-17.85-3.182 0.7486-0.8588 7.502-2.094 7.502-2.094 0.0704-0.8144-14.89 0.6996-16.43 0.7874-3.216 0.1842 0.0147-2.372 2.039-3.4 8.965-4.556-0.3023-3.074-2.774-0.4355-0.8773 0.9366-2.678 4.172-3.058 4.154-5.467-0.2638-13.01 3.426-16.22 2.419-3.614-0.8479-7.988-1.113-10.95-1.113-7.349 0-3.11-0.0695 2.499 1.261 11.2 2.657 6.343 2.039 9.131 7.231 0.723 1.346 1.949 2.506 2.858 3.719 2.029 2.708 0.3266-3.455-0.2173-4.255-0.574-0.8433-1.178-1.925-1.871-2.646-0.2476-0.2577-0.6514-1.173-0.671-1.53z"/>
     <path d="m173.6 169.6c-3.24 1.623-3.414 5.049-2.707 8.207 0.2993 1.337 1.279 2.743 2.306 3.618 0.6817 0.5813 3.029 2.399 2.172 0.7371-0.663-1.287-2.064-2.647-1.437-4.522 0.8595-2.571 3.958-2.472 4.879-0.6364 0.4803 0.9568 0.9357 2.303 0.9357 0.7371 0-4.4-1.774-7.122-6.149-8.14z"/>
     <path d="m177.7 180.7c0.9386-0.6018 1.356-2.068 0.4176-3.006-0.4907-0.4908-1.111-1.054-2.373-0.7206-2.256 0.5964-1.188 5.742 1.955 3.727zm-0.167-0.804c0.3344-0.2953 0.3676-0.5307 0.3676-1.005 0-0.4498-0.5159-1.11-1.003-1.239-2.75-0.7301-0.8602 3.564 0.6352 2.244z"/>
     <path d="m180.9 182c0.3562 1.06 0.6771 1.5 1.495 2.169 0.3296 0.2695 1.078 0.4805 1.504 0.5693 0.1747 0.0363-0.8472-1.044-0.9776-1.239-0.5802-0.8689-0.348-1.914 0.2756-2.655 2.022-2.402 3.778 1.915 3.509-0.4607-0.4498-3.973-4.193-4.742-4.331-4.617-0.37 0.3356-2.585 2.934-1.476 6.233z"/>
     <path d="m183.7 181.1c-1.194 1.645 0.3707 3.489 1.747 2.618 2.431-1.54-0.9195-3.758-1.747-2.618zm0.5272 1.42c0.1208 0.2078 0.7538 0.4425 0.9609 0.3015 0.4179-0.2844 0.3117-0.9498-0.0668-1.206-0.618-0.4181-1.336 0.1454-0.8941 0.9045z"/>
     <path d="m194.2 162c-4.176 0-10.08 1.079-13.64 3.551-1.654 1.151 1.394 0.7511 2.406 0.4692 4.196-1.168 7.263-2.484 11.23-4.02z"/>
     <path d="m181.8 167c-0.7411 0.3044 4.203 2.056 6.951 1.34 0.2425-0.0632-3.733-2.664-6.951-1.34z"/>
     <path d="m191.8 181.1c-1.158-0.5471-2.767-0.3168-2.323 1.273 0.0535 0.1918 0.4709 0.9499 0.468 0.9884-0.0111 0.136-0.6417-0.0556-0.7354-0.134-1.316-1.105-1.561-2.645-0.919-4.221 0.4027-0.9882 3.509 1.1 3.509 2.094z"/>
     <path d="m190.6 181.4c-1.317 0 0.5311 2.345 1.086 0.9379 0.09-0.2286-0.1742-0.6221-0.3508-0.7537-0.2805-0.2096-0.3642-0.1842-0.7354-0.1842z"/>
     <path d="m209.3 189.8c-0.5713-0.7627-0.7934-2.3-1.203-3.216-0.706-1.58-2.086-2.758-3.309-3.752-0.7813-0.6345-2.509-1.656-1.337 0.1341 0.466 0.7118 0.3421 1.729 0.8021 2.513 0.8411 1.433 3.664 4.06 5.046 4.321z"/>
     <path d="m207.9 182.7c1.833 0.8711 2.91 1.943 5.146 1.943 0.6893 0 5.03-0.2313 4.812-0.3349-3.348-1.594-6.167-2.581-9.959-1.608z"/>
     <path d="m238.6 177.9-7.987-0.1674c-1.888-0.0397-3.056 0.2248-4.679 1.038-0.3506 0.1757-1.419 0.6384-3.458 0.9787 2.717 1.002 7.822 1.717 10.58 0.8303 1.251-0.4029 4.773-1.647 5.548-2.68z"/>
     <path d="m228.3 175c2.151-1.534 3.828-2.23 4.879-3.417 0.7122-0.8038 1.246-1.544 1.704-2.479 0.7634-1.558-4.168 1.726-4.688 2.268-0.2804 0.2926-1.613 1.634-1.895 3.628z"/>
     <path d="m203 170.5c0.4 0.7149 0.9329 2.274 0.1086 2.837-0.6098 0.4168-2.454 0.2584-3.089-0.1167-0.203-0.12-1.106-0.5558-0.6513-0.8473 0.2004-0.1286 0.8481 0.1387 1.256-0.0311 1.032-0.429 1.176-0.9508 0.8089-1.88-0.2823-0.7139-1.302-0.7069-1.147-0.9125 0.2342-0.3106 1.996-0.332 2.714 0.9499z"/>
     <path d="m200.5 170.6c0.0903 0.3631-0.0193 0.7882-0.3799 0.9452-0.6017 0.2615-1.208-0.4505-0.945-1.067 0.0958-0.2241 0.2342-0.3883 0.4673-0.4114 0.0355-0.004 0.7907 0.263 0.8576 0.5328z"/>
     <path d="m206.7 169.6c1.15-1.323 5.713 1.472 6.577 4.078 0.8493 2.561-1.343 3.083-3.845 2.53-0.5788-0.1279-3.21-0.9623-3.028-1.784 0.1159-0.5245 3.57 0.2518 3.006-2.681-0.219-1.14-2.85-1.97-2.709-2.143z"/>
     <path d="m206.6 173.6c-0.8857-0.1702-1.574-1.113-0.8658-1.89 0.3334-0.3657 0.7511-0.8168 1.34-0.8322 0.862-0.0226 1.939 0.8889 1.357 1.866-0.2753 0.463-1.253 1.069-1.832 0.8556zm0.8418-1.872c0.5044 0.1115 0.8279 0.5901 0.7221 1.069-0.1058 0.4786-0.6008 0.7764-1.105 0.6649-0.5044-0.1115-0.8278-0.5902-0.722-1.069 0.1057-0.4785 0.6008-0.7762 1.105-0.6647z"/>
     <path d="m213.8 168.9c1.958-3.672 9.175-0.9173 10.77 1.763 0.6496 1.093 1.674 1.669 0.2808 2.601-2.497 1.671-3.485 3.021-6.852 2.276-0.6375-0.1409-1.974-0.2421-2.486-0.6009-0.0279-0.0196 2.038-0.6737 2.416-1.25 0.8931-1.364 0.7427-3.357-0.6697-4.248-0.9985-0.6296-3.434-0.074-3.457-0.5411z"/>
     <path d="m217.9 171.8c-0.4714 2.578-3.883 2.37-4.262 0.7505-1.041-4.451 4.671-2.987 4.262-0.7505zm-3.087 0.8444c0.9097 1.73 3.817-0.6511 1.579-1.983-0.9283-0.5526-2.636-0.0255-1.579 1.983z"/>
     <path d="m222 164.5c0.4637-3.519 5.221-2.81 7.322-1.692 0.2717 0.1443 2.224 1.133 1.873 1.358-0.4832 0.3092-1.049 1.257-1.315 1.768-0.6948 1.335-2.623 2.757-4.162 2.648-0.1447-0.0101-1.015-0.1539-1.037-0.2634-0.006-0.0283 0.8335-0.3838 0.9423-0.5465 1.028-1.538 0.714-3.628-1.378-3.753-0.6509-0.0388-1.746-0.001-2.246 0.4815z"/>
     <path d="m224 167.7c-0.7448-0.1646-2.645-1.18-1.769-2.14 1.316-1.442 3.025-0.9526 3.306 0.3059 0.2185 0.9789-0.325 2.102-1.537 1.835zm-0.6279-1.031c0.5907 0.5028 1.322 0.6012 1.524-0.315 0.4064-1.839-2.575-0.5783-1.524 0.315z"/>
     <path d="m53.06 168.2c0.4539-0.9221 0.2044-2.853-0.9861-3.132-5.633-1.321-1.655 8.499 0.9861 3.132zm-2.417-2.156c0.7164 0 1.297 0.5933 1.297 1.325 0 0.7319-0.5808 1.325-1.297 1.325-0.7163 0-1.297-0.5933-1.297-1.325 0-0.7318 0.5807-1.325 1.297-1.325z"/>
     <path d="m227 158.9c0.0248 0.7589-0.2555 2.122 0.7473 0.9543 0.6211-0.7234 1.319-2.318 1.347-3.305 0.0416-1.489-3.548-1.194-4.28 0.1595-0.0788 0.1457-1.443 2.525-1.262 2.347 1.078-1.055 3.362-2.852 3.447-0.1557z"/>
     <path d="m224.5 159.7c0.3946 0.8966 1.236 0.7591 1.439-0.1621 0.1312-0.5933-0.066-0.8765-0.6221-0.9994-0.5576-0.1233-1.044 0.6452-0.8171 1.162zm0.4145-0.2459c-0.1559 0.3844 0.272 0.3659 0.4539 0.4129 0.9151 0.2369 0.0283-1.601-0.4539-0.4129z"/>
     <path d="m53.92 142.7c-0.6733-0.3634-1.336-0.3166-1.77-0.6221-0.3239-0.2283 1.244-0.4497 1.393-0.4751 2.115-0.3599 7.015 4.462 4.36 5.652-3.302 1.48-7.127-1.308-6.096-1.018 3.858 1.087 3.225-2.937 2.113-3.537z"/>
     <path d="m52.13 145.3c0.7701 0.5254 2.01-0.2375 1.856-1.138-0.1836-1.085-1.546-1.489-2.235-0.6184-0.3355 0.424-0.4025 1.296 0.3784 1.757zm-0.1426-0.3391c-0.2434-0.411-0.1292-0.9286 0.2548-1.156 0.3839-0.2274 0.8926-0.0787 1.136 0.3323s0.1292 0.9286-0.2547 1.156c-0.384 0.2274-0.8927 0.0787-1.136-0.3323z"/>
     <path d="m72.53 139.6c0.9479-1.108 1.21-2.808 1.352-1.493 0.372 3.454-1.486 4.586-3.821 6.342-1.166 0.8763-4.756 1.592-6.133 0.7949-3.482-2.016-0.1776-7.488 1.944-9.104 2.63-2.003 1.058-0.5031 1.321 1.922 0.2473 2.279 2.778 4.529 5.336 1.538z"/>
     <path d="m127.6 177.5c2.282 1.065 4.599-0.1489 4.548-2.854-0.1528-7.91-10.58 0.0362-4.548 2.854zm2.747-4.013c0.1485 0.9784-0.5468 1.896-1.552 2.048-1.006 0.1527-1.942-0.5167-2.091-1.495-0.1485-0.9784 0.5468-1.896 1.553-2.048 1.006-0.1527 1.942 0.5167 2.09 1.495z"/>
     <path d="m130.8 170.5c-7.334-2.708-8.856 9.626-0.9571 8.427 0.3204-0.0486 1.736-0.0685 1.678 0.117-3.137 1.72-6.036 2.372-9.185 0.9753-3.353-1.487-4.606-3.289-5.806-5.088-1.306-1.957-1.625-4.15-1.248-5.32 0.5428-1.684 7.19-2.823 8.894-2.567 1.698 0.2542 2.786 0.7647 4.221 1.692 0.4904 0.3169 2.585 1.737 2.403 1.765z"/>
     <path d="m164 174.5c-4.853 0.5671-4.322 6.966-0.7523 6.548 0.6705-0.0784 2.73-0.2714 2.415-0.1142-0.9325 0.4657-1.789 1.457-2.897 2.055-3.772 2.035-11.77-5.114-9.846-6.622 3.964-3.11 6.138-3.958 11.08-1.867z"/>
     <path d="m161.6 176.8c-0.5475 0.6887-0.6927 2.087 0.2752 2.786 5.338 2.743 4.813-6.302 0.3537-3.465-1.359 0.8649-0.8754 2.14 0.702 2.542 3.417 0.8713 1.037-4.841-1.331-1.863z"/>
     <path d="m202.7 158.6c-1.763 3.108-6.45 0.7785-4.967-1.254 0.2096-0.2874 1.161-1.545 0.8402-1.402-1.375 0.6161-2.158 1.458-2.802 2.757-0.2681 0.5414-1.774 3.066-1.251 3.6 1.017 1.036 4.827 0.5106 6.042-0.0335 1.059-0.4744 2.593-2.652 2.138-3.668z"/>
     <path d="m200.6 159.2c-1.7 0.6752-2.774-0.6551-1.973-2.192 1.362-2.61 4.984 0.995 1.973 2.192zm0.3972-1.551c0.0903 0.8502-1.31 1.644-1.711 0.7484-0.1774-0.3959-0.3096-0.5573-0.2265-0.9973 0.2195-1.162 1.853-0.5545 1.938 0.2489z"/>
     <path d="m72.34 138.3c0.3526-0.9654-0.1022-2.859-1.316-3.009-5.742-0.7099-0.7356 8.628 1.316 3.009zm-2.634-1.885c0.7124-0.0767 1.353 0.4511 1.432 1.179 0.0784 0.7277-0.4355 1.38-1.148 1.456-0.7121 0.0767-1.353-0.451-1.431-1.179-0.0783-0.7275 0.4356-1.38 1.148-1.456z"/>
     <path d="m63.83 209.7c2.518-1.231 4.521 2.352 2.66 3.012-0.2629 0.0933-1.436 0.4864-1.165 0.5355 1.163 0.2102 2.043 0.0121 3.036-0.5439 0.4134-0.2318 2.507-1.2 2.404-1.777-0.1993-1.121-2.899-2.468-3.927-2.654-0.8957-0.1618-2.853 0.5683-3.009 1.428z"/>
     <path d="m65.43 210.2c1.4 0.3156 1.506 1.653 0.3067 2.293-2.038 1.086-2.786-2.852-0.3067-2.293zm-0.9442 0.8284c0.3181-0.5904 1.576-0.4842 1.44 0.2734-0.0605 0.3349-0.0464 0.498-0.2951 0.746-0.6567 0.6551-1.445-0.4615-1.144-1.019z"/>
     <path d="m73.75 213c1.811-1.185 3.69 1.369 2.328 2.052-0.1925 0.0967-1.054 0.5105-0.8411 0.522 0.9116 0.0494 1.567-0.1868 2.274-0.708 0.2945-0.2173 1.806-1.16 1.672-1.592-0.2604-0.8401-2.458-1.613-3.263-1.657-0.7019-0.038-2.132 0.7093-2.168 1.383z"/>
     <path d="m75.02 213.2c1.103 0.1075 1.312 1.122 0.455 1.728-1.457 1.028-2.409-1.918-0.455-1.728zm-0.644 0.7254c0.1871-0.483 1.161-0.5223 1.129 0.0713-0.0142 0.2625 0.0123 0.386-0.1545 0.6-0.4403 0.5649-1.152-0.215-0.9747-0.6713z"/>
     <path d="m82.25 213.5c1.597-1.461 3.862 0.7565 2.628 1.651-0.1745 0.1264-0.9578 0.6735-0.7461 0.6507 0.9076-0.0981 1.516-0.4367 2.13-1.065 0.2556-0.2619 1.595-1.435 1.393-1.841-0.3923-0.7872-2.686-1.196-3.488-1.11-0.6988 0.0755-1.99 1.043-1.917 1.714z"/>
     <path d="m83.53 213.5c1.106-0.0715 1.476 0.8957 0.7273 1.632-1.272 1.25-2.686-1.505-0.7273-1.632zm-0.5188 0.8196c0.1069-0.5068 1.062-0.7026 1.126-0.1115 0.0282 0.2613 0.0743 0.379-0.0559 0.617-0.3435 0.6284-1.171-0.0267-1.07-0.5055z"/>
     <path d="m162.8 152.8c1.69 1.601 3.796 0.9561 5.548-0.1622 0.7418-0.4735 1.376-1.373 1.68-2.184 0.2017-0.5388 0.7855-2.354-0.0305-1.473-0.6317 0.682-1.146 1.826-2.416 1.858-1.74 0.0438-2.359-1.848-1.452-2.807 0.4725-0.4995 1.186-1.069 0.2402-0.7264-2.657 0.9633-3.912 2.63-3.569 5.495z"/>
     <path d="m168.6 147.8c-0.5688-0.435-1.546-0.3657-1.907 0.406-0.1889 0.4037-0.3932 0.9017 0.0843 1.59 0.854 1.232 3.727-0.5396 1.822-1.996zm-0.4489 0.2769c-0.2515-0.1373-0.4009-0.1058-0.6873-0.002-0.2716 0.0985-0.5574 0.5546-0.5288 0.8768 0.1612 1.82 2.341-0.2609 1.216-0.8748z"/>
     <path d="m154.5 164.2c0.8033 1.365 2.303 1.34 3.659 0.9391 0.5744-0.1699 1.159-0.6386 1.51-1.112 0.2334-0.3144 0.9572-1.392 0.2575-0.969-0.5416 0.327-1.094 0.9781-1.93 0.7598-1.146-0.2992-1.195-1.653-0.4211-2.109 0.4031-0.2376 0.9769-0.4759 0.2939-0.4298-1.919 0.1295-3.054 0.9833-3.369 2.921z"/>
     <path d="m159.2 162.1c-0.29-0.3916-0.9419-0.5303-1.323-0.0937-0.1995 0.2285-0.427 0.5157-0.2444 1.056 0.3265 0.9663 2.539 0.3492 1.568-0.9624zm-0.3457 0.0965c-0.1386-0.1372-0.2423-0.1447-0.4491-0.1307-0.1962 0.0132-0.469 0.2576-0.511 0.4738-0.2375 1.221 1.58 0.2702 0.9601-0.3431z"/>
    </g>
   </g>
  </g>
  <g aria-label="СУМСЬКИЙ АКАДЕМІЧНИЙ ТЕАТР ДРАМИ ТА МУЗИЧНОЇ КОМЕДІЇ ІМЕНІ М.С. ЩЕПКІНА" fill="#263238" stroke-width=".6434">
   <path d="m-17.89 18.13q-4.976 0-7.932 5.278-2.925 5.248-2.925 14.57 0 6.062 1.357 10.56 1.357 4.494 3.89 6.906 2.533 2.413 5.881 2.413 3.438 0 5.911-1.236v2.714q-2.352 1.357-6.182 1.357-4.192 0-7.359-2.714-3.136-2.714-4.855-7.841-1.719-5.157-1.719-12.21 0-10.56 3.74-16.59 3.77-6.032 10.25-6.032 4.041 0 7.057 1.87l-1.357 2.594q-2.533-1.629-5.76-1.629z"/>
   <path d="m0.2085 47.18-9.44-31.18h3.076l6.695 22.59q0.3317 1.176 1.025 4.343h0.273q0.362-2.57 0.844-4.35l5.7-22.59h3.079l-9.834 36.8q-1.116 4.192-2.775 6.062-1.659 1.84-4.313 1.84-1.448 0-2.654-0.6032v-2.775q1.327 0.5428 2.594 0.5428 1.508 0 2.533-1.327 1.025-1.357 1.9-4.463z"/>
   <path d="m30.85 60.08-11.73-40.14h-0.2413q0.3016 6.333 0.3016 8.022v32.12h-2.84v-44.09h4.373l9.892 33.72q1.327 4.463 1.719 7.6h0.2413q0.3016-2.232 1.87-7.54l9.801-33.78h4.524v44.09h-2.956v-31.88q0-1.87 0.3016-8.203h-0.22l-11.67 40.08z"/>
   <path d="m70.9 18.13q-4.976 0-7.932 5.278-2.925 5.248-2.925 14.57 0 6.062 1.357 10.56 1.357 4.494 3.89 6.906 2.533 2.413 5.881 2.413 3.438 0 5.911-1.236v2.714q-2.352 1.357-6.182 1.357-4.192 0-7.359-2.714-3.136-2.714-4.855-7.841-1.719-5.157-1.719-12.21 0-10.56 3.74-16.59 3.77-6.032 10.25-6.032 4.041 0 7.057 1.87l-1.357 2.594q-2.533-1.629-5.76-1.629z"/>
   <path d="m103.6 47.72q0 5.79-3.076 9.078-3.046 3.287-8.414 3.287h-7.73v-44.09h2.956v19.57h4.705q5.911 0 8.716 2.956 2.835 2.925 2.835 9.198zm-16.26 9.651h4.886q4.041 0 6.182-2.473 2.141-2.503 2.141-7.178 0-4.855-2.021-7.148-2.021-2.292-6.363-2.292h-4.825z"/>
   <path d="m113.8 37.28 12.49-21.29h3.197l-12.61 21.29 13.6 22.8h-3.408l-13.3-22.55v22.56h-2.956v-44.1h2.956z"/>
   <path d="m135.3 15.99h2.895v30.82q0 1.025-0.0302 2.051 0 0.9952-0.2714 6.213h0.2413l16.56-39.09h3.83v44.09h-2.895v-31.62q0-3.8 0.3619-7.901h-0.2413l-16.68 39.54h-3.77z"/>
   <path d="m168.2 15.99h2.895v30.82q0 1.025-0.0302 2.051 0 0.9952-0.2714 6.213h0.2413l16.56-39.09h3.83v44.09h-2.895v-31.62q0-3.8 0.3619-7.901h-0.2413l-16.68 39.54h-3.77zm11.58-3.529q-3.679 0-5.609-1.99-1.93-2.021-2.232-6.484h2.775q0.3317 3.408 1.478 4.825 1.176 1.417 3.589 1.417 2.533 0 3.679-1.508 1.176-1.508 1.448-4.735h2.775q-0.5127 8.474-7.901 8.474z"/>
   <path d="m229.4 60.08-3.89-15.98h-10.71l-3.83 15.98h-3.076l10.62-44.09h3.046l10.86 44.09zm-4.584-18.97-3.89-16.44q-0.6032-2.775-0.9349-5.248-0.2714 2.624-0.8444 5.248l-3.77 16.44z"/>
   <path d="m240.2 37.28 12.49-21.29h3.197l-12.61 21.29 13.6 22.8h-3.408l-13.3-22.55v22.56h-2.956v-44.1h2.956z"/>
   <path d="m278.4 60.08-3.89-15.98h-10.71l-3.83 15.98h-3.1l10.62-44.09h3.046l10.86 44.09zm-4.584-18.97-3.89-16.44q-0.6032-2.775-0.9349-5.248-0.2714 2.624-0.8444 5.248l-3.77 16.44z"/>
   <path d="m308.4 71.21h-2.835v-11.13h-21.1v11.13h-2.835v-13.96h2.654q3.559-10.83 5.036-20.21 1.508-9.379 1.508-21.05h13.78v41.26h3.77zm-6.7-13.96v-38.42h-7.841q-0.6635 21.26-6.484 38.42z"/>
   <path d="m330.5 60.08h-16v-44.09h15.98v2.835h-13.03v16.74h12.3v2.835h-12.3v18.85h13.03z"/>
   <path d="m352.8 60.08-11.7-40.14h-0.2413q0.3016 6.333 0.3016 8.022v32.12h-2.9v-44.09h4.373l9.892 33.72q1.327 4.463 1.719 7.6h0.2413q0.3016-2.232 1.87-7.54l9.801-33.78h4.524v44.09h-2.956v-31.88q0-1.87 0.3016-8.203h-0.2413l-11.67 40.08z"/>
   <path d="m380.4 60.08v-44.09h2.956v44.09z"/>
   <path d="m413.6 60.08h-2.986v-18.91q-5.067 2.865-9.62 2.865-8.716 0-8.716-11.07v-16.97h2.956v17.1q0 4.071 1.448 6.092 1.478 1.99 4.554 1.99 2.322 0 4.343-0.4825 2.051-0.5127 5.036-2.111v-22.59h2.986z"/>
   <path d="m444.5 60.08h-2.956v-21.68h-15.38v21.68h-2.956v-44.09h2.956v19.57h15.38v-19.57h2.956z"/>
   <path d="m454.2 15.99h2.895v30.82q0 1.025-0.0302 2.051 0 0.9952-0.2714 6.213h0.2413l16.56-39.09h3.83v44.09h-2.895v-31.62q0-3.8 0.3619-7.901h-0.2413l-16.68 39.54h-3.77z"/>
   <path d="m487.2 15.99h2.895v30.82q0 1.025-0.0302 2.051 0 0.9952-0.2714 6.213h0.2413l16.56-39.09h3.83v44.09h-2.895v-31.62q0-3.8 0.3619-7.901h-0.2413l-16.8 39.53h-3.77zm11.58-3.529q-3.679 0-5.609-1.99-1.93-2.021-2.232-6.484h2.775q0.3317 3.408 1.478 4.825 1.176 1.417 3.589 1.417 2.533 0 3.679-1.508 1.176-1.508 1.448-4.735h2.775q-0.5127 8.474-7.901 8.474z"/>
   <path d="m539 60.08h-2.956v-41.26h-8.776v-2.835h20.51v2.835h-8.776z"/>
   <path d="m569.1 60.08h-15.9v-44.09h15.98v2.835h-13.03v16.74h12.3v2.835h-12.3v18.85h13.03z"/>
   <path d="m593.6 60.08-3.9-15.98h-10.71l-3.83 15.98h-3.076l10.62-44.09h3.046l10.86 44.09zm-4.584-18.97-3.89-16.44q-0.6032-2.775-0.9349-5.248-0.2714 2.624-0.8444 5.248l-3.77 16.44z"/>
   <path d="m608.7 60.08h-2.956v-41.26h-8.776v-2.835h20.51v2.835h-8.776z"/>
   <path d="m641.3 28.66q0 6.816-3.136 10.01-3.106 3.197-9.228 3.197h-3.136v18.22h-2.956v-44.1h6.032q6.454 0 9.44 3.046t2.986 9.621zm-15.5 10.49h2.956q5.187 0 7.359-2.443 2.171-2.443 2.171-8.052 0-5.338-2.262-7.63-2.232-2.322-6.936-2.322h-3.287z"/>
   <path d="m-8.115 148.4h-2.835v-11.1h-21.08v11.13h-2.835v-13.96h2.654q3.559-10.83 5.036-20.21 1.508-9.379 1.508-21.05h13.78v41.26h3.77zm-6.725-13.9v-38.47h-7.841q-0.6635 21.26-6.484 38.42z"/>
   <path d="m16.46 105.9q0 6.816-3.136 10.01-3.106 3.197-9.228 3.197h-3.138v18.2h-2.955v-44.1h6.032q6.454 0 9.44 3.046t2.986 9.621zm-15.5 10.5h2.956q5.187 0 7.359-2.443 2.171-2.443 2.171-8.052 0-5.338-2.262-7.63-2.236-2.36-6.94-2.36h-3.288z"/>
   <path d="m40.02 137.3-3.89-16h-10.71l-3.83 16h-3.08l10.62-44.1h3.046l10.85 44.1zm-4.59-19-3.89-16.4q-0.6032-2.775-0.9349-5.248-0.2714 2.624-0.8444 5.248l-3.77 16.44z"/>
   <path d="m62.33 137.3-11.73-40.15h-0.2413q0.3016 6.333 0.3016 8.022v32.1h-2.83v-44.1h4.373l9.892 33.72q1.327 4.463 1.719 7.6h0.2413q0.3016-2.232 1.87-7.54l9.801-33.78h4.524v44.09h-2.956v-31.88q0-1.87 0.3016-8.203h-0.23l-11.67 40.1z"/>
   <path d="m89.93 93.2h2.895v30.82q0 1.025-0.03016 2.051 0 0.9952-0.2714 6.213h0.2413l16.54-39.1h3.83v44.09h-2.895v-31.64q0-3.8 0.3619-7.901h-0.2413l-16.7 39.5h-3.77z"/>
   <path d="m141.8 137.3h-2.956v-41.27h-8.776v-2.83h20.51v2.835h-8.776z"/>
   <path d="m172.6 137.3-3.89-15.98h-10.71l-3.83 15.98h-3.076l10.62-44.09h3.046l10.86 44.09zm-4.584-18.97-3.89-16.44q-0.6032-2.775-0.9349-5.248-0.2714 2.624-0.8444 5.248l-3.77 16.44z"/>
   <path d="m206.5 137.3-11.7-40.15h-0.2413q0.3016 6.333 0.3016 8.022v32.12h-2.835v-44.1h4.373l9.892 33.72q1.327 4.463 1.719 7.6h0.2413q0.3016-2.232 1.87-7.54l9.801-33.78h4.524v44.09h-2.956v-31.88q0-1.87 0.3016-8.203h-0.2413l-11.8 40.1z"/>
   <path d="m238.7 124.4-9.4-31.2h3.076l6.695 22.59q0.3317 1.176 1.025 4.343h0.2714q0.3619-2.563 0.8444-4.343l5.7-22.59h3.076l-9.832 36.79q-1.116 4.192-2.775 6.062-1.659 1.84-4.313 1.84-1.448 0-2.654-0.6032v-2.775q1.327 0.5428 2.594 0.5428 1.508 0 2.533-1.327 1.025-1.357 1.9-4.463z"/>
   <path d="m270.7 125.5q0 5.881-2.956 9.138t-8.294 3.257q-4.222 0-7.721-1.659v-3.257q1.538 0.9651 3.589 1.538 2.051 0.5428 4.132 0.5428 8.173 0 8.173-9.5 0-5.006-2.352-7.359-2.352-2.352-7.298-2.352h-3.016v-2.835h3.197q4.252 0 6.575-2.473 2.322-2.473 2.322-7.268 0-3.981-1.779-5.911-1.749-1.96-4.946-1.96-1.779 0-3.287 0.7841-1.478 0.7841-2.503 2.021l-1.99-2.051q3.317-3.589 8.022-3.589 4.494 0 6.997 2.865 2.533 2.835 2.533 7.841 0 4.313-2.051 7.238-2.021 2.895-5.489 3.8v0.2413q4.011 0.5127 6.062 3.348 2.081 2.835 2.081 7.6z"/>
   <path d="m279.3 93.2h2.895v30.82q0 1.025-0.0302 2.051 0 0.9952-0.2714 6.213h0.2413l16.56-39.09h3.83v44.09h-2.895v-31.64q0-3.8 0.3619-7.901h-0.2413l-16.7 39.5h-3.77z"/>
   <path d="m332.8 137.3h-2.986v-18.91q-5.067 2.865-9.62 2.865-8.716 0-8.716-11.07v-17h2.956v17.1q0 4.071 1.448 6.092 1.478 1.99 4.554 1.99 2.322 0 4.343-0.4825 2.051-0.5127 5.036-2.111v-22.6h2.986z"/>
   <path d="m363.7 137.3h-2.956v-21.68h-15.38v21.68h-2.956v-44.1h2.956v19.57h15.5v-19.6h2.956z"/>
   <path d="m397.4 115.2q0 10.95-3.287 16.83-3.257 5.881-9.44 5.881-6.243 0-9.47-5.911-3.227-5.941-3.227-16.86 0-11.4 3.197-16.98 3.197-5.579 9.59-5.579 6.152 0 9.379 5.881 3.257 5.851 3.257 16.74zm-22.35 0q0 9.832 2.443 14.87 2.473 5.006 7.178 5.006 4.735 0 7.178-4.976 2.473-4.976 2.473-14.9 0-9.801-2.413-14.78-2.413-5.006-7.148-5.006-4.855 0-7.298 5.067-2.413 5.036-2.413 14.72z"/>
   <path d="m405.5 137.3v-44.1h2.956v44.09zm-4.976-52.08q0-1.297 0.573-1.87 0.6032-0.573 1.357-0.573 0.6936 0 1.267 0.573 0.573 0.573 0.573 1.87 0 1.327-0.573 1.93-0.573 0.6032-1.267 0.6032-0.754 0-1.357-0.6032-0.573-0.6032-0.573-1.93zm9.198 0q0-1.297 0.573-1.87 0.6032-0.573 1.297-0.573 0.754 0 1.327 0.573t0.573 1.87q0 1.327-0.573 1.93-0.573 0.6032-1.327 0.6032-0.6936 0-1.297-0.6032-0.573-0.6032-0.573-1.93z"/>
   <path d="m432.7 114.5 12.5-21.3h3.197l-12.61 21.29 13.6 22.8h-3.408l-13.27-22.56v22.56h-2.956v-44.1h2.956z"/>
   <path d="m478.2 115.2q0 10.95-3.287 16.83-3.257 5.881-9.44 5.881-6.243 0-9.47-5.911-3.227-5.941-3.227-16.86 0-11.4 3.197-16.98 3.197-5.579 9.59-5.579 6.152 0 9.379 5.881 3.257 5.851 3.257 16.74zm-22.35 0q0 9.832 2.443 14.87 2.473 5.006 7.178 5.006 4.735 0 7.178-4.976 2.473-4.976 2.473-14.9 0-9.801-2.413-14.78-2.413-5.006-7.148-5.006-4.855 0-7.298 5.067-2.413 5.036-2.413 14.72z"/>
   <path d="m500.8 137.3-11.7-40.15h-0.2413q0.3016 6.333 0.3016 8.022v32.12h-2.835v-44.1h4.373l9.892 33.72q1.327 4.463 1.719 7.6h0.2413q0.3016-2.232 1.87-7.54l9.801-33.78h4.524v44.09h-2.956v-31.88q0-1.87 0.3016-8.203h-0.2413l-11.7 40.1z"/>
   <path d="m544.4 137.3h-16v-44.1h15.98v2.835h-13.03v16.74h12.3v2.835h-12.3v18.85h13.03z"/>
   <path d="m574.4 148.4h-2.835v-11.1h-21.08v11.13h-2.835v-13.96h2.654q3.559-10.83 5.036-20.21 1.508-9.379 1.508-21.05h13.78v41.26h3.77zm-6.725-13.96v-38.37h-7.841q-0.6635 21.26-6.484 38.42z"/>
   <path d="m580.5 137.3v-44.1h2.956v44.09z"/>
   <path d="m593.2 137.3v-44.1h2.956v44.09zm-4.976-52.08q0-1.297 0.573-1.87 0.6032-0.573 1.357-0.573 0.6936 0 1.267 0.573 0.573 0.573 0.573 1.87 0 1.327-0.573 1.93-0.573 0.6032-1.267 0.6032-0.754 0-1.357-0.6032-0.573-0.6032-0.573-1.93zm9.198 0q0-1.297 0.573-1.87 0.6032-0.573 1.297-0.573 0.754 0 1.327 0.573t0.573 1.87q0 1.327-0.573 1.93-0.573 0.6032-1.327 0.6032-0.6936 0-1.297-0.6032-0.573-0.6032-0.573-1.93z"/>
   <path d="m-30.34 214.5v-44.09h2.956v44.09z"/>
   <path d="m-3.169 214.5-11.73-40.1h-0.2413q0.3016 6.333 0.3016 8.022v32.12h-2.835v-44.09h4.373l9.892 33.72q1.327 4.463 1.719 7.6h0.2413q0.3016-2.232 1.87-7.54l9.808-33.8h4.524v44.09h-2.956v-31.88q0-1.87 0.3016-8.203h-0.23l-11.67 40.1z"/>
   <path d="m40.41 214.5h-15.98v-44.09h15.98v2.835h-13.03v16.74h12.3v2.835h-12.3v18.85h13.03z"/>
   <path d="m69.48 214.5h-2.95v-21.7h-15.38v21.68h-2.956v-44.09h2.956v19.57h15.38v-19.57h2.956z"/>
   <path d="m79.19 214.5v-44.09h2.956v44.09z"/>
   <path d="m117.9 214.5-11.73-40.14h-0.2413q0.3016 6.333 0.3016 8.022v32.12h-2.835v-44.09h4.373l9.892 33.72q1.327 4.463 1.719 7.6h0.2413q0.3016-2.232 1.87-7.54l9.801-33.78h4.524v44.09h-2.956v-31.88q0-1.87 0.3016-8.203h-0.2413l-11.67 40.08z"/>
   <path d="m144.7 211.8q0-3.227 2.352-3.227 0.9651 0 1.659 0.7238 0.6936 0.7238 0.6936 2.503 0 1.719-0.6936 2.473-0.6936 0.7238-1.659 0.7238-2.352 0-2.352-3.197z"/>
   <path d="m170.8 172.5q-4.976 0-7.932 5.278-2.925 5.248-2.925 14.57 0 6.062 1.357 10.56 1.357 4.494 3.89 6.906 2.533 2.413 5.881 2.413 3.438 0 5.911-1.236v2.714q-2.352 1.357-6.182 1.357-4.192 0-7.359-2.714-3.136-2.714-4.855-7.841-1.719-5.157-1.719-12.21 0-10.56 3.74-16.59 3.77-6.032 10.25-6.032 4.041 0 7.057 1.87l-1.357 2.594q-2.533-1.629-5.76-1.629z"/>
   <path d="m183.5 211.8q0-3.227 2.352-3.227 0.9651 0 1.659 0.7238 0.6936 0.7238 0.6936 2.503 0 1.719-0.6936 2.473-0.6936 0.7238-1.659 0.7238-2.352 0-2.352-3.197z"/>
   <path d="m226.5 211.7h11.97v-41.26h2.956v41.26h3.348v13.96h-2.835v-11.13h-33.29v-44.09h2.956v41.26h11.91v-41.26h2.986z"/>
   <path d="m267.2 214.5h-15.98v-44.09h15.98v2.835h-13.03v16.74h12.3v2.835h-12.3v18.85h13.03z"/>
   <path d="m296.3 214.5h-2.956v-41.26h-15.38v41.26h-2.956v-44.09h21.29z"/>
   <path d="m308.9 191.7 12.49-21.29h3.197l-12.61 21.29 13.6 22.8h-3.408l-13.27-22.56v22.56h-2.956v-44.09h2.956z"/>
   <path d="m330.5 214.5v-44.09h2.956v44.09z"/>
   <path d="m364.4 214.5h-2.956v-21.68h-15.38v21.68h-2.956v-44.09h2.956v19.57h15.38v-19.57h2.956z"/>
   <path d="m390.8 214.5-3.89-15.98h-10.71l-3.83 15.98h-3.076l10.6-44.1h3.046l10.86 44.09zm-4.584-18.97-3.89-16.44q-0.6032-2.775-0.9349-5.248-0.2714 2.624-0.8444 5.248l-3.77 16.44z"/>
  </g>
 </g>
</svg>
