<?xml version="1.0" encoding="UTF-8" standalone="no"?>
<!-- Created with Inkscape (http://www.inkscape.org/) -->
<svg xmlns:rdf="http://www.w3.org/1999/02/22-rdf-syntax-ns#" xmlns="http://www.w3.org/2000/svg" height="415.4mm" width="443.5mm" version="1.1" xmlns:cc="http://creativecommons.org/ns#" xmlns:xlink="http://www.w3.org/1999/xlink" viewBox="0 0 443.45917 415.4043" xmlns:dc="http://purl.org/dc/elements/1.1/">
 <defs>
  <linearGradient id="linearGradient6239" y2="560.5" gradientUnits="userSpaceOnUse" x2="988.1" gradientTransform="matrix(-2.408 0 0 2.408 2442 -172.6)" y1="560.5" x1="803.5">
   <stop stop-color="#880101" offset="0"/>
   <stop stop-color="#fe130d" offset="1"/>
  </linearGradient>
 </defs>
 <metadata>
  <rdf:RDF>
   <cc:Work rdf:about="">
    <dc:format>image/svg+xml</dc:format>
    <dc:type rdf:resource="http://purl.org/dc/dcmitype/StillImage"/>
    <dc:title/>
   </cc:Work>
  </rdf:RDF>
 </metadata>
 <g transform="translate(113.6 15.78)">
  <circle style="paint-order:markers stroke fill" cx="108.2" stroke="#000" cy="-47.59" r="446.7" stroke-width="3" fill="#fff"/>
  <g transform="matrix(.2457 0 0 .2457 -1639 -913.4)">
   <g transform="translate(3421 1838)">
    <path d="m62.8 1072c84.82 51.54 83.75 105.2 83.75 105.2s-53.68 26.84-83.75 105.2c26.72-11.1 82.62-15.03 146-15.25h-3.779v-107.5l302.4 80.37c-0.2819-23.1-0.5079-52.42-0.5957-75.56-0.0915-5.458-177.8-91.46-444.1-92.53zm146 195.2v90.41s632.8 297.1 1263 0c-0.1153-66.78 0-120.8 0-193l-297.8 79.33h-9.592c-245.8 49.06-474.7 34.58-647.2 0h-9.611l-298.4-79zm1408-195c-266.3 1.074-444.2 91.54-444.2 92.61 0.1592 21.98 0.101 50.67 0.1094 75.49 100.6-24.2 200.8-53.24 300.9-80.02l-0.031 107.3c61.87 0.2051 116.9 4.096 143.2 15.03-30.06-78.38-83.75-105.2-83.75-105.2s-1.075-53.68 83.75-105.2zm-1090 226.6-29.11 48.95-10.39 17.02c-7.841 12.63-12.12 20.57-12.82 23.82-0.3304 1.521-0.0906 2.369 0.7207 2.545 1.217 0.2644 3.846-1.818 7.889-6.25 2.967-3.391 7.364-8.967 13.19-16.73 7.851-10.72 13.06-17.61 15.64-20.66 6.678-8.744 13.94-16.51 21.79-23.3 5.078-4.313 10.89-8.574 17.43-12.78l8.82-5.412c-3.209 4.507-7.457 11.6-12.75 21.29-3.315 5.97-8.11 15.34-14.39 28.1l-8.76 18.33c-3.107 6.971-5.124 12.59-6.049 16.85-1.41 6.49-0.2386 10.14 3.514 10.96 3.042 0.6609 7.256-1.132 12.64-5.379l10.39-9.691 1.078-0.5625 0.7461 0.959-0.7207 1.117-10.3 10.03c-5.797 4.688-10.78 6.579-14.93 5.676-5.476-1.19-9.305-4.091-11.49-8.707-1.958-4.673-2.2-10.41-0.7246-17.2 1.74-8.012 5.33-16.47 10.77-25.38 5.563-8.987 11.7-17.21 18.42-24.67 3.628-3.991 8.916-9.266 15.86-15.83-3.941 2.011-8.513 5.213-13.71 9.606-8.363 7.21-17.04 16.37-26.04 27.48l-24.09 31.72c-7.273 9.04-12.43 13.23-15.47 12.57-6.998-1.52-9.515-6.792-7.555-15.82 0.9472-4.361 2.798-9.216 5.553-14.56 2.777-5.45 6.595-11.79 11.46-19.02 6.572-9.723 13.44-18.11 20.6-25.16 5.343-5.53 10.92-10.43 16.73-14.69l-9.475 6.226c-5.273 3.74-11.4 8.463-18.37 14.17-5.696 4.71-12.44 11.31-20.23 19.82l-18.78 20.45c-6.687 6.831-12.61 11.6-17.76 14.3-6.49 3.476-12.78 4.552-18.86 3.23-5.781-1.256-10.29-3.456-13.54-6.604-3.246-3.148-4.318-7.257-3.217-12.33 0.9912-4.564 4.302-7.826 9.932-9.789 5.731-1.941 11.54-2.274 17.42-0.9961l3.094 1.15-0.6738 0.1719c-6.085-1.322-11.92-1.102-17.51 0.6582-5.586 1.76-8.865 4.872-9.834 9.334-0.9031 4.158 0.3301 7.77 3.699 10.84 2.928 2.654 6.675 4.478 11.24 5.469 5.679 1.234 11.53 0.2204 17.54-3.039 4.951-2.748 10.63-7.357 17.02-13.83l39.5-40.32c4.642-3.771 8.87-7.1 12.68-9.988 3.174-2.39 6.573-4.839 10.2-7.344 1.852-1.191 3.445-2.172 4.781-2.943 2.178-1.226 4.581-2.511 7.209-3.852zm87.39 11.42c2.544-0.01 5.219 0.1642 8.025 0.5156 1.236 0.1548 2.42 0.3035 3.553 0.4454s2.304 0.3931 3.514 0.7539c1.854 0.2321 3.321 0.6239 4.402 1.178l0.4238 0.3672-0.6953 0.541-2.471-0.3105c-12.67-1.587-22.44-0.4051-29.31 3.545-6.862 3.847-10.85 10.2-11.96 19.05-0.6836 5.458 0.564 10.53 3.742 15.22 2.934 4.133 6.691 7.112 11.27 8.941 8.1-12.06 17.96-21.86 29.57-29.4 13.88-8.93 27.72-12.53 41.52-10.8 4.222 0.5288 7.381 2.023 9.479 4.482 2.213 2.369 3.094 5.357 2.643 8.961-0.6578 5.251-3.717 10.46-9.176 15.64-6.154 5.714-14.17 10.04-24.06 12.99-6.411 1.916-12.54 3.24-18.38 3.973-5.728 0.6421-11.11 0.6473-16.16 0.016-2.975 4.543-5.654 9.646-8.037 15.31-2.383 5.663-3.858 10.76-4.426 15.29-0.6191 4.943-0.0855 9.035 1.6 12.28 1.904 3.167 5.329 5.061 10.27 5.68 8.959 1.122 17.33-1.805 25.1-8.779 3.425-3.127 6.135-6.394 8.131-9.805s3.22-6.919 3.672-10.52c0.8126-6.487-1.612-10.09-7.275-10.79-5.046-0.632-9.237 1.092-12.57 5.172-2.498 3.243-4.057 7.336-4.676 12.28-0.2064 1.648-0.277 3.05-0.2129 4.209 0.0768 1.056 0.2379 1.859 0.4824 2.412l0.0566 0.793-0.3672 0.4238c-3.41-2.833-4.785-6.875-4.127-12.13 0.5934-4.737 2.576-8.463 5.949-11.18 3.862-3.282 9.036-4.516 15.52-3.703 3.398 0.4256 5.89 1.836 7.473 4.23 1.596 2.292 2.173 5.188 1.734 8.69-0.9674 7.723-5.1 14.84-12.4 21.35-8.137 7.348-17.05 10.42-26.72 9.203-9.885-1.238-16.97-4.793-21.26-10.66-1.763-2.626-2.978-5.445-3.646-8.457-0.6557-3.115-0.7202-6.784-0.1914-11.01 0.5547-4.428 1.605-8.637 3.15-12.63 1.559-4.093 3.632-8.12 6.221-12.08-5.419-1.829-10.14-5.036-14.17-9.619-5.147-5.665-7.288-11.95-6.424-18.85 0.9932-7.929 4.946-14.02 11.86-18.28 5.272-3.262 11.72-4.905 19.36-4.93zm167 11.14c8.819 0.2009 15.66 3.054 20.51 8.562 4.345 5.185 6.432 11.57 6.26 19.14-0.1088 4.773-1.318 10.04-3.629 15.8-1.762 4.424-4.584 9.756-8.463 16l-8.885 14.12c-7.001 11.16-10.56 19.22-10.67 24.2-0.1158 5.084 2.159 7.679 6.828 7.785 5.395 0.1229 12.21-5.171 20.45-15.88 3.318-4.388 6.115-8.685 8.391-12.89l36.27-68 14.65-0.7559-43.1 80.45c-2.712 5.128-4.106 9.352-4.182 12.67-0.078 3.424 1.543 5.174 4.863 5.25 3.113 0.071 8.588-3.335 16.43-10.21 7.944-6.982 13.33-13.14 16.15-18.47l36.27-68 14.5-0.7597-42.94 80.46c-2.712 5.128-4.104 9.352-4.18 12.67-0.0781 3.424 1.491 5.173 4.707 5.246 3.113 0.071 5.998-1.316 8.658-4.162l4.496-5.971 1.436-1.524 0.4707-0.1445 0.6055 0.791c-0.0401 1.764-0.4591 4.143-1.254 7.135l-1.541 6.193 4.406-2.08c1.575-0.7946 2.997-1.696 4.266-2.705l0.6094 0.6367-0.334 0.9258c-0.7428 0.7097-2.376 1.867-4.904 3.471l-4.422 2.701-1.564 7.127c-0.6982 3.306-1.588 5.933-2.67 7.881-1.656 4.322-4.092 6.446-7.309 6.373-3.32-0.076-4.937-1.982-4.852-5.717 0.0851-3.735 1.827-7.277 5.225-10.62 2.337-2.334 5.399-4.6 9.186-6.797l1.361-5.107 1.195-4.644c-2.252 3.167-4.378 5.454-6.383 6.861-1.898 1.306-4.561 1.92-7.984 1.842-4.669-0.1063-8.062-1.48-10.18-4.123-1.716-2.115-2.531-5.093-2.443-8.932 0.0473-2.075 0.1864-3.682 0.4199-4.818l1.359-4.951c-1.519 2.872-5.348 6.937-11.49 12.2-7.727 6.571-13.98 9.802-18.75 9.693-4.876-0.1112-8.427-1.489-10.65-4.135-1.818-2.221-2.686-5.096-2.605-8.623 0.0425-1.867 0.1234-3.215 0.2461-4.043 0.125-0.9314 0.5163-2.116 1.172-3.555-2.054 3.586-4.835 7.208-8.344 10.87-5.634 5.788-10.89 8.627-15.77 8.516-6.225-0.1419-10.91-2.012-14.04-5.613-2.624-3.278-3.875-7.615-3.752-13.01 0.0355-1.556 0.1241-3.163 0.2656-4.82 0.2453-1.655 0.8094-3.615 1.691-5.879 1.993-5.456 6.069-13.51 12.23-24.17 2.684-3.883 5.046-7.358 7.088-10.43 2.045-3.171 3.554-5.576 4.525-7.215 4.096-6.654 6.207-12.73 6.332-18.23 0.1064-4.669-1.207-8.591-3.938-11.77-2.627-3.174-6.689-4.824-12.19-4.949-11.52-0.2624-21.75 4.488-30.69 14.25-7.987 8.849-12.09 17.99-12.3 27.44-0.0969 4.254 0.9124 7.805 3.027 10.66 2.223 2.646 5.617 4.021 10.18 4.125 6.848 0.156 12.56-4.593 17.14-14.25 3.71-7.908 5.655-15.75 5.832-23.54l-0.0996-2.492 0.0137-0.6231 0.3398-1.238 0.3223-0.459 0.6113 0.4804 0.8887 2.045c1.148 4.282 1.669 8.704 1.564 13.27-0.1915 8.404-2.264 15.11-6.219 20.1-4.702 5.914-11.51 8.768-20.44 8.564-5.188-0.1182-9.043-1.712-11.57-4.779-2.523-3.172-3.727-7.246-3.613-12.23 0.2269-9.96 4.439-19.47 12.64-28.52 9.157-10.07 19.91-14.96 32.25-14.68zm-108.5 1.123c-7.745 0.1853-16.42 4.298-26.03 12.34-9.579 8.004-18.03 17.87-25.36 29.61 5.664 0.7094 10.47 0.7869 14.4 0.2343 4.132-0.4237 9.943-1.734 17.44-3.934 7.479-2.096 14.12-6.284 19.93-12.56 2.562-2.921 4.59-5.753 6.084-8.494 1.507-2.844 2.435-5.657 2.783-8.438 0.6449-5.149-1.351-8.013-5.984-8.594-1.068-0.1338-2.155-0.1866-3.262-0.1602zm402.3 20.72c1.297-0.062 2.412 0.3032 3.344 1.094 1.051 0.8001 1.687 2.023 1.91 3.668 0.2369 1.748-0.1625 3.426-1.201 5.033-0.936 1.593-2.536 2.543-4.799 2.85-1.851 0.2512-3.302-0.024-4.354-0.8242-1.065-0.9029-1.693-2.074-1.889-3.514-0.2647-1.954 0.1215-3.735 1.16-5.342 1.142-1.621 2.895-2.591 5.26-2.912 0.1928-0.026 0.383-0.044 0.5684-0.053zm122.5 1.238-10.56 40.05-0.791 3.824-0.094 3.359c0.1909 0.9143 0.7031 1.338 1.537 1.27 2.54-0.5303 5.135-2.822 7.787-6.875 2.733-4.175 5.495-9.734 8.285-16.68l0.8125-1.443 0.3925-0.4004 0.9532 0.7559-0.5645 1.867c-4.068 9.967-7.329 16.43-9.787 19.38-2.356 2.93-4.958 4.691-7.803 5.285-3.352 0.6999-5.848 0.4277-7.486-0.8204-1.639-1.248-2.692-2.99-3.158-5.225-0.3394-1.625-0.4806-2.815-0.4258-3.568l0.043-2.076c-1.92 4.006-3.716 7.083-5.387 9.234-3.08 4.036-6.245 6.393-9.496 7.072-3.657 0.7638-6.695 0.1776-9.113-1.756-2.338-2.056-3.909-5.013-4.715-8.873-0.213-1.02-0.3732-2.028-0.4961-3.027-0.3351 0.7412-0.6711 1.49-1.002 2.178-0.9359 1.946-1.983 3.858-3.141 5.736-4.188 7.017-8.38 10.88-12.58 11.58-3.684 0.6187-6.629 0.01-8.832-1.832-2.203-1.84-3.562-4.295-4.078-7.365-0.3438-2.047-0.3969-3.931-0.1602-5.654 0.3219-1.843 0.9179-3.943 1.785-6.299l-8.904 1.496-7.445 23.35-12.28 2.062 12.85-39.09c0.3563-1.638 0.5266-3.139 0.5078-4.504-0.3437-2.047-1.693-2.874-4.047-2.478-2.252 0.3781-5.871 5.458-10.86 15.24l-4.797 10.49 0.041 0.039-0.4297 1.473c-2.902 5.63-5.082 9.642-6.537 12.04-4.408 6.881-8.668 10.6-12.78 11.16-3.702 0.5023-6.67-0.1415-8.902-1.934-2.144-1.908-3.433-4.456-3.865-7.644-0.3345-2.468-0.1187-4.748 0.6445-6.842l7.377-22.05-9.68 17.82 0.4668 0.2988-0.088 0.6348-0.6426 1.322c-3.789 7.503-7.259 13.09-10.41 16.77-3.063 3.564-6.09 5.504-9.082 5.824-2.786 0.2984-4.923-0.1499-6.408-1.348-1.279-1.22-2.049-3.068-2.314-5.545-0.265-2.476-0.083-5.158 0.5469-8.043 0.6303-2.886 1.718-5.402 3.262-7.551l2.422-3.703c0.5197-0.995 0.8326-1.969 0.9395-2.92-0.1-0.9287-0.4923-1.67-1.178-2.223l-3.338 0.9844-1.531 0.3203c-3.612 0.3868-5.604-0.1813-5.977-1.707-0.1766-1.651 1.284-2.643 4.379-2.975 1.238-0.1328 2.452 0 3.643 0.3925l3.123 1.387c3.302-0.3537 5.443-2.773 6.424-7.262 0.2801-1.282 0.5353-2.303 0.7676-3.059 0.3243-0.8697 0.6613-1.635 1.008-2.299 0.3464-0.6633 1.099-1.422 2.26-2.277 1.253-0.9692 2.758-1.548 4.512-1.736 1.548-0.1655 2.835 0.1672 3.863 0.9961 0.7076 0.7593 1.236 1.798 1.586 3.117 0.1439 1.341-0.1468 2.522-0.8731 3.539-0.7371 0.9139-1.776 1.442-3.117 1.586-1.341 0.1439-2.566-0.091-3.676-0.7031-0.6855-0.5528-1.22-1.643-1.604-3.272l0.1817-2.682c-1.515 0.4753-2.715 2.901-3.604 7.275-0.5714 2.462-1.319 4.264-2.24 5.406-0.9324 1.039-2.206 1.801-3.824 2.287 3.261 1.216 5.113 3.888 5.555 8.016 0.1767 1.651 0.1257 3.118-0.1543 4.4l-1.377 4.688c-1.168 2.734-1.643 5.134-1.422 7.197 0.1766 1.651 0.9422 2.456 2.295 2.416 2.373-0.2538 5.105-2.999 8.197-8.236l4.994-8.854-0.5508-0.1875 0.6758-1.977 6.627-12.52 6.803-12.39 13.91-2.83-14.08 38.67c-0.4219 1.523-0.5426 2.952-0.3614 4.289 0.1555 1.131 0.5444 2.073 1.168 2.826 0.7007 0.5334 1.624 0.7752 2.77 0.7246 3.496-0.4739 7.138-3.742 10.92-9.807 1.779-2.691 3.879-6.743 6.291-12.11l0.2676-1.228 5.436-11.8c1.923-4.216 3.599-7.391 5.029-9.525 1.516-2.254 2.828-3.843 3.936-4.766 1.67-1.333 3.579-2.18 5.728-2.541 2.763-0.464 5.094 0.2492 6.99 2.141 1.879 1.789 3.068 4.169 3.566 7.137 0.4641 2.763 0.2872 5.16-0.5293 7.191l-1.504 4.199 9.057-1.522 7.779-21.35 11.97-2.957-12.85 39.09c-0.3735 1.536-0.448 2.97-0.2246 4.301 0.1891 1.126 0.6087 2.054 1.258 2.787 0.7172 0.5109 1.646 0.7234 2.789 0.6367 3.48-0.5843 7.017-3.968 10.61-10.15 1.162-1.991 3.114-5.973 5.805-11.81 0-6.601 2.082-12.74 6.244-18.4 5.592-7.741 12.66-12.5 21.19-14.29 5.689-1.188 8.926 0.097 9.711 3.855l1.121-4.527zm-19.98 5.723c-0.4349 0.011-0.8924 0.067-1.375 0.168-5.282 1.103-9.874 8.051-13.78 20.85-3.546 11.45-4.841 19.46-3.887 24.03 0.4455 2.133 1.836 2.955 4.172 2.467 2.133-0.4455 4.437-2.357 6.912-5.736 2.454-3.481 5.298-8.899 8.533-16.25l4.703-17.84c0.1987-0.5716 0.2501-1.59 0.1563-3.055-0.297-1.422-1.018-2.597-2.166-3.523-0.8766-0.7711-1.969-1.139-3.274-1.106zm-155.3 20.72-19.3 50.76-11.76 1.26 16.62-43.58-6.518 9.309c-2.921 4.525-5.54 8.815-7.893 12.89l0.1309 0.1426-0.5137 1.596c-4.614 8.436-8.629 14.28-12.04 17.54-2.829 2.694-5.797 4.149-8.902 4.365-4.141 0.2883-7.141-0.2318-9.002-1.559s-2.929-3.957-3.203-7.891c-0.1297-1.864 0.1705-4.279 0.9004-7.242 0.8335-2.971 2.204-6.446 4.111-10.43l5.107-9.562c1.38-2.593 2.127-4.569 2.24-5.93-0.0865-1.242-0.9614-1.858-2.625-1.846-2.174 0.1513-5.136 2.437-8.885 6.859s-6.297 8.188-7.641 11.3l-11.6 28-12.27 0.8535 17.14-38.49 1.059-2.726 0.6035-2.537c-0.0649-0.9318-0.6152-1.363-1.65-1.291-2.692 0.1874-6.881 4.276-12.57 12.27-2.439 3.4-5.092 7.466-7.936 12.12l0.2109 0.2734-0.5703 1.424c-4.02 6.381-7.328 10.97-9.924 13.77-4.493 4.84-9.435 7.362-14.83 7.562-5.807 0.2162-10.53-1.167-14.18-4.146-3.642-2.98-5.567-7.269-5.775-12.87-0.2587-6.948 2.56-13.54 8.455-19.79 6.697-7 15.13-10.69 25.29-11.07 5.704-0.2124 8.625 1.548 8.764 5.281 0.0849 2.282-1.259 5.239-4.031 8.873-2.673 3.527-5.897 6.19-9.672 7.992-1.022 0.4534-1.891 0.7987-2.609 1.033-0.6146 0.2305-1.899 0.6405-3.85 1.232l-6.809 1.19-2.258 6.314c-0.4297 2.404-0.6105 4.54-0.541 6.406 0.0888 2.385 0.6278 4.288 1.615 5.705 1.091 1.413 2.83 2.075 5.215 1.986 4.77-0.1776 9.505-2.691 14.21-7.539 2.251-2.426 5.113-6.434 8.52-11.86l-0.0352-0.037 0.5352-1.285 7.965-13.35c6.035-8.95 11.12-13.57 15.26-13.86 3.727-0.2595 6.334 0.5973 7.824 2.574 1.033 1.384 1.647 3.476 1.842 6.272l-0.1484 2.35c2.261-3.382 4.658-6.306 7.191-8.772 2.533-2.465 5.093-3.787 7.682-3.967 2.381-0.1658 4.307 0.5837 5.775 2.25 1.565 1.556 2.447 3.783 2.648 6.682 0.1657 2.381-0.0746 4.895-0.7226 7.541s-1.957 5.493-3.93 8.543c-1.979 2.947-3.645 5.925-4.996 8.932-1.255 2.896-1.817 5.275-1.688 7.139 0.1658 2.381 1.75 3.467 4.752 3.258 3.002-0.2089 6.515-2.794 10.54-7.756 2.028-2.642 4.438-6.473 7.197-11.39-0.0201-0.023-0.0403-0.039-0.0606-0.062l0.4863-1.303c1.478-2.768 3.064-5.495 4.76-8.182 1.787-2.801 3.944-6.059 6.469-9.773l6.533-9.154 1.262-1.387zm-105.5 12c-1.141 0.042-2.374 0.3998-3.699 1.072-1.225 0.5649-2.736 1.816-4.533 3.752-1.801 1.832-3.984 4.563-6.549 8.189-2.062 3.192-3.669 6.055-4.82 8.59 1.867-0.069 3.624-0.2911 5.271-0.6641 1.644-0.4766 2.825-0.832 3.543-1.066 0.818-0.342 1.837-0.849 3.059-1.518 3.36-1.787 6.23-4.23 8.607-7.33 2.481-3.104 3.683-5.692 3.605-7.766-0.0849-2.282-1.581-3.37-4.484-3.262zm-45.08 51.4-7.131 5.441c-1.594 1.624-2.768 3.103-3.525 4.436-0.6532 1.335-1.001 2.885-1.041 4.648-0.0544 2.386 0.9038 3.602 2.875 3.646 1.453 0.033 3.1-1.642 4.941-5.025l1.836-5.408c0.6675-1.957 1.349-4.536 2.045-7.738z" transform="matrix(1.077 0 0 1.077 2788 1816)" fill="url(#linearGradient6239)"/>
   </g>
   <g transform="matrix(3.619 0 0 3.619 6602 4120)" fill="#323232">
    <g fill-rule="evenodd" fill="#323232">
     <path d="m56.59 160.6c0.6557-0.3942 0.9531-0.9882 1.437-1.206 0.3615-0.1624-0.2471 1.3-0.3008 1.44-0.768 2.003-7.414 3.763-7.085 0.8711 0.4091-3.595 4.757-5.465 3.982-4.726-2.901 2.766 0.8837 4.272 1.967 3.621z"/>
     <path d="m55.22 157.8c-0.8445 0.3949-0.8198 1.85 0.0336 2.178 1.027 0.3949 2.069-0.5716 1.671-1.608-0.1939-0.5048-0.9099-1.007-1.704-0.5696zm0.3644 0.05c0.4777 0 0.8648 0.362 0.8648 0.8082s-0.3871 0.8082-0.8648 0.8082c-0.4776 0-0.8648-0.362-0.8648-0.8082s0.3872-0.8082 0.8648-0.8082z"/>
     <path d="m53.11 169.6c1.061-1 1.504-2.662 1.504-1.34 0 3.474-1.969 4.4-4.478 5.896-1.253 0.7465-4.9 1.074-6.182 0.1338-3.246-2.378 0.625-7.464 2.908-8.844 2.829-1.71 1.106-0.3869 1.108 2.053 0.002 2.292 2.277 4.8 5.141 2.101z"/>
     <path d="m50.27 179.6c0.6041-1.932-0.6115-3.647-2.76-3.316-6.284 0.9695 1.163 8.425 2.76 3.316zm-3.491-1.758c0.7633-0.2232 1.568 0.2323 1.798 1.017 0.2295 0.7849-0.2033 1.602-0.9667 1.826-0.7634 0.2232-1.568-0.2323-1.798-1.017-0.2295-0.7846 0.2034-1.602 0.9668-1.825z"/>
     <path d="m44.36 177.8c-1.37 6.132 8.616 6.022 6.814-0.1409-0.073-0.2499-0.2406-1.375-0.0866-1.349 1.706 2.314 2.536 4.553 1.761 7.211-0.8248 2.83-2.126 4.021-3.43 5.17-1.419 1.25-3.131 1.739-4.104 1.564-1.399-0.2519-3.019-5.424-2.998-6.809 0.0205-1.38 0.3104-2.301 0.8948-3.543 0.1999-0.4246 1.107-2.245 1.148-2.103z"/>
     <path d="m45.22 194.4c2.601 4.136 8.148 0.9034 6.234-2.14-0.3594-0.5715-1.42-2.348-1.143-2.131 0.8217 0.6412 2.085 0.9877 3.101 1.73 3.46 2.528 0.4494 12.82-1.738 11.74-4.513-2.24-6.215-3.837-6.455-9.198z"/>
     <path d="m48.37 195.6c0.8573 0.1979 2.182-0.2732 2.396-1.447 0.1783-6-7.761-1.632-3.28 1.172 1.366 0.8545 2.309-0.1312 1.993-1.728-0.6845-3.46-4.816 1.148-1.109 2.003z"/>
     <path d="m55.66 203.5c3.556-0.3518 4.355 4.82 1.84 4.781-0.3557-0.006-1.932-0.0573-1.63 0.1219 1.296 0.7683 2.436 0.9228 3.869 0.6996 0.5969-0.0931 3.528-0.3188 3.662-1.054 0.2603-1.428-2.367-4.238-3.512-4.917-0.9982-0.5915-3.662-0.5894-4.229 0.3684z"/>
     <path d="m57.36 204.8c1.532 0.9991 1.064 2.644-0.6529 2.876-2.918 0.3924-2.061-4.646 0.6529-2.876zm-1.496 0.57c0.6425-0.5641 2.099 0.1222 1.598 0.9665-0.2212 0.3733-0.2767 0.5744-0.6842 0.7602-1.076 0.4906-1.521-1.194-0.9141-1.727z"/>
     <path d="m61.96 194.8c22.52 30.72 39.83 1.972 26.59-5.177 15.71 4.925 1.952 23.52-11.18 19.09-24.12-7.082-25.89-37.46-15.66-54.55 0.3306-0.5498-0.0167-2.647-0.4043-5.23-0.0716-0.4779-2.759-1.739-2.822-2.194-0.0453-0.3271 2.72 0.9628 2.684 0.6611 0.4951-2.444 2.029-2.706 2.029-2.706 0.0022 0.0192-0.6809 1.499-0.6347 3.23 0.0576 2.157 0.9052 4.599 1.633 3.854 32.35-31.86 62.67 1.074 138.2-21.86-5.039 2.278-20.72 7.305-35.82 9.814-46.19 7.677-59.43-4.911-84.2 5.67-24.76 10.58-28.19 35.44-20.44 49.4z"/>
     <path d="m64.24 178.2c2.694 6.767 7.403 6.917 10.66 9.213 4.364 3.075 4.851 5.317 7.119 7.906 1.605 1.832-4.777 2.384-8.136 2.072-7.948-0.9645-11.98-10.67-9.643-19.19z"/>
     <path d="m75.57 172.8c0.9977 1.827 2.715 8.19 4.445 9.212 0.2243 0.1324-0.9781 0.4213-1.07 0.4356-7.076 1.115-14.44-3.28-12.83-10.99 0.7554-3.613 1.569-5.605 2.535-6.349 1.204 4.106 5.333 4.777 6.923 7.689z"/>
     <path d="m75.74 159.7c3.337 0.894 5.314 1.121 6.267 4.579 0.8813 3.196 2.67 5.885-4.343 2.133-4.462-2.387-8.996-2.85-5.166-6.243 12.75-13.95 23.93-12.7 49.23-11.42 2.703 0.136 20.82-0.3136 12.37 1.105-6.368 1.07-10.2 2.144-19.68 2.412-5.6 0.1584-13.48 0.0176-18.92 1.106-0.7099 0.1423 11.16 1.112 15.67 9.145l4.385 7.81c3.749 6.678-3.86-7.225-15.49-13.25-8.319-4.308-21.31-1.105-24.32 2.622z"/>
     <path d="m102.9 162.6c0.3819 1.504 1.117 1.941 2.373 2.78 1.002 0.6708 0.5348-0.7257 0.5348-1.508 0-1.266-0.8968-2.518-1.855-3.316-0.3576-0.2977-1.092-1.169-1.57-1.284 0.5216 1.3 0.2437 2.249 0.5171 3.327z"/>
     <path d="m119.6 163.2c0.4447-0.1803-1.24-1.16-1.404-1.273-2.331-1.61-10.54-2.977-8.091-1.057 2.964 2.319 7.325 3.21 9.495 2.33z"/>
     <path d="m109 165c1.878 1.756 3.342 5.683 3.342 8.241 0 1.345 0.1335 2.691 0.1335 4.02 0 1.906-0.2579 2.401-1.236 0.3015-0.9267-1.988-1.945-4.692-2.306-6.867-0.3603-2.176 0.0333-3.575 0.0667-5.695z"/>
     <path d="m169 165.4c-8.256-6.331-18.17-8.946-28.67-8.777-2.919 0.0469-7.078 0.1413-9.625 1.34-0.883 0.4157 4.816 2.567 5.548 2.881 5.056 2.171 6.864 4.423 11.56 3.484 1.195-0.2389 8.977-1.303 5.414 0.804-0.7445 0.4404-4.363 0.9943-4.612 1.273-0.3569 0.4005 2.192 0.7042 2.406 0.7371 2.164 0.3334 20.95 0.3896 17.98-1.742zm-42.19-6.086c0.7682 0.1906 1.334 0.9369 1.623 1.162 5.588 4.364 10.2 7.562 16.7 9.622 2.512 0.7953 2.201 5.366 7.355 5.584 0.3097 0.0131-1.22-0.9913-2.273-2.231-0.9294-1.094-1.402-2.44-1.138-2.453 7.475-0.3666 17.11 1.042 24.2-3.521 20.94 16.86 42.3 15.13 55.61 9.246 1.814-0.8274 2.531-1.227 4.98-2.591-4.74 1.825-9.765 2.967-11.16 3.127-23.54 2.678-30.25-2.279-46.78-12.09-0.2492-0.1478 6.006-5.472 8.846-9.097 1.007-1.286 2.497-3.446 2.429-3.389-1.713 1.45-11.89 12.69-14.19 10.38-0.7001-0.7017-2.187-1.375-1.816-1.49 1.185-0.3702 4.403-2.099 4.774-5.243 0.2265-5.28-4.943-5.091-5.564-2.462-0.1592 0.6739 0.1118 2.148 0.4914 0.9834 1.067-3.273 5.496-0.0515 1.915 3.539-4.062 4.073-12.33-2.722-17.85-3.182 0.7486-0.8588 7.502-2.094 7.502-2.094 0.0704-0.8144-14.89 0.6996-16.43 0.7874-3.216 0.1842 0.0147-2.372 2.039-3.4 8.965-4.556-0.3023-3.074-2.774-0.4355-0.8773 0.9366-2.678 4.172-3.058 4.154-5.467-0.2638-13.01 3.426-16.22 2.419-3.614-0.8479-7.988-1.113-10.95-1.113-7.349 0-3.11-0.0695 2.499 1.261 11.2 2.657 6.343 2.039 9.131 7.231 0.723 1.346 1.949 2.506 2.858 3.719 2.029 2.708 0.3266-3.455-0.2173-4.255-0.574-0.8433-1.178-1.925-1.871-2.646-0.2476-0.2577-0.6514-1.173-0.671-1.53z"/>
     <path d="m173.6 169.6c-3.24 1.623-3.414 5.049-2.707 8.207 0.2993 1.337 1.279 2.743 2.306 3.618 0.6817 0.5813 3.029 2.399 2.172 0.7371-0.663-1.287-2.064-2.647-1.437-4.522 0.8595-2.571 3.958-2.472 4.879-0.6364 0.4803 0.9568 0.9357 2.303 0.9357 0.7371 0-4.4-1.774-7.122-6.149-8.14z"/>
     <path d="m177.7 180.7c0.9386-0.6018 1.356-2.068 0.4176-3.006-0.4907-0.4908-1.111-1.054-2.373-0.7206-2.256 0.5964-1.188 5.742 1.955 3.727zm-0.167-0.804c0.3344-0.2953 0.3676-0.5307 0.3676-1.005 0-0.4498-0.5159-1.11-1.003-1.239-2.75-0.7301-0.8602 3.564 0.6352 2.244z"/>
     <path d="m180.9 182c0.3562 1.06 0.6771 1.5 1.495 2.169 0.3296 0.2695 1.078 0.4805 1.504 0.5693 0.1747 0.0363-0.8472-1.044-0.9776-1.239-0.5802-0.8689-0.348-1.914 0.2756-2.655 2.022-2.402 3.778 1.915 3.509-0.4607-0.4498-3.973-4.193-4.742-4.331-4.617-0.37 0.3356-2.585 2.934-1.476 6.233z"/>
     <path d="m183.7 181.1c-1.194 1.645 0.3707 3.489 1.747 2.618 2.431-1.54-0.9195-3.758-1.747-2.618zm0.5272 1.42c0.1208 0.2078 0.7538 0.4425 0.9609 0.3015 0.4179-0.2844 0.3117-0.9498-0.0668-1.206-0.618-0.4181-1.336 0.1454-0.8941 0.9045z"/>
     <path d="m194.2 162c-4.176 0-10.08 1.079-13.64 3.551-1.654 1.151 1.394 0.7511 2.406 0.4692 4.196-1.168 7.263-2.484 11.23-4.02z"/>
     <path d="m181.8 167c-0.7411 0.3044 4.203 2.056 6.951 1.34 0.2425-0.0632-3.733-2.664-6.951-1.34z"/>
     <path d="m191.8 181.1c-1.158-0.5471-2.767-0.3168-2.323 1.273 0.0535 0.1918 0.4709 0.9499 0.468 0.9884-0.0111 0.136-0.6417-0.0556-0.7354-0.134-1.316-1.105-1.561-2.645-0.919-4.221 0.4027-0.9882 3.509 1.1 3.509 2.094z"/>
     <path d="m190.6 181.4c-1.317 0 0.5311 2.345 1.086 0.9379 0.09-0.2286-0.1742-0.6221-0.3508-0.7537-0.2805-0.2096-0.3642-0.1842-0.7354-0.1842z"/>
     <path d="m209.3 189.8c-0.5713-0.7627-0.7934-2.3-1.203-3.216-0.706-1.58-2.086-2.758-3.309-3.752-0.7813-0.6345-2.509-1.656-1.337 0.1341 0.466 0.7118 0.3421 1.729 0.8021 2.513 0.8411 1.433 3.664 4.06 5.046 4.321z"/>
     <path d="m207.9 182.7c1.833 0.8711 2.91 1.943 5.146 1.943 0.6893 0 5.03-0.2313 4.812-0.3349-3.348-1.594-6.167-2.581-9.959-1.608z"/>
     <path d="m238.6 177.9-7.987-0.1674c-1.888-0.0397-3.056 0.2248-4.679 1.038-0.3506 0.1757-1.419 0.6384-3.458 0.9787 2.717 1.002 7.822 1.717 10.58 0.8303 1.251-0.4029 4.773-1.647 5.548-2.68z"/>
     <path d="m228.3 175c2.151-1.534 3.828-2.23 4.879-3.417 0.7122-0.8038 1.246-1.544 1.704-2.479 0.7634-1.558-4.168 1.726-4.688 2.268-0.2804 0.2926-1.613 1.634-1.895 3.628z"/>
     <path d="m203 170.5c0.4 0.7149 0.9329 2.274 0.1086 2.837-0.6098 0.4168-2.454 0.2584-3.089-0.1167-0.203-0.12-1.106-0.5558-0.6513-0.8473 0.2004-0.1286 0.8481 0.1387 1.256-0.0311 1.032-0.429 1.176-0.9508 0.8089-1.88-0.2823-0.7139-1.302-0.7069-1.147-0.9125 0.2342-0.3106 1.996-0.332 2.714 0.9499z"/>
     <path d="m200.5 170.6c0.0903 0.3631-0.0193 0.7882-0.3799 0.9452-0.6017 0.2615-1.208-0.4505-0.945-1.067 0.0958-0.2241 0.2342-0.3883 0.4673-0.4114 0.0355-0.004 0.7907 0.263 0.8576 0.5328z"/>
     <path d="m206.7 169.6c1.15-1.323 5.713 1.472 6.577 4.078 0.8493 2.561-1.343 3.083-3.845 2.53-0.5788-0.1279-3.21-0.9623-3.028-1.784 0.1159-0.5245 3.57 0.2518 3.006-2.681-0.219-1.14-2.85-1.97-2.709-2.143z"/>
     <path d="m206.6 173.6c-0.8857-0.1702-1.574-1.113-0.8658-1.89 0.3334-0.3657 0.7511-0.8168 1.34-0.8322 0.862-0.0226 1.939 0.8889 1.357 1.866-0.2753 0.463-1.253 1.069-1.832 0.8556zm0.8418-1.872c0.5044 0.1115 0.8279 0.5901 0.7221 1.069-0.1058 0.4786-0.6008 0.7764-1.105 0.6649-0.5044-0.1115-0.8278-0.5902-0.722-1.069 0.1057-0.4785 0.6008-0.7762 1.105-0.6647z"/>
     <path d="m213.8 168.9c1.958-3.672 9.175-0.9173 10.77 1.763 0.6496 1.093 1.674 1.669 0.2808 2.601-2.497 1.671-3.485 3.021-6.852 2.276-0.6375-0.1409-1.974-0.2421-2.486-0.6009-0.0279-0.0196 2.038-0.6737 2.416-1.25 0.8931-1.364 0.7427-3.357-0.6697-4.248-0.9985-0.6296-3.434-0.074-3.457-0.5411z"/>
     <path d="m217.9 171.8c-0.4714 2.578-3.883 2.37-4.262 0.7505-1.041-4.451 4.671-2.987 4.262-0.7505zm-3.087 0.8444c0.9097 1.73 3.817-0.6511 1.579-1.983-0.9283-0.5526-2.636-0.0255-1.579 1.983z"/>
     <path d="m222 164.5c0.4637-3.519 5.221-2.81 7.322-1.692 0.2717 0.1443 2.224 1.133 1.873 1.358-0.4832 0.3092-1.049 1.257-1.315 1.768-0.6948 1.335-2.623 2.757-4.162 2.648-0.1447-0.0101-1.015-0.1539-1.037-0.2634-0.006-0.0283 0.8335-0.3838 0.9423-0.5465 1.028-1.538 0.714-3.628-1.378-3.753-0.6509-0.0388-1.746-0.001-2.246 0.4815z"/>
     <path d="m224 167.7c-0.7448-0.1646-2.645-1.18-1.769-2.14 1.316-1.442 3.025-0.9526 3.306 0.3059 0.2185 0.9789-0.325 2.102-1.537 1.835zm-0.6279-1.031c0.5907 0.5028 1.322 0.6012 1.524-0.315 0.4064-1.839-2.575-0.5783-1.524 0.315z"/>
     <path d="m53.06 168.2c0.4539-0.9221 0.2044-2.853-0.9861-3.132-5.633-1.321-1.655 8.499 0.9861 3.132zm-2.417-2.156c0.7164 0 1.297 0.5933 1.297 1.325 0 0.7319-0.5808 1.325-1.297 1.325-0.7163 0-1.297-0.5933-1.297-1.325 0-0.7318 0.5807-1.325 1.297-1.325z"/>
     <path d="m227 158.9c0.0248 0.7589-0.2555 2.122 0.7473 0.9543 0.6211-0.7234 1.319-2.318 1.347-3.305 0.0416-1.489-3.548-1.194-4.28 0.1595-0.0788 0.1457-1.443 2.525-1.262 2.347 1.078-1.055 3.362-2.852 3.447-0.1557z"/>
     <path d="m224.5 159.7c0.3946 0.8966 1.236 0.7591 1.439-0.1621 0.1312-0.5933-0.066-0.8765-0.6221-0.9994-0.5576-0.1233-1.044 0.6452-0.8171 1.162zm0.4145-0.2459c-0.1559 0.3844 0.272 0.3659 0.4539 0.4129 0.9151 0.2369 0.0283-1.601-0.4539-0.4129z"/>
     <path d="m53.92 142.7c-0.6733-0.3634-1.336-0.3166-1.77-0.6221-0.3239-0.2283 1.244-0.4497 1.393-0.4751 2.115-0.3599 7.015 4.462 4.36 5.652-3.302 1.48-7.127-1.308-6.096-1.018 3.858 1.087 3.225-2.937 2.113-3.537z"/>
     <path d="m52.13 145.3c0.7701 0.5254 2.01-0.2375 1.856-1.138-0.1836-1.085-1.546-1.489-2.235-0.6184-0.3355 0.424-0.4025 1.296 0.3784 1.757zm-0.1426-0.3391c-0.2434-0.411-0.1292-0.9286 0.2548-1.156 0.3839-0.2274 0.8926-0.0787 1.136 0.3323s0.1292 0.9286-0.2547 1.156c-0.384 0.2274-0.8927 0.0787-1.136-0.3323z"/>
     <path d="m72.53 139.6c0.9479-1.108 1.21-2.808 1.352-1.493 0.372 3.454-1.486 4.586-3.821 6.342-1.166 0.8763-4.756 1.592-6.133 0.7949-3.482-2.016-0.1776-7.488 1.944-9.104 2.63-2.003 1.058-0.5031 1.321 1.922 0.2473 2.279 2.778 4.529 5.336 1.538z"/>
     <path d="m127.6 177.5c2.282 1.065 4.599-0.1489 4.548-2.854-0.1528-7.91-10.58 0.0362-4.548 2.854zm2.747-4.013c0.1485 0.9784-0.5468 1.896-1.552 2.048-1.006 0.1527-1.942-0.5167-2.091-1.495-0.1485-0.9784 0.5468-1.896 1.553-2.048 1.006-0.1527 1.942 0.5167 2.09 1.495z"/>
     <path d="m130.8 170.5c-7.334-2.708-8.856 9.626-0.9571 8.427 0.3204-0.0486 1.736-0.0685 1.678 0.117-3.137 1.72-6.036 2.372-9.185 0.9753-3.353-1.487-4.606-3.289-5.806-5.088-1.306-1.957-1.625-4.15-1.248-5.32 0.5428-1.684 7.19-2.823 8.894-2.567 1.698 0.2542 2.786 0.7647 4.221 1.692 0.4904 0.3169 2.585 1.737 2.403 1.765z"/>
     <path d="m164 174.5c-4.853 0.5671-4.322 6.966-0.7523 6.548 0.6705-0.0784 2.73-0.2714 2.415-0.1142-0.9325 0.4657-1.789 1.457-2.897 2.055-3.772 2.035-11.77-5.114-9.846-6.622 3.964-3.11 6.138-3.958 11.08-1.867z"/>
     <path d="m161.6 176.8c-0.5475 0.6887-0.6927 2.087 0.2752 2.786 5.338 2.743 4.813-6.302 0.3537-3.465-1.359 0.8649-0.8754 2.14 0.702 2.542 3.417 0.8713 1.037-4.841-1.331-1.863z"/>
     <path d="m202.7 158.6c-1.763 3.108-6.45 0.7785-4.967-1.254 0.2096-0.2874 1.161-1.545 0.8402-1.402-1.375 0.6161-2.158 1.458-2.802 2.757-0.2681 0.5414-1.774 3.066-1.251 3.6 1.017 1.036 4.827 0.5106 6.042-0.0335 1.059-0.4744 2.593-2.652 2.138-3.668z"/>
     <path d="m200.6 159.2c-1.7 0.6752-2.774-0.6551-1.973-2.192 1.362-2.61 4.984 0.995 1.973 2.192zm0.3972-1.551c0.0903 0.8502-1.31 1.644-1.711 0.7484-0.1774-0.3959-0.3096-0.5573-0.2265-0.9973 0.2195-1.162 1.853-0.5545 1.938 0.2489z"/>
     <path d="m72.34 138.3c0.3526-0.9654-0.1022-2.859-1.316-3.009-5.742-0.7099-0.7356 8.628 1.316 3.009zm-2.634-1.885c0.7124-0.0767 1.353 0.4511 1.432 1.179 0.0784 0.7277-0.4355 1.38-1.148 1.456-0.7121 0.0767-1.353-0.451-1.431-1.179-0.0783-0.7275 0.4356-1.38 1.148-1.456z"/>
     <path d="m63.83 209.7c2.518-1.231 4.521 2.352 2.66 3.012-0.2629 0.0933-1.436 0.4864-1.165 0.5355 1.163 0.2102 2.043 0.0121 3.036-0.5439 0.4134-0.2318 2.507-1.2 2.404-1.777-0.1993-1.121-2.899-2.468-3.927-2.654-0.8957-0.1618-2.853 0.5683-3.009 1.428z"/>
     <path d="m65.43 210.2c1.4 0.3156 1.506 1.653 0.3067 2.293-2.038 1.086-2.786-2.852-0.3067-2.293zm-0.9442 0.8284c0.3181-0.5904 1.576-0.4842 1.44 0.2734-0.0605 0.3349-0.0464 0.498-0.2951 0.746-0.6567 0.6551-1.445-0.4615-1.144-1.019z"/>
     <path d="m73.75 213c1.811-1.185 3.69 1.369 2.328 2.052-0.1925 0.0967-1.054 0.5105-0.8411 0.522 0.9116 0.0494 1.567-0.1868 2.274-0.708 0.2945-0.2173 1.806-1.16 1.672-1.592-0.2604-0.8401-2.458-1.613-3.263-1.657-0.7019-0.038-2.132 0.7093-2.168 1.383z"/>
     <path d="m75.02 213.2c1.103 0.1075 1.312 1.122 0.455 1.728-1.457 1.028-2.409-1.918-0.455-1.728zm-0.644 0.7254c0.1871-0.483 1.161-0.5223 1.129 0.0713-0.0142 0.2625 0.0123 0.386-0.1545 0.6-0.4403 0.5649-1.152-0.215-0.9747-0.6713z"/>
     <path d="m82.25 213.5c1.597-1.461 3.862 0.7565 2.628 1.651-0.1745 0.1264-0.9578 0.6735-0.7461 0.6507 0.9076-0.0981 1.516-0.4367 2.13-1.065 0.2556-0.2619 1.595-1.435 1.393-1.841-0.3923-0.7872-2.686-1.196-3.488-1.11-0.6988 0.0755-1.99 1.043-1.917 1.714z"/>
     <path d="m83.53 213.5c1.106-0.0715 1.476 0.8957 0.7273 1.632-1.272 1.25-2.686-1.505-0.7273-1.632zm-0.5188 0.8196c0.1069-0.5068 1.062-0.7026 1.126-0.1115 0.0282 0.2613 0.0743 0.379-0.0559 0.617-0.3435 0.6284-1.171-0.0267-1.07-0.5055z"/>
     <path d="m162.8 152.8c1.69 1.601 3.796 0.9561 5.548-0.1622 0.7418-0.4735 1.376-1.373 1.68-2.184 0.2017-0.5388 0.7855-2.354-0.0305-1.473-0.6317 0.682-1.146 1.826-2.416 1.858-1.74 0.0438-2.359-1.848-1.452-2.807 0.4725-0.4995 1.186-1.069 0.2402-0.7264-2.657 0.9633-3.912 2.63-3.569 5.495z"/>
     <path d="m168.6 147.8c-0.5688-0.435-1.546-0.3657-1.907 0.406-0.1889 0.4037-0.3932 0.9017 0.0843 1.59 0.854 1.232 3.727-0.5396 1.822-1.996zm-0.4489 0.2769c-0.2515-0.1373-0.4009-0.1058-0.6873-0.002-0.2716 0.0985-0.5574 0.5546-0.5288 0.8768 0.1612 1.82 2.341-0.2609 1.216-0.8748z"/>
     <path d="m154.5 164.2c0.8033 1.365 2.303 1.34 3.659 0.9391 0.5744-0.1699 1.159-0.6386 1.51-1.112 0.2334-0.3144 0.9572-1.392 0.2575-0.969-0.5416 0.327-1.094 0.9781-1.93 0.7598-1.146-0.2992-1.195-1.653-0.4211-2.109 0.4031-0.2376 0.9769-0.4759 0.2939-0.4298-1.919 0.1295-3.054 0.9833-3.369 2.921z"/>
     <path d="m159.2 162.1c-0.29-0.3916-0.9419-0.5303-1.323-0.0937-0.1995 0.2285-0.427 0.5157-0.2444 1.056 0.3265 0.9663 2.539 0.3492 1.568-0.9624zm-0.3457 0.0965c-0.1386-0.1372-0.2423-0.1447-0.4491-0.1307-0.1962 0.0132-0.469 0.2576-0.511 0.4738-0.2375 1.221 1.58 0.2702 0.9601-0.3431z"/>
    </g>
   </g>
   <g transform="translate(3419 2332)" fill="#8d0202">
    <path style="color-rendering:auto;text-decoration-color:#000000;color:#000000;font-variant-numeric:normal;shape-rendering:auto;font-variant-ligatures:normal;text-decoration-line:none;font-variant-position:normal;mix-blend-mode:normal;solid-color:#000000;font-feature-settings:normal;shape-padding:0;font-variant-alternates:normal;text-indent:0;dominant-baseline:auto;font-variant-caps:normal;image-rendering:auto;white-space:normal;text-decoration-style:solid;text-orientation:mixed;isolation:auto;text-transform:none" d="m3578 1750c-0.7886 44.82 1.07 82-0.6395 123.4-0.5123 12.05-1.629 23.96-2.8 27.69l-0.024 0.079-0.021 0.081c-8.106 20.75-32.08 33.71-52 34.11h-0.043c-5.489 0.099-9.451-0.033-12.24-0.3111 0.6971-0.2979 1.213-0.5539 2.108-0.8849l0.021-0.01c15.78-6.138 24.01-22.94 21.95-36.13-2.484-13.69-12.86-26.12-26.9-28.72l-0.053-0.01-0.051-0.01c-10.98-1.718-18.34 0.1859-27.97 5.974l-0.1403 0.084-0.1321 0.097c-16.19 11.79-19.06 32.23-10.6 48.34 8.46 16.1 28.14 28.03 55.45 24.68h0.044c13.96-1.886 41.98-8.801 56.21-30.87 3.905-5.822 7.049-10.65 9.017-18.1 1.972-7.46 2.815-17.31 2.85-33.85 0.031-38.69 0.3657-77.32 0.2803-115.6zm3.693 153.2-0.047 0.1596c0.01-0.017 0.01-0.042 0.013-0.058 0.011-0.035 0.024-0.071 0.034-0.1018z"/>
    <path d="m3606 2199c-3.752-9.344-0.8846-27.78 12.51-35.89 7.355-4.813 15.78-7.676 23.87-6.057 29.8 6.781 30.14 47.38 4.318 57.73-7.145 2.643-8.81 4.093-7.243 6.31 25.13 12.4 45.49-7.075 49.53-33.14 5.164-24.43 3.745-62.77 3.536-66.4-61.2-0.5615-104.1-34.55-118.5-72.06-25.15-69.66 45.77-117.6 86.58-141.3l28.23-16.21c-1.045-29.18-7.498-59.02-2.548-83.57 5.603-28.99 19.78-51.33 50.03-46.46 78.08 15.33 6.632 133-38.44 164.1l0.1983 23.7 0.1982 16.52c53.59 1.631 94.72 41.32 78.91 94.37-12.52 37.25-42.07 57.9-77.88 60.53l-0.064 30.2c-0.069 20.87-4.56 41.77-8.964 53.26-7.554 18.4-24.77 26.35-38.98 24.86-28.94-2.783-39.34-17.56-45.26-30.49 0-0.0001 0.0002 0 0.0002 0zm86.13-90.85c-0.095-35.11 0.332-77.55 0.09-110.3-49.17 1.138-61.38 59.83-27.45 81.63-38.95-13.18-38.13-52.97-35.33-65.57 8.754-33.99 37.13-44.08 62.15-47.51l-0.2122-13.16c-0.1166-11.53-0.496-21.17-0.843-21.41-0.6592-0.4668-2.321 0.5982-31.29 20.05-46.04 30.91-56.06 48.86-60.07 67.1-9.262 46.84 27.91 93.01 92.95 89.14zm56.21-45.18c6.342-40.76-18.08-63.2-49.69-65.1 0.4379 35.86 0.1763 75.17 0.7151 110.1 31.25-5.013 44.89-28.2 48.97-44.99zm-10.71-274.6c-31.78-6.504-35.26 39.86-40.33 96.35 39.93-20.58 76.78-90.5 40.33-96.35z" stroke-width=".7413"/>
    <path style="color-rendering:auto;text-decoration-color:#000000;color:#000000;font-variant-numeric:normal;shape-rendering:auto;font-variant-ligatures:normal;text-decoration-line:none;font-variant-position:normal;mix-blend-mode:normal;solid-color:#000000;font-feature-settings:normal;shape-padding:0;font-variant-alternates:normal;text-indent:0;dominant-baseline:auto;font-variant-caps:normal;image-rendering:auto;white-space:normal;text-decoration-style:solid;text-orientation:mixed;isolation:auto;text-transform:none" d="m3359 1747v272h39.61v40.49h114.4c-1.963 6.518-5.901 16.36-14.65 26.9-14.47 17.42-41.06 35.29-92.63 35.29h-6.56v113.1h6.56c122.8 0 186.5-29.81 219.3-60.74 16.43-15.47 25.04-31.13 29.48-43.01 1.932-5.168 2.99-9.53 3.676-13.03 7.801 1.55 23.63 4.501 36.53 4.33 9.448-0.125 20.4-3.627 29.59-6.936 3.378-1.216 5.981-2.288 8.566-3.336 0.7448 3.517 1.783 7.664 3.592 12.61 4.583 12.54 13.37 29.11 29.99 45.52 33.24 32.82 97.43 64.59 220.3 64.59h6.598l-0.6269-109.7h-114.6c1.55-11.75 7.227-21.01 15.64-28.91 9.922-9.319 23.7-16.37 37.71-21.41 28.02-10.07 56.39-12.1 56.39-12.1l6.105-0.4258v-40.05h39.61v-275.1zm13.12 13.12h648.4v248.8h-39.61v41.13c-10.14 1.148-31.76 4.297-53.82 12.22-15.07 5.416-30.37 13.03-42.26 24.19s-20.24 26.29-20.24 45.03v6.562h115.2l0.4766 83.36c-116.1-1.131-174.8-31.39-204.5-60.7-15.13-14.94-22.88-29.72-26.89-40.69-4.011-10.97-4.232-17.62-4.232-17.62l-0.4062-9.732-8.867 4.035s-6.772 3.082-15.42 6.195-19.39 6.082-25.32 6.16c-12.97 0.1716-40.49-5.324-40.49-5.324l-7.664-1.598-0.2324 7.826s-0.1132 6.09-3.938 16.32c-3.824 10.23-11.3 24.04-26.19 38.06-29.21 27.5-87.55 56.01-203.8 57.07v-87.02c50.49-1.568 80.07-20.35 96.17-39.72 16.81-20.23 19.46-41.03 19.46-41.03l0.9238-7.377h-117.1v-40.49h-39.61z"/>
    <path style="color-rendering:auto;text-decoration-color:#000000;color:#000000;font-variant-numeric:normal;shape-rendering:auto;font-variant-ligatures:normal;text-decoration-line:none;font-variant-position:normal;mix-blend-mode:normal;solid-color:#000000;font-feature-settings:normal;shape-padding:0;font-variant-alternates:normal;text-indent:0;dominant-baseline:auto;font-variant-caps:normal;image-rendering:auto;white-space:normal;text-decoration-style:solid;text-orientation:mixed;isolation:auto;text-transform:none" d="m3812 1751c0.06 50.7-0.9926 103.4 1.338 147.7 0.9183 6.824 2.775 11.3 5.801 17.39l0.09 0.1838 0.1128 0.1741c13.82 21.46 36.34 33.57 61.61 32.77 13.76-0.1515 23.88-1.867 32.04-6.473 19.49-11.88 28.46-43.38 15.97-60.7-7.864-9.127-20.25-13.76-31.92-12.02h-0.028c-23.29 3.644-35.1 25.19-27.77 44.66 7.648 13 14.31 16.59 24.84 21.11-2.784 0.2782-6.744 0.4105-12.23 0.3112h-0.19c-29.03 0.9589-47.45-17.54-51.85-34.11l-0.021-0.081-0.026-0.079c-1.171-3.73-2.287-15.63-2.8-27.68-1.14-41.22-0.6386-85.6-0.6378-123.1z"/>
   </g>
   <path style="paint-order:markers stroke fill" fill="none" d="m7796 4461a685.8 685.8 0 0 1 -681.7 685.8 685.8 685.8 0 0 1 -689.8 -677.7 685.8 685.8 0 0 1 673.6 -693.8 685.8 685.8 0 0 1 697.8 669.5l-685.6 16.22z"/>
   <g aria-label="                                           Сумський академічний театр імені" transform="rotate(14.2 7088 4419)">
    <g fill="#323232">
     <path d="m6428 4861q-14.2 7.182-28.93 0.5027-15-6.771-25.17-26.87-1.119-2.213-2.145-4.242t-1.776-4.428q-1.679-3.32-1.967-5.721l0.089-0.7398 1.111 0.3646 1.492 2.951q11.47 22.68 25.65 29.64 13.99 7.052 29.85-0.969 9.774-4.943 13.98-15.41 3.561-9.444 1.484-19.05-28.93 0.041-54.3-10.75-30.19-12.99-42.69-37.7-3.824-7.561-2.097-13.76 1.45-6.292 7.905-9.556 9.406-4.757 24.02-1.497 16.28 3.807 32.15 16.86 10.3 8.456 18.01 17.29 7.434 8.746 12 17.78 10.81-0.1421 22.82-2.508 12-2.366 20.12-6.47 8.852-4.477 12.34-10.87 3.112-6.669-1.365-15.52-8.115-16.04-28.29-21.13-8.975-2.177-16.83-1.679-7.854 0.4982-14.31 3.763-11.62 5.876-6.489 16.02 4.57 9.037 15.02 10.01 8.136 0.5172 16.99-3.96 2.951-1.492 4.793-2.887 1.658-1.302 2.3-2.321l0.8288-0.6507 0.7398 0.089q-0.8839 8.784-10.29 13.54-8.483 4.291-16.72 1.74-9.717-2.728-15.59-14.35-3.078-6.086-0.884-11.36 2.01-5.185 8.28-8.356 13.83-6.995 32.71-2.184 21.19 5.263 29.96 22.6 8.954 17.7 4.026 31.31-2.376 5.834-6.607 10.29-4.416 4.549-11.98 8.373-7.93 4.011-16.24 5.897-8.494 1.98-17.92 2.116 3.008 10.98-0.08 22.74-3.629 14.8-15.99 21.05zm-21.98-97.5q-11.78-10.02-28.62-12.62-7.676-0.9814-13.87-0.3984-6.374 0.6763-11.35 3.195-9.221 4.664-5.024 12.96 7.742 15.31 35.14 23.22 23.88 6.915 51.42 5.956-5.13-10.14-10.43-16.03-5.297-6.353-17.27-16.28z"/>
     <path d="m6458 4690q3.546-1.125 2.608-4.08-1.75-5.516-22.66-14.71l-17.29-6.655-29.08-4.865-6.774-15.2 70.03 11.6q-7.835-9.656-18.99-15.44-7.329-3.962-19.82-7.803-1.298-0.6723-1.682-1.201l0.6723-1.298 2.282 0.3598q12.17 3.509 20.08 7.937 11.02 6.042 20.99 17.62l37.95 6.169q12.07 1.808 21.09 10.44 8.963 8.43 12.59 19.86 2.376 7.485-0.3232 13.33-2.636 6.04-9.728 8.291-12.8 4.064-29.91-10.89-13.29-11.83-24.59-31.01l-32.8-5.637q12.3 3.903 18.97 7.856 10.25 5.638 12.43 12.53 2 6.304 0.3585 11.38-1.83 4.483-8.527 6.609-6.5 2.063-14.47 1.556-7.967-0.5072-15.26-2.312l-10.03-2.236q-4.69-1.114-6.525-0.7479-1.773 0.5626-0.9601 3.123 1.375 4.334 21.86 11.49l17.24 5.805 1.028 1.191-0.6723 1.298-1.11-0.081-32.71-11.52q-2.854-1.479-5.046-3.602-2.254-2.32-3.836-5.938-1.438-4.531 0.2666-9.408 1.508-4.815 7.614-6.753 7.486-2.376 23.33 0.4023l11.66 2.587 5.156 0.532zm10.45-17.63q12.97 20.38 28.52 29.76 12.83 7.636 22.68 4.511 4.925-1.563 6.807-5.196 2.205-3.302 0.8292-7.635-1.938-6.106-8.032-9.593-5.959-3.746-20.24-6.371z"/>
     <path d="m6397 4585q-14.08-6.03-21.55-12.64-3.855-3.39-7.435-9.121 3.474-0.5234 6.948-1.047 4.384-0.033 8.533-0.2406 4.149-0.207 15.39 2.279l16.13 3.004q2.78 0.4172 6.408 0.9156 3.393 0.3248 5.028 0.079 2.861-0.4311 2.9-2.945-0.2771-1.839-10.12-4.745l-24.66-6.943q-15.12-4.619-23.67-11.48-5.03-4.258-7.435-9.121 2.861-0.4311 6.162-0.7193 3.3-0.2883 8.533-0.2406 5.201-0.1566 16.15 1.747l12.99 1.596 10.02-0.047q7.97-1.201 7.046-7.332-0.5542-3.678-12.57-11.27-8.516-5.196-16.61-8.992l-0.7055-0.5207 1.593-1.912 0.6438 0.112 18.64 9.941q11.07 6.901 11.93 12.62 1.17 7.766-2.996 13.41-4.401 5.47-13.39 6.825-6.744 1.016-13.76 0.1928-7.021-0.8232-14.26-3.077-3.046-0.7951-4.364-1.224-1.554-0.6019-4.048-1.898l6.9 4.185q5.868 2.878 13.69 4.835 36.55 9.541 37.26 14.24 0.7389 4.905-2.998 9.23-4.003 3.947-11.36 5.056l-8.062 0.5877q-2.923 0.022-4.21-0.2016-1.492-0.1932-5.826-1.212l-10.25-2.844-10.73-4.653 9.252 5.921 10.18 5.154 26.96 12.45q13.3 7.819 15.09 19.67 1.786 11.85-6.797 13.15-3.474 0.5234-5.887-1.621-2.617-2.114-3.55-5.526-0.4926-3.27 1.212-5.826 1.501-2.525 5.588-3.141 2.657-0.4002 4.415 0.1709 1.554 0.6019 3.18 3.074-1.755-11.65-19.83-20.63z"/>
     <path d="m6372 4446q2.686-0.048 4.996 1.977 2.1 1.823 2.163 5.335 0.037 2.066-0.9663 3.738-1.605 2.716-5.118 2.779-2.686 0.048-4.365-1.368-1.886-1.413-2.152-4.715l-0.019-1.033q-1.015 1.052-1.38 3.745 0.1673 9.298 18.36 20.96t31 11.43q8.472-0.1523 8.327-8.211-0.1895-10.54-8.637-20.51-6.34-7.741-17.2-13.75l-1.266-1.424-0.2178-0.6162 0.8154-0.6347 2.701 0.7782q13.79 8.02 20.38 18.44 5.743 8.992 5.921 18.91 0.1709 9.505-5.3 15.6-5.682 5.89-14.57 6.05-15.08 0.2713-28.75-12.51t-13.99-30.75q-0.2527-14.05 9.252-14.22z"/>
     <path d="m6365 4405 19.77 12.86q-1.115-1.74-1.672-2.61-0.7482-1.092-1.978-4.084-1.711-4.893-1.36-9.633 0.5942-8.038 5.746-13.25 4.961-5.436 14.44-4.735 11.54 0.8531 20.37 10.42 8.635 9.342 7.644 22.74-0.8532 11.54-6.936 18.14-6.083 6.596-15.56 5.895-4.328-0.3199-9.565-2.365-5.443-2.06-13.81-6.616l-17.07-10.17zm45.12 23.23q6.183 0.457 10.52-2.124 4.335-2.581 4.701-7.527 0.6094-8.244-9.827-15.65-10.44-7.403-21.15-8.195-4.946-0.3657-7.778 1.497-3.023 1.642-3.434 7.206-0.3809 5.153 2.139 10.31 1.611 3.435 5.062 7.213l11.43 5.197q2.428 0.8011 4.252 1.35 1.824 0.5493 4.092 0.7169z"/>
     <path d="m6430 4365-2.79 15.46-49.31-37.46 9.424 11.78q8.164 9.454 15.6 17.1l0.7034 0.757q-0.1469 0.8135-1.514 1.407l-1.48-1.107q-4.46-4.375-8.644-9.121-4.35-4.986-10.03-11.89l-9.22-11.74-1.297-2.124 1.107-16.6zm-43.42-75.88q2.644 0.4773 4.181 2.435 1.333 1.921 0.8561 4.565-0.4773 2.644-2.268 4.421-1.44 1-4.768 0.8193l-3.347-1.234q0.06 3.161 7.921 7.31 4.384 2.471 6.051 4.872 1.463 2.364 1.486 5.728 4.152-5.551 12.29-4.082 3.254 0.5874 5.548 1.842l5.458 3.505q4.57 3.765 8.638 4.499 3.254 0.5874 3.935-2.02 0.8444-4.678-7.43-13.52l-11.16-11.46-0.8333-1.2-0.093-0.6468 0.9971-0.8701 0.7768 0.3503 1.444 1.311q12.21 11.45 17.47 19.53 5.093 7.85 4.029 13.75-0.9913 5.491-4.112 7.658-3.048 1.76-7.929 0.8788t-10.04-3.703q-5.161-2.822-8.401-6.977l-3.814-4.468q-1.61-1.551-3.367-2.288-1.83-0.3304-3.271 0.6696l0.01 4.621-0.1638 2.07q-1.285 7.118-4.409 6.974-3.254-0.5874-2.153-6.689 0.4406-2.44 1.861-4.494l2.935-3.46q1.175-6.508-6.853-10.9-2.294-1.254-3.607-2.121-1.48-1.107-2.554-2.141-1.073-1.034-2.056-3.731-1.15-2.938-0.5256-6.395 0.5507-3.051 2.712-4.551 1.847-0.9266 4.565-0.8561z"/>
     <path d="m6439 4205 0.9727-0.3487q1.853 1.004 2.126 1.521 9.534 11.16 13.27 17.29 7.466 12.25 5.09 19.95-2.376 7.702-6.435 10.34-3.998 2.443-10.12 0.5544-2.567-0.7921-5.347-2.298-2.977-1.567-6.439-4.366-1.595-1.141-3.66-2.859-2.202-1.977-5.071-4.593l5.359 5.763 6.103 6.857q6.861 8.605 9.79 13.83 5.645 9.744 3.939 15.27-4.082 13.23-18.5 8.783-3.752-1.158-8.126-3.805-4.511-2.906-9.111-6.92l-21-18.16 4.604-19.13 27.72 26.51 9.08 8.425q4.723 3.62 7.487 4.473 4.147 1.28 5.427-2.868 0.9749-3.16-2.848-10.4-2.868-5.427-10.26-14.41l-12.27-13.52-10.04-10.23-7.273-6.57 4.786-19.72 33.62 32.65q6.742 6.189 10.3 7.286 4.937 1.523 6.095-2.229 2.133-6.912-8.537-22.1-2.777-4.317-9.487-12.01l-0.9559-1.809z"/>
     <path d="m6396 4145q-5.451-2.491-2.959-7.942 2.32-5.075 7.958-2.498 2.444 1.117 4.334 4.935 7.378-3.217 10.99-11.11 3.351-7.33 2.12-16.07-2.207 0.3546-5.198-0.5582-2.819-1.289-3.84-4.028-1.208-2.825-0.092-5.268 0.945-2.068 3.136-2.884 1.901-1.176 4.72 0.1125 2.068 0.945 3.276 3.77 1.294 2.637 1.799 6.503 0.3977 6.09-0.1766 10.83-0.5744 4.736-2.636 9.248-4.124 9.022-12.57 13.57-6.165 3.545-10.86 1.397zm82.29-24.42 1.01-0.2202q1.708 1.235 1.912 1.783 8.013 12.3 10.92 18.85 5.822 13.11 2.471 20.44-3.351 7.331-7.716 9.425-4.28 1.907-10.11-0.7567-2.444-1.117-5.005-2.969-2.75-1.938-5.822-5.16-1.434-1.337-3.26-3.308-1.928-2.245-4.436-5.209l4.57 6.406 5.166 7.588q5.693 9.419 7.922 14.98 4.34 10.39 1.934 15.65-5.756 12.59-19.48 6.322-3.571-1.632-7.567-4.822-4.098-3.464-8.142-8.039l-18.48-20.72 7.034-18.37 24.07 29.86 7.916 9.526q4.216 4.199 6.847 5.402 3.947 1.804 5.751-2.143 1.375-3.007-1.483-10.68-2.143-5.751-8.314-15.62l-10.42-14.99-8.631-11.44-6.364-7.454 7.292-18.94 29.12 36.71q5.886 7.008 9.27 8.554 4.699 2.148 6.331-1.423 3.007-6.579-5.613-23.02-2.197-4.64-7.857-13.14l-0.7144-1.917z"/>
     <path d="m6550 4061q1.525 1.065 2.641-0.1727 2.957-4.237 1.269-13.73-1.74-9.784-7.176-23.66l-0.5276-2.133 0.016-0.745 1.608-0.1375 1.154 2.318q7.713 20 8.18 27.64 0.5854 7.466-2.727 12.21-3.904 5.592-7.984 6.021-4.08 0.4285-7.808-2.174-2.711-1.893-3.661-3.06l-1.848-2.046q2.686 8.428 3.201 13.83 1.046 10.06-2.74 15.48-4.259 6.101-10.4 6.6-6.196 0.2112-12.64-4.284-15.59-10.88-17.88-29.62-2.463-18.86 7.474-33.09 6.624-9.49 12.89-5.113l-3.038-5.397 8.057-14.79 26.25 48.32 2.715 4.415zm-36.56-32.83q-2.372-1.656-5.301-1.432-3.098 0.1056-5.346 3.325-6.151 8.812 5.664 32.69 10.49 21.44 18.12 26.76 3.559 2.484 6.28-1.413 2.484-3.559 1.458-11.84-1.196-8.396-6.549-23.47l-11.69-21.52q-0.4924-1.1-2.628-3.095z"/>
     <path d="m6578 4028-10.37 11.79-22.88-57.55 1.985 14.96q2.108 12.31 4.532 22.7l0.2113 1.011q-0.5459 0.6208-2.023 0.4228l-0.6957-1.713q-1.56-6.05-2.692-12.27-1.15-6.516-2.451-15.36l-1.83-14.82-0.013-2.489 9.521-13.64zm2.004-87.4q2.018 1.774 2.323 4.244 0.1498 2.333-1.624 4.351t-4.225 2.614q-1.75 0.1123-4.506-1.761l-2.229-2.786q-1.582 2.737 3.007 10.35 2.478 4.38 2.665 7.297 0.032 2.78-1.686 5.673 6.422-2.609 12.63 2.85 2.483 2.184 3.8 4.442l2.863 5.82q1.969 5.585 5.073 8.314 2.483 2.184 4.412 0.3024 3.139-3.57 0.6212-15.42l-3.636-15.58-0.094-1.458 0.2543-0.602 1.303-0.2301 0.4843 0.7011 0.5592 1.868q4.549 16.11 4.875 25.75 0.3075 9.352-3.65 13.85-3.685 4.19-7.476 4.434-3.519-0.067-7.244-3.342t-6.687-8.357-3.591-10.31l-0.9578-5.796q-0.5779-2.159-1.702-3.698-1.397-1.228-3.147-1.116l-2.382 3.96-1.21 1.688q-4.777 5.432-7.378 3.695-2.483-2.184 1.611-6.84 1.638-1.862 3.915-2.887l4.3-1.448q4.367-4.966-0.2405-12.87-1.316-2.258-1.993-3.679-0.6957-1.713-1.081-3.152-0.3853-1.44 0.166-4.257 0.5326-3.109 2.853-5.748 2.047-2.328 4.672-2.496 2.06 0.1606 4.351 1.624z"/>
     <path d="m6653 3946q1.251 1.376 2.614 0.4172 3.823-3.475 4.283-13.11 0.4734-9.926-1.75-24.66l-0.042-2.196 0.1807-0.7228 1.599 0.2225 0.6115 2.516q3.084 21.21 1.847 28.76-1.085 7.41-5.367 11.3-5.047 4.587-9.12 4.1-4.073-0.4868-7.131-3.851-2.224-2.447-2.891-3.796l-1.348-2.405q0.75 8.814 0.055 14.19-1.21 10.04-6.104 14.49-5.506 5.004-11.61 4.128-6.089-1.168-11.37-6.98-12.79-14.07-10.87-32.85 1.781-18.93 14.63-30.61 8.564-7.784 13.71-2.126l-1.765-5.936 11.14-12.64 14.88 52.94 1.668 4.908zm-28.37-40.12q-1.946-2.141-4.852-2.572-3.044-0.5841-5.95 2.057-7.952 7.228-1.726 33.13 5.476 23.23 11.73 30.11 2.919 3.212 6.437 0.014 3.212-2.919 4.046-11.22 0.6958-8.452-1.18-24.34l-6.629-23.58q-0.2363-1.182-1.876-3.601z"/>
     <path d="m6697 3898q0.254 6.702-2.136 13.27-2.511 6.405-7.703 10.16-4.857 3.511-11.07 1.624-6.209-1.887-10.81-8.252-9.201-12.73-7.021-30.88 2.338-20.05 18.42-31.67 4.355-3.148 8.152-2.833 2.476 0.2503 5.204 2.613l-0.9703-5.929 12.64-11.44 10.96 69.85q8.569-10.02 9.512-26l0.086-18.93 0.5207-1.396q1.005-0.7264 1.974 0.6135l0.2522 2.113q0.3704 18.86-0.6045 24.92-1.903 11.83-10.93 21.92l5.441 36.1q2.118 13.51-2.503 24.76-4.5 11.41-13.71 18.07-5.862 4.237-11.13 2.946-5.194-0.8356-9.068-6.195-6.174-8.542-4.16-21.98 2.757-18.06 21.74-42.24zm-18.07-44.06q-8.207 5.932-4.911 32.37 3.09 24.03 7.933 30.73 2.058 2.847 5.073 0.6682 3.685-2.664 5.822-11.35 2.137-8.685 1.956-19.52l-4.256-30.58q-2.179-3.015-5.139-3.935-2.96-0.9203-6.478 1.622zm22.11 68.68q-11.5 14.43-15.15 31.61-3.651 17.17 3.734 27.39 2.421 3.35 5.382 4.27 2.96 0.9203 6.31-1.501 5.192-3.753 5.812-13.13 0.3232-6.609-1.898-21.32z"/>
     <path d="m6762 3808q2.289 3.928 0.8264 12.91-1.388 8.702-6.33 15.41-1.37 1.755-2.411 2.84-0.8633 0.9814-3.736 3.851l-7.233 5.649 1.305 8.807q1.5 4.627 3.373 7.842 2.393 4.107 5.457 5.671 3.242 1.46 7.349-0.9334 8.214-4.786 11.92-17.71 1.863-7.065 2.763-21.94l0.7298-1.621 1.621 0.7298 0.2221 2.023q-1.079 14.98-3.016 22.33-3.354 12.72-12.64 18.13-10 5.826-19.19 4.007-9.192-1.82-14.81-11.46-6.971-11.96-2.47-28.46 5.201-18.58 22.7-28.77 9.821-5.722 13.57 0.7062zm-19.17 37.72q3.214-1.873 5.759-4.073 2.441-2.379 3.483-3.464 1.116-1.368 2.635-3.688 4.228-6.29 5.497-13.97 1.447-7.78-0.6338-11.35-2.289-3.928-7.289-1.015-1.964 1.144-3.661 3.568-1.623 2.141-2.964 7.228-1.446 4.908-2.551 13.68-0.6288 7.542-0.2746 13.08z"/>
     <path d="m6815 3801q2.405-15.12 6.983-23.99 2.344-4.567 7.025-9.44 1.357 3.241 2.714 6.481 1.105 4.243 2.32 8.215 1.216 3.972 1.555 15.48l1.032 16.37q0.2754 2.797 0.6795 6.437 0.5149 3.369 1.154 4.894 1.118 2.669 3.565 2.092 1.716-0.7185 2.126-10.97l0.7002-25.61q0.7819-15.79 5.342-25.76 2.898-5.919 7.025-9.44 1.118 2.669 2.204 5.798 1.087 3.13 2.32 8.215 1.424 5.005 2.255 16.08l1.63 12.99 2.498 9.709q3.114 7.434 8.832 5.039 3.431-1.437 7.858-14.94 2.955-9.528 4.656-18.31l0.3323-0.8113 2.244 1.077 0.049 0.6517-5.081 20.5q-3.983 12.42-9.321 14.66-7.244 3.034-13.73 0.3749-6.38-2.929-9.893-11.32-2.635-6.291-3.554-13.3t-0.5037-14.58q0.026-3.148 0.1189-4.531 0.2036-1.654 0.8504-4.389l-2.37 7.715q-1.355 6.393-1.341 14.45-0.3123 37.77-4.697 39.61-4.575 1.916-9.683-0.65-4.806-2.916-7.68-9.779l-2.542-7.674q-0.7365-2.828-0.8343-4.132-0.1776-1.494-0.2493-5.945l0.2508-10.64 1.886-11.54-3.478 10.42-2.507 11.13-5.479 29.18q-4.329 14.81-15.38 19.44-11.06 4.631-14.41-3.376-1.357-3.241 0.1319-6.105 1.409-3.055 4.49-4.793 3.05-1.277 5.945-0.2494 2.815 0.8374 4.412 4.65 1.038 2.478 0.914 4.322-0.2036 1.654-2.203 3.835 10.87-4.551 15.15-24.27z"/>
     <path d="m6907 3745 17.77-6.281-11.39 53.43q-0.4111 3.121 0.3157 5.707 0.615 2.189 2.057 3.501 1.529 0.8583 3.774 0.4423 6.765-1.901 12.56-14.91 2.836-5.949 6.209-17.63l1.113-1.386 0.6281-0.8205 1.075 0.7712-0.2926 2.014q-4.168 11.9-6.377 17.03-6.792 14.79-14.75 17.03-7.163 2.013-12.06-0.9043-4.755-3.172-6.488-9.34-1.342-4.775-0.4144-9.114l5.64-30.35-10.43 27.83-0.7152 1.274-1.815-0.3486 0.5229-2.723 6.408-17.69zm12.14-37.76q2.984-0.8386 5.334 0.6478 2.294 1.288 3.188 4.471 0.9504 3.382-0.6544 6.839-1.406 3.4-5.783 4.63-3.581 1.006-5.875-0.2812-2.35-1.486-3.132-4.272-1.062-3.78 0.5426-7.237 1.804-3.512 6.38-4.798z"/>
     <path d="m6943 3769-1.024 1.248q-0.4448-0.1252-0.7255-0.4923-0.5225-0.5313-0.7644-0.6954l0.5011-1.779 12.01-26.29-1.744-4.716q-0.6607-3.451 0.5357-5.994 1.36-2.786 4.202-3.33 3.857-0.7384 4.595 3.118 0.272 1.421-0.432 3.239t-2.22 3.792q4.223 8.871 10.92 7.588 6.698-1.282 18.22-12.54l4.017-5.398 3.641-4.064q1.391-1.529 2.812-1.801 2.233-0.4275 3.222 2.54 0.9327 4.872-3.598 18.57l-6.142 17.38-4.898 13.98q-1.879 6.672-1.296 9.717 0.4664 2.436 3.144 2.134 6.698-1.282 14.61-17.11l7.14-15.46 1.594-1.568 0.7255 0.4924-0.3456 2.591q-4.937 13.78-11.54 23.25-3.157 4.392-6.219 7.082-3.101 2.488-6.146 3.07-6.292 1.205-10.4-1.585-3.986-3.235-4.919-8.106-2.06-10.76 2.908-23.28 2.98-7.514 9.264-17.56-9.54 11.72-17.46 13.23-7.713 1.477-12.43-6.669l-5.403 11.34z"/>
     <path d="m7051 3749-12.71 29.95-16.49 1.218 21.79-50.1q1.008-3.183 1.222-5.893-0.3046-4.122-5.045-3.772-4.534 0.3351-16.22 18.81l-8.079 14.07-1.764 1.374-0.6031 0.2518-0.664-0.5726 0.6721-2.122 8.636-14.94q4.589-8.007 7.819-11.98 3.42-4.19 5.787-5.816 3.558-2.335 7.886-2.655 5.565-0.4112 8.976 3.689 3.396 3.894 3.838 9.871 0.4112 5.565-1.582 9.442l-2.505 5.366 12.16-0.8986 12.91-27.27 16.19-2.44-21.79 50.1q-1.023 2.977-0.8254 5.656 0.1675 2.267 1.32 3.84 1.328 1.145 3.61 1.184 7.008-0.5178 15.27-12.11 2.817-3.938 9.797-16.06l1.351-1.343 0.5879-0.4579 1.107 0.9544-0.8934 1.931q-2.36 4.526-4.574 8.213-2.214 3.686-4.856 7.197-9.598 13.14-18.05 13.77-7.42 0.5482-11.45-3.506t-4.487-10.24q-0.3046-4.122 0.4822-7.496 0.9778-3.595 3.131-8.106z"/>
     <path d="m7197 3749 0.573 0.8599q-0.5277 2.04-0.9633 2.43-8.531 11.94-13.58 17.04-10.09 10.2-18.14 9.752-8.048-0.4485-11.59-3.751-3.335-3.291-2.979-9.687 0.1495-2.682 0.941-5.743 0.803-3.267 2.684-7.302 0.7225-1.823 1.892-4.241 1.388-2.614 3.234-6.029l-4.3 6.591-5.183 7.577q-6.696 8.734-11.06 12.84-8.095 7.828-13.87 7.506-13.83-0.7705-12.99-15.83 0.2185-3.921 1.733-8.804 1.732-5.078 4.518-10.51l12.56-24.76 19.67-0.1457-19.04 33.3-5.986 10.84q-2.374 5.456-2.535 8.345-0.2415 4.333 4.092 4.575 3.302 0.184 9.401-5.272 4.575-4.092 11.51-13.43l10.16-15.16 7.511-12.21 4.621-8.643 20.29-0.1111-23.58 40.5q-4.38 8.035-4.588 11.75-0.2875 5.159 3.633 5.377 7.222 0.4025 19.39-13.62 3.52-3.737 9.368-12.1l1.525-1.364z"/>
     <path d="m7244 3692q1.104-5.891 6.994-4.787 5.485 1.028 4.343 7.122-0.4947 2.641-3.744 5.396 4.901 6.385 13.43 7.983 7.922 1.484 16.11-1.818-0.8763-2.057-0.7118-5.18 0.5709-3.047 2.983-4.698 2.45-1.854 5.091-1.359 2.234 0.4186 3.555 2.348 1.6 1.561 1.029 4.608-0.4186 2.234-2.868 4.088-2.247 1.892-5.878 3.314-5.814 1.854-10.55 2.439-4.735 0.5847-9.61-0.3286-9.75-1.827-16.2-8.922-4.927-5.128-3.975-10.21zm43.54 73.97 0.4572 0.9267q-0.7868 1.955-1.269 2.285-10 10.74-15.66 15.15-11.32 8.812-19.25 7.328-7.922-1.484-11.01-5.216-2.882-3.694-1.703-9.991 0.4947-2.641 1.675-5.574 1.218-3.136 3.604-6.894 0.9518-1.714 2.424-3.961 1.714-2.412 3.986-5.561l-5.115 5.98-6.118 6.844q-7.768 7.796-12.63 11.3-9.038 6.717-14.73 5.652-13.61-2.55-10.83-17.38 0.723-3.86 2.855-8.506 2.373-4.812 5.838-9.84l15.65-22.93 19.53 2.396-23.18 30.56-7.336 9.98q-3.059 5.104-3.592 7.948-0.7991 4.266 3.467 5.065 3.25 0.6089 10-4.013 5.065-3.467 13.15-11.83l12.03-13.73 9.025-11.14 5.699-7.974 20.14 2.511-28.61 37.11q-5.382 7.402-6.067 11.06-0.9514 5.078 2.908 5.801 7.11 1.332 20.98-11 3.973-3.251 10.85-10.79l1.688-1.156z"/>
     <path d="m7402 3774q6.282 2.654 8.291 7.99 1.488 4.443-0.281 8.631l-1.748 3.076q6.44-3.561 12.78-5.819 7.912-2.266 12.48-0.3359 4.569 1.93 5.867 6.293 1.298 4.362-0.7931 9.312-1.769 4.188-5.764 8.334-3.724 4.036-9.784 7.757-6.06 3.722-10.79 8.007-4.727 4.285-6.014 7.331-1.93 4.569 3.019 6.66 5.33 2.252 18.86-4.819l14.64-8.624 2.547-0.7187 0.279 1.464-1.917 1.882q-4.083 2.762-7.926 4.953-3.652 2.271-6.601 3.942-14.51 7.782-23.26 4.082-6.663-2.815-9.425-6.898-2.572-4.003 0-10.1 2.252-5.33 8.545-11.2l19.44-14.67q6.893-5.164 8.019-7.83 0.8043-1.904-1.209-2.979-3.998-1.689-14.64 2.789-9.178 4.199-18.51 10.35l-28.48 23.86-14.47-6.112 41.75-35.09 2.619-2.483 1.938-2.995q1.046-2.475-1.539-3.791-3.236-1.367-10.01 1.381-1.625 0.6597-6.821 3.4-4.925 2.631-13.23 7.422l-30.51 25.48-14.85-6.273 43.4-35.29 2.62-2.483 1.968-2.534q0.563-1.333-1.451-2.408-5.711-2.413-21.65 6.109l-18.83 11.12-1.193 0.1689-0.7401-1.434 0.9733-0.7106 26.16-15.2q12.35-5.328 18.44-2.755 5.14 2.172 6.438 6.534t-0.5519 8.741l-1.668 2.885q6.872-4.052 11.4-5.73 7.422-2.698 12.18-0.6871z"/>
     <path d="m7509 3838q-2.306 3.919-10.86 7.04-8.268 3.048-16.54 2.02-2.2-0.3355-3.657-0.7129-1.278-0.2726-5.187-1.373l-8.466-3.543-7.042 5.448q-3.301 3.573-5.188 6.779-2.41 4.097-2.275 7.534 0.3139 3.542 4.411 5.952 8.194 4.821 21.28 1.731 7.073-1.833 20.49-8.328l1.771-0.1569 0.157 1.771-1.656 1.184q-13.59 6.39-20.95 8.297-12.73 3.299-21.99-2.15-9.975-5.869-12.89-14.78-2.912-8.907 2.747-18.53 7.022-11.93 23.61-16.08 18.75-4.556 36.2 5.715 9.797 5.764 6.024 12.18zm-42.27 1.745q3.206 1.886 6.37 3.029 3.269 0.9644 4.726 1.342 1.739 0.304 4.506 0.493 7.555 0.6086 14.87-2.042 7.492-2.545 9.588-6.108 2.306-3.919-2.682-6.853-1.959-1.153-4.904-1.447-2.662-0.367-7.754 0.9527-4.988 1.142-13.18 4.473-6.885 3.143-11.54 6.16z"/>
     <path d="m7522 3910q-1.096 1.503 0.118 2.644 4.174 3.045 13.7 1.553 9.818-1.536 23.8-6.684l2.143-0.4833 0.7445 0.031 0.1041 1.611-2.341 1.106q-20.16 7.296-27.8 7.605-7.476 0.4304-12.15-2.98-5.51-4.019-5.854-8.107-0.3439-4.088 2.335-7.761 1.948-2.672 3.135-3.597l2.084-1.805q-8.482 2.511-13.89 2.914-10.08 0.8371-15.42-3.06-6.011-4.384-6.382-10.54-0.083-6.2 4.545-12.54 11.2-15.36 29.99-17.27 18.9-2.071 32.93 8.159 9.35 6.82 4.844 13l5.459-2.925 14.62 8.362-48.85 25.25-4.471 2.623zm33.58-35.87q1.705-2.338 1.542-5.27-0.041-3.1-3.214-5.414-8.683-6.333-32.8 4.985-21.65 10.04-27.13 17.56-2.557 3.506 1.283 6.308 3.506 2.557 11.8 1.703 8.419-1.022 23.61-6.061l21.76-11.24q1.11-0.4695 3.149-2.564z"/>
     <path d="m7634 3929q4.868 4.776 4.777 10.48-0.2475 4.679-3.432 7.924l-2.756 2.218q7.298-0.9467 14.02-0.7187 8.192 0.7985 11.73 4.272 3.541 3.474 3.146 8.008t-4.158 8.37q-3.184 3.246-8.422 5.634-4.946 2.386-11.95 3.622-7.003 1.236-12.97 3.485-5.97 2.249-8.286 4.61-3.474 3.541 0.3622 7.304 4.131 4.052 19.31 2.446l16.78-2.645 2.633 0.2671-0.2783 1.464-2.474 1.047q-4.812 1.069-9.191 1.696-4.231 0.7711-7.588 1.242-16.35 1.91-23.14-4.748-5.163-5.066-6.232-9.878-0.9215-4.668 3.71-9.388 4.052-4.131 12.06-7.276l23.47-6.509q8.308-2.272 10.33-4.337 1.447-1.475-0.031-3.215-3.098-3.039-14.64-2.783-10.08 0.5349-21.02 2.832l-35.25 11.74-11.21-11 51.71-17.3 3.348-1.347 2.903-2.074q1.882-1.918-0.039-4.092-2.508-2.46-9.814-2.39-1.754 0.017-7.593 0.6572-5.547 0.6376-15.03 2.044l-37.73 12.49-11.51-11.29 53.33-16.88 3.348-1.347 2.761-1.634q1.013-1.033-0.465-2.772-4.426-4.342-22.38-2.27l-21.6 3.422-1.172-0.2811-0.1616-1.606 1.166-0.3034 29.92-4.524q13.44-0.4209 18.16 4.21 3.983 3.908 3.588 8.442t-3.724 7.927l-2.611 2.071q7.88-1.245 12.7-1.145 7.894 0.2168 11.58 3.835z"/>
     <path d="m7683 4020-109.9 18.71-9.086-12.04 148.1-25.76-33.23 0.2192-24.72 0.5254-2.275-0.6135q-0.7468-0.9898 0.2835-2.026l1.983-0.4604 31.66-0.5867q20.54-0.2241 38.73 0.5504l17.68-2.985 12.39 11.62-55.4 9.955q5.5 0.7696 9.016 2 5.008 2.176 7.995 6.136 4.108 5.444 2.887 12.06-1.097 6.782-6.871 11.14-4.784 3.61-12.3 4.623-7.355 0.889-15.75-2.352-13.03-4.923-18.31-0.9396-3.63 2.738-0.1442 7.358 3.61 4.784 18.16 6.231 10.09 0.6738 20.13-0.4296l1.531 0.6569q0.043 0.7439-0.5324 1.696l-2.437 0.5444q-16.74 0.4612-21.99 0.022-12.49-1.452-18.09-8.876-4.606-6.104-4.536-10.82 0.1936-4.547 3.988-7.41 6.599-4.979 17.11-2.033 10.63 3.111 19.93 2.051 8.058-0.6431 12.68-4.128 5.609-4.232 2.124-8.852-3.112-4.124-11.88-5.794-8.643-1.505-18.89 0.013z"/>
     <path d="m7765 4107 9.998 15.98-54.63 0.5105q-3.136 0.2779-5.502 1.55-2.002 1.076-2.969 2.77-0.505 1.679 0.3894 3.78 3.327 6.189 17.28 9.011 6.424 1.474 18.56 2.224l1.595 0.7849 0.9375 0.4345-0.5187 1.218-2.03 0.1526q-12.53-1.478-18.01-2.517-15.91-3.412-19.83-10.69-3.523-6.553-1.742-11.97 2.061-5.332 7.704-8.365 4.369-2.349 8.806-2.388l30.85-1.1-29.43-4.12-1.399-0.4208-0.055-1.848 2.772-0.082 18.66 2.406zm39.5 3.637q1.468 2.73 0.5284 5.347-0.7575 2.519-3.67 4.085-3.094 1.664-6.817 0.8494-3.625-0.6322-5.778-4.637-1.762-3.276-1.004-5.796 0.9395-2.617 3.488-3.987 3.458-1.859 7.181-1.045 3.821 0.9963 6.071 5.183z"/>
     <path d="m7778 4184q15.06 2.797 23.8 7.604 4.504 2.462 9.254 7.268-3.275 1.272-6.55 2.545-4.27 0.994-8.272 2.106t-15.52 1.151l-16.39 0.6053q-2.804 0.2025-6.453 0.5118-3.382 0.4271-4.923 1.026-2.697 1.048-2.184 3.509 0.6736 1.734 10.91 2.411l25.59 1.366q15.76 1.192 25.62 6.01 5.842 3.051 9.254 7.268-2.697 1.048-5.854 2.053t-8.272 2.106q-5.04 1.293-16.14 1.836l-13.02 1.291-9.77 2.244q-7.513 2.919-5.267 8.698 1.347 3.467 14.73 8.244 9.448 3.202 18.18 5.131l0.8025 0.3533-1.135 2.215-0.6528 0.032-20.36-5.613q-12.32-4.305-14.41-9.699-2.844-7.32-0.018-13.74 3.094-6.302 11.57-9.595 6.357-2.47 13.39-3.206 7.031-0.7364 14.59-0.1243 3.146 0.1079 4.526 0.2367 1.648 0.2466 4.366 0.9643l-7.65-2.57q-6.356-1.521-14.41-1.716-37.75-1.295-39.47-5.725-1.796-4.623 0.9016-9.663 3.04-4.729 9.975-7.424l7.737-2.341q2.847-0.6627 4.152-0.7265 1.498-0.1387 5.95-0.095l10.63 0.5273 11.49 2.186-10.33-3.748-11.06-2.796-29.03-6.236q-14.69-4.712-19.03-15.89-4.341-11.17 3.749-14.32 3.275-1.272 6.099 0.2906 3.017 1.488 4.675 4.613 1.198 3.082 0.095 5.95-0.9104 2.793-4.763 4.29-2.504 0.9731-4.345 0.8013-1.648-0.2465-3.777-2.302 4.266 10.98 23.87 15.78z"/>
     <path d="m7835 4313q-4.417 1.079-12.62-2.874-7.95-3.802-12.98-10.44-1.294-1.811-2.038-3.119-0.6959-1.106-2.632-4.676l-3.363-8.539-8.815-1.25q-4.863 0.1245-8.476 1.008-4.617 1.128-6.986 3.622-2.32 2.694-1.192 7.312 2.257 9.235 13.6 16.46 6.245 3.792 20.25 8.879l1.347 1.16-1.16 1.347-2.003-0.3615q-14.06-5.288-20.55-9.232-11.24-6.826-13.79-17.27-2.747-11.24 1.608-19.54 4.355-8.298 15.2-10.95 13.45-3.287 27.99 5.712 16.34 10.26 21.14 29.94 2.698 11.04-4.529 12.81zm-30.72-29.09q0.8831 3.614 2.27 6.679 1.588 3.016 2.333 4.323 0.9947 1.459 2.788 3.574 4.831 5.84 11.83 9.236 7.048 3.596 11.06 2.615 4.417-1.079 3.043-6.701-0.5396-2.208-2.382-4.524-1.592-2.164-6.089-4.894-4.296-2.78-12.4-6.331-7.053-2.744-12.46-3.976z"/>
     <path d="m7818 4360-30.65-10.93-2.184-16.39 51.29 18.81q3.237 0.8195 5.954 0.8743 4.097-0.5461 3.469-5.258-0.6007-4.507-19.73-15.09l-14.52-7.239-1.475-1.68-0.2868-0.5872 0.5327-0.6965 2.158 0.5464 15.42 7.744q8.262 4.111 12.41 7.102 4.384 3.169 6.145 5.436 2.54 3.414 3.113 7.716 0.7372 5.531-3.155 9.177-3.688 3.619-9.628 4.411-5.531 0.7372-9.519-1.025l-5.504-2.185 1.611 12.09 27.98 11.28 3.386 16.02-51.29-18.81q-3.032-0.8469-5.695-0.4919-2.253 0.3003-3.756 1.543-1.065 1.393-0.9699 3.674 0.9284 6.965 12.99 14.53 4.097 2.581 16.61 8.837l1.42 1.27 0.4916 0.5599-0.8878 1.161-1.98-0.7785q-4.657-2.09-8.467-4.084t-7.47-4.425q-13.68-8.809-14.8-17.21-0.983-7.375 2.828-11.64 3.81-4.261 9.956-5.08 4.097-0.5461 7.511 0.041 3.646 0.7649 8.276 2.65z"/>
     <path d="m7854 4434 1.871 18.75-49.19-23.78q-2.933-1.142-5.618-1.052-2.272 0.076-3.89 1.165-1.198 1.281-1.328 3.56 0.2361 7.023 11.49 15.74 5.103 4.171 15.65 10.23l1.081 1.411 0.6474 0.8054-1.005 0.8609-1.887-0.7637q-10.57-6.882-15.03-10.25-12.75-10.12-13.02-18.38-0.25-7.436 3.749-11.5 4.213-3.864 10.62-4.079 4.957-0.1667 8.951 1.767l28.14 12.7-24.55-16.75-1.068-0.998 0.7706-1.68 2.52 1.156 15.65 10.43zm33.78 20.78q0.1041 3.098-1.899 5.027-1.796 1.922-5.101 2.033-3.511 0.118-6.486-2.263-2.968-2.175-3.121-6.719-0.125-3.718 1.672-5.639 2.003-1.928 4.895-2.026 3.924-0.1319 6.9 2.25 2.982 2.588 3.142 7.339z"/>
    </g>
   </g>
   <text style="word-spacing:0px;letter-spacing:0px" xml:space="preserve" font-size="40px" line-height="1.25" y="4453.6118" x="7840.3999" font-family="sans-serif" fill="#000000"><tspan y="4489.0024" x="7840.3999"/></text>
   <path fill="none" d="m6433 4886s681.4 309.8 1360 0c2.01 67.03 0 228.9 0 228.9-678.2 319.9-1360 0-1360 0z"/>
   <g aria-label="М.С. Щепкіна" transform="rotate(-7.518 8408 3464)" stroke-width="4.191" fill="#fff">
    <path d="m6603 4939q-0.7157 2.41-2.943 4.022t-5.28 0.7053q-2.41-0.7157-3.427-2.591-0.5824-1.572-0.1404-4.238 0.7157-2.41 2.943-4.022 2.388-1.564 5.28-0.7052 2.25 0.6679 3.219 2.704 1.017 1.876 0.3488 4.125z"/>
    <path d="m6725 4971q-0.5579 2.452-2.676 4.204-2.118 1.753-5.223 1.046-2.452-0.5579-3.588-2.364-0.6831-1.531-0.4149-4.22 0.5579-2.452 2.676-4.204 2.281-1.716 5.223-1.046 2.288 0.5207 3.387 2.49 1.136 1.806 0.6155 4.094z"/>
   </g>
  </g>
 </g>
</svg>
