<!-- Generated by IcoMoon.io -->
<svg version="1.1" xmlns="http://www.w3.org/2000/svg" width="32" height="32" viewBox="0 0 32 32">
<title>masks</title>
<path d="M15.293 6.067c-1.086 1.997-1.728 3.942-2.010 5.758 1.682-1.023 2.695-1.969 2.695-1.969l0.516-0.487 0.265 0.658c0.379 0.942 0.703 1.844 0.977 2.707 0.486 0.092 1.065 0.088 1.753-0.077 0 0-0.354 1.061-1.399 1.264 0.394 1.428 0.642 2.739 0.762 3.938 0.423 0.091 0.893 0.289 1.418 0.626 1.186 0.772 1.97 2.532 1.97 2.532s-1.338-1.134-3.301-1.445c-0.004 1.114-0.132 2.111-0.369 2.993-0.019 0.071-0.040 0.141-0.060 0.211 3.68 0.85 8.278-2.409 10.526-12.616 0 0-8.464 1.341-13.738-4.091zM21.555 13.254s2.433 1.926 4.444 0.118c0 0-0.13 1.82-2.021 2.020-0.52 0.055-1.051-0.104-1.364-0.295-0.939-0.573-1.058-1.843-1.058-1.843z"></path>
<path d="M16.242 10.352s-6.235 5.879-13.66 4.368c1.708 16.93 22.396 17.366 13.66-4.368zM14.631 15.222c1.758 0.034 1.984 1.832 1.984 1.832s-2.016-1.642-4.3 0.5c0 0-0.378-1.911 1.72-2.281 0.216-0.038 0.414-0.054 0.596-0.050zM8.394 16.975c1.1 0.034 1.83 1.081 1.83 1.081s-2.945-0.511-3.799 2.054c0 0-1.082-1.529 0.76-2.754 0.435-0.29 0.843-0.391 1.209-0.38zM15.565 21.102s0.417 2.244-2.465 3.254c-2.064 0.723-3.696-1.237-3.696-1.237s3.689 0.784 6.161-2.016z"></path>
<path fill="none" stroke="#c9c9c9" stroke-linejoin="miter" stroke-linecap="butt" stroke-miterlimit="4" stroke-width="0.3245" d="M31.585 16.002c0 8.747-7.034 15.837-15.711 15.837v0c-8.677 0-15.711-7.091-15.711-15.837v0c0-8.747 7.034-15.837 15.711-15.837v0c8.677 0 15.711 7.091 15.711 15.837v0z"></path>
</svg>
