<!-- Generated by IcoMoon.io -->
<svg version="1.1" xmlns="http://www.w3.org/2000/svg" width="32" height="32" viewBox="0 0 32 32">
<title>scenes</title>
<path fill="none" stroke="#c9c9c9" stroke-linejoin="miter" stroke-linecap="butt" stroke-miterlimit="4" stroke-width="0.3245" d="M31.585 16.002c0 8.747-7.034 15.837-15.711 15.837v0c-8.677 0-15.711-7.091-15.711-15.837v0c0-8.747 7.034-15.837 15.711-15.837v0c8.677 0 15.711 7.091 15.711 15.837v0z"></path>
<path d="M15.526 6.066c-4.843 0-8.913 3.206-10.216 7.618v2.308l0.679-0.006c0.285-0.705 0.851-2.833 0.998-4.567 0.092 1.568-0.773 4.565-0.773 4.565l0.969-0.009c0.403-0.81 1.688-3.253 2.123-6.404-0.024 2.666-1.888 6.402-1.888 6.402l1.321-0.012c1.44-1.975 2.012-3.041 2.667-6.439 2.845 0.732 5.155 0.768 8.342 0.023 0.149 2.719 1.247 4.636 2.64 6.416l1.012 0.009s-1.562-2.524-1.896-6.429c0.338 2.031 0.867 4.589 2.13 6.431l0.961 0.009s-1.056-2.12-1.304-4.562c0.367 2.367 1.227 4.011 1.53 4.564l1.017 0.009v-1.945c-1.171-4.598-5.331-7.981-10.303-7.981zM15.638 12.541c-0.321 0.59-0.51 1.164-0.593 1.7 0.496-0.302 0.796-0.581 0.796-0.581l0.152-0.144 0.078 0.194c0.112 0.278 0.207 0.544 0.288 0.799 0.144 0.027 0.315 0.026 0.517-0.023 0 0-0.105 0.313-0.413 0.373 0.116 0.421 0.19 0.808 0.225 1.162 0.125 0.027 0.264 0.085 0.419 0.185 0.35 0.228 0.581 0.747 0.581 0.747s-0.395-0.335-0.974-0.427c-0.001 0.329-0.039 0.623-0.109 0.884-0.006 0.021-0.012 0.042-0.018 0.062 1.086 0.251 2.444-0.711 3.106-3.725 0 0-2.499 0.396-4.056-1.207zM15.918 13.807s-1.84 1.736-4.031 1.29c0.504 4.997 6.611 5.126 4.031-1.29zM17.486 14.663h0s0.718 0.568 1.311 0.035c0 0-0.038 0.537-0.597 0.596-0.154 0.016-0.31-0.031-0.402-0.087-0.277-0.169-0.313-0.544-0.313-0.544zM15.442 15.245c0.519 0.010 0.586 0.541 0.586 0.541s-0.595-0.485-1.269 0.147c0 0-0.112-0.564 0.508-0.674 0.064-0.011 0.122-0.016 0.176-0.015zM13.601 15.762c0.325 0.010 0.54 0.319 0.54 0.319s-0.869-0.151-1.121 0.606c0 0-0.319-0.451 0.224-0.813 0.128-0.086 0.249-0.115 0.357-0.112zM25.839 16.519l-0.998 0.010v5.359c0.433-0.78 0.772-1.621 0.998-2.508zM5.3 16.539v3.223c0.165 0.56 0.374 1.101 0.625 1.619v-4.837zM6.149 16.539v5.279c0.229 0.421 0.485 0.825 0.767 1.209h0.323l-0.611-6.489zM6.853 16.539l0.611 6.489h1.493v-0.503c0-0.322 0.033-0.583 0.091-0.723 0.003-0.007 0.007-0.014 0.010-0.021l-1.632-5.244h-0.515zM7.665 16.539l1.551 4.979c0.208-0.267 0.524-0.461 0.88-0.527 0.12-0.023 0.219-0.053 0.219-0.069s-0.403-1.008-0.896-2.206l-0.895-2.177zM24.605 16.549l-0.487 0.005-0.61 6.474h0.602c0.175-0.238 0.34-0.484 0.494-0.737zM23.893 16.555l-0.593 0.006-1.657 5.322c0.075 0.216 0.116 0.466 0.116 0.742v0.402h1.526zM23.061 16.564l-0.487 0.005-0.909 2.207c-0.5 1.214-0.909 2.215-0.909 2.226s0.088 0.056 0.197 0.102c0.228 0.095 0.412 0.258 0.547 0.476zM15.707 16.998c0 0.001 0.123 0.662-0.728 0.96-0.609 0.213-1.090-0.365-1.090-0.365s1.089 0.232 1.819-0.595zM15.347 21.376c-1.156 0-1.323 0.039-1.578 0.373-0.111 0.146-0.169 0.308-0.193 0.537l-0.034 0.329h-0.632l-0.002-0.221c-0.002-0.31-0.185-0.679-0.419-0.846-0.19-0.135-0.246-0.142-1.29-0.159-1.040-0.016-1.104-0.011-1.352 0.118-0.435 0.225-0.476 0.365-0.476 1.623v1.078h3.539v-1.003h0.649v1.003h3.534c0.011-0.324 0.023-0.649 0.034-0.973h0.649c0.011 0.324 0.023 0.649 0.034 0.973h3.541l-0.018-1.116c-0.017-1.020-0.029-1.131-0.14-1.28-0.291-0.389-0.345-0.404-1.537-0.424-1.002-0.017-1.111-0.009-1.342 0.103-0.318 0.154-0.509 0.474-0.509 0.852v0.272h-0.708v-0.281c0-0.38-0.16-0.658-0.473-0.823-0.236-0.125-0.326-0.134-1.279-0.134zM11.348 24.504c-0.418 0-0.836 0.020-1.026 0.061-0.434 0.093-0.693 0.397-0.747 0.877l-0.014 0.127c1.066 0.718 2.271 1.248 3.566 1.543 0.009-0.241 0.017-0.482 0.026-0.723h0.644v0.853c0.342 0.055 0.689 0.094 1.041 0.116 0.431 0.002 0.935 0.001 1.411-0.003 0.368-0.025 0.73-0.068 1.086-0.129v-0.836h0.649v0.704c1.29-0.304 2.487-0.842 3.547-1.566l-0.008-0.092c-0.034-0.38-0.17-0.604-0.478-0.785-0.181-0.107-0.306-0.118-1.292-0.118-1.050 0-1.1 0.005-1.32 0.142-0.27 0.168-0.447 0.513-0.449 0.876l-0.001 0.251h-0.635l-0.026-0.355c-0.029-0.401-0.152-0.61-0.467-0.796-0.181-0.107-0.306-0.118-1.292-0.118-0.924 0-1.12 0.015-1.278 0.102-0.295 0.161-0.452 0.431-0.481 0.823l-0.025 0.343h-0.619l-0.040-0.357c-0.054-0.48-0.314-0.784-0.748-0.877-0.367-0.048-0.716-0.061-1.026-0.061z"></path>
</svg>
