<svg xmlns="http://www.w3.org/2000/svg" width="32" height="32"><path fill="none" stroke="#c9c9c9" stroke-width=".325" d="M31.585 16.002c0 8.747-7.034 15.837-15.711 15.837v0C7.197 31.839.163 24.748.163 16.002v0C.163 7.255 7.197.165 15.874.165v0c8.677 0 15.711 7.091 15.711 15.837v0z"/><path d="M13.581 6.107c-1.082 0-1.996.256-2.832.792-1.087.698-1.758 1.774-1.933 3.104-.063.477-.044 1.717.033 2.207.063.401.193.99.225 1.022.028.028.22-.026.585-.164l.254-.096v-.468c0-1.153.162-2.195.421-2.707.101-.201.288-.38.444-.427.163-.049.313-.01.885.23 1.432.601 2.381.597 3.856-.014.248-.102.507-.201.577-.219.188-.048.336-.008.488.132.233.215.38.563.506 1.2.121.615.143.93.143 2.065 0 1.493-.04 1.814-.31 2.486-.376.936-.819 1.646-1.36 2.178-.93.914-2.008 1.145-3.058.652-.137-.064-.255-.111-.262-.105s-.022.076-.033.154l-.021.141.211.094c.811.363 1.63.355 2.39-.022a4.013 4.013 0 001.193-.925l.22-.25-.008.518-.008.518-1.279.362c-.703.199-1.307.361-1.341.36s-.367-.088-.74-.195c-.373-.106-.682-.191-.687-.187s-.049.158-.097.342c-.111.422-.304.95-.499 1.365-.083.177-.14.331-.127.343.041.038.997.529 1.007.518.005-.006.172-.316.372-.689.566-1.055.76-1.402.785-1.402.013 0 .069.087.126.193s.308.567.559 1.025c.251.458.461.845.466.861.009.026.44-.189 2.055-1.024.28-.144.495-.248.478-.23-.056.059-2.52 1.588-2.565 1.591-.028.002-.122-.18-.265-.512a5.523 5.523 0 00-.238-.516c-.029-.001-.277.599-.277.671 0 .039.069.628.154 1.31l.294 2.38.263 2.13.045.367a12.237 12.237 0 005.408-1.714l-.055.031.112-.999.001.935a12.364 12.364 0 002.673-2.187l.008-.009c-.252-.744-.632-1.352-1.067-1.702-.163-.131-1.147-.631-3.389-1.722-.343-.167-.624-.314-.624-.325 0-.025-.827-1.512-.86-1.548-.012-.013-.082-.003-.155.023-.264.093-.248.132-.246-.613l.002-.66.11-.18c.228-.373.529-1.009.719-1.52.047-.127.157-.349.243-.493.321-.535.607-1.421.746-2.311.091-.582.114-1.745.045-2.269-.174-1.328-.845-2.406-1.933-3.104-.836-.536-1.75-.792-2.832-.792zm7.418 1.448c-.966.01-1.928.258-2.69.731a2.703 2.703 0 00-.202.141c.835 1.717.427 3.767.356 4.086 1.134.01 2.292-.18 3.069-.509.692-.293 1.344-.822 1.703-1.383.091-.143.182-.26.201-.26.066 0 .635.6.78.823.081.124.227.384.324.578.16.318.179.385.193.669.017.369-.031.772-.187 1.57-.062.317-.107.582-.1.589s.049-.081.093-.197c.175-.456.392-.689.569-.608.162.074.248.264.248.546a1.761 1.761 0 01-.453 1.204 2.247 2.247 0 00-.33.506 6.789 6.789 0 01-1.481 2.034c-.494.477-1.11.901-1.555 1.073-.467.18-.705.155-1.285-.135-.673-.337-1.57-1.147-2.114-1.91a8.669 8.669 0 01-.517-.865 5.372 5.372 0 00-.311-.53c-.073.132-.121.208-.121.208s-.063.208-.206.522c.018.165-.01.37-.073.679-.036.179-.08.342-.129.495l-.008.116.299-.154.95 1.768.426.191a2.66 2.66 0 00.478-.3l.246-.186.19.13c.492.337 1.026.594 1.38.664.539.107 1.073-.07 1.976-.651.071-.046.1-.037.27.084.272.193.541.321.93.44.319.098.384.105 1.091.105.62 0 .816-.014 1.118-.08.593-.13 1.01-.252.976-.285a1.252 1.252 0 00-.234-.11 2.67 2.67 0 01-1.355-1.244c-.243-.494-.32-.842-.326-1.463l-.005-.525.176-.189c.228-.244.353-.462.484-.843.088-.257.106-.376.108-.713.002-.348-.01-.428-.085-.568-.101-.189-.235-.29-.396-.295-.063-.002-.114-.017-.114-.032s.029-.223.065-.462c.1-.665.093-1.937-.013-2.421-.264-1.204-1.032-2.1-2.242-2.622a5.387 5.387 0 00-2.167-.413zM5.501 12.954c-.154-.002-.285.049-.439.151-.375.248-.658.862-.83 1.799-.061.332-.068.469-.066 1.341.002 1.047.036 1.389.219 2.219.199.903.653 1.993 1.072 2.572.588.815 1.307 1.304 2.126 1.449.163.029.377.039.619.031 1.346-.049 2.384-.843 3.124-2.389.291-.607.476-1.191.631-1.987.145-.747.159-.912.158-1.895 0-.843-.008-.981-.071-1.341-.087-.492-.271-1.056-.435-1.338-.167-.285-.418-.511-.64-.576-.227-.066-.405-.04-.742.108-1.627.716-2.54.72-4.151.018-.245-.107-.421-.161-.575-.162zm.842 2.834l.087.003c.434.026.76.192.894.456.079.155.083.291.007.261a4.363 4.363 0 00-.778-.154 3.443 3.443 0 00-.97.092 8.799 8.799 0 00-.239.064c-.092.028-.066-.147.046-.314.181-.267.527-.415.954-.409zm3.586.008c.194 0 .389.023.516.071.232.087.403.225.482.39.078.161.086.282.017.255-.13-.05-.43-.113-.687-.144a3.114 3.114 0 00-1.114.092c-.127.034-.24.062-.251.062-.03.001.018-.185.076-.297.069-.134.25-.276.452-.356.122-.048.315-.073.509-.073zm.084 3.563l-.019.161c-.06.505-.52.934-1.183 1.104a3.513 3.513 0 01-1.085.057 2.745 2.745 0 01-.791-.263c-.359-.21-.607-.552-.647-.89-.018-.154-.015-.177.026-.161.64.245 1.551.37 2.246.307a6.518 6.518 0 001.279-.254zm14.464.83c-.023 0-.042.049-.042.11 0 .211-.153.899-.283 1.272a4.665 4.665 0 01-1.247 1.945c-.499.548-2.063 2.097-4.645 3.168l2.829-.001 1.897-.001a11.98 11.98 0 001.476-1.233 15.463 15.463 0 002.626-3.454c.138-.264.267-.532.388-.804a10.444 10.444 0 00-.566-.225c-.471-.17-2.371-.776-2.434-.776zm-11.542.265l-.004.001a6.027 6.027 0 00-.227.506c-.127.301-.217.476-.244.474-.023-.002-.29-.158-.593-.348s-.56-.341-.573-.336a2.502 2.502 0 00-.208.286c-.587.879-1.294 1.411-2.174 1.633l-.282.071-.008 2.777-.002.621c1.126.541 2.435.924 3.812 1.079l.056.005.07-.573.232-1.884.263-2.134c.101-.818.184-1.519.184-1.559 0-.097-.257-.618-.303-.62zm-7.433 1.083l-.146.122c-.256.214-.552.616-.748 1.012a5.29 5.29 0 00-.142.313 12.342 12.342 0 002.507 2.237l.044.028.001-.667.08.717c.134.09.317.203.503.312l.058.031v-2.893l-.085-.017c-.749-.152-1.265-.422-1.819-.952zm2.867 1.134l-.462.02v3.103c.082.045.233.12.387.192l.076.032v-.534zm5.775 1.098c-.011-.013-1.155.574-1.199.616-.028.027-.077.388-.055.41.006.006.3-.137.655-.317l.644-.327-.018-.185a1.183 1.183 0 00-.028-.196zm.129 1.328c-.006-.006-1.45.718-1.49.748-.005.003-.019.098-.033.211s-.013.205.001.205.374-.175.799-.388l.773-.388-.021-.189a1.79 1.79 0 00-.029-.198zm.134 1.34v.001c-.038.003-.276.113-.554.256a225.97 225.97 0 01-1.07.551c.214.019.475.032.738.037h.012l.095-.048.838-.419-.017-.177a.71.71 0 00-.037-.199l-.005-.001z"/></svg>