<svg xmlns="http://www.w3.org/2000/svg" width="32" height="32"><path fill="#b6b6b6" d="M5.547 9.398a2.24 2.24 0 00-.7.987c.049.086.835.285.697.331l-.801.035c-.739 2.895.614 4.081.614 4.081l2.348.03-.035-5.54z"/><path fill="#65656a" d="M5.752 11.31c-.668.302-.545 1.595-.397 1.988.767.017 2.348.03 2.348.03l-.022-2.017z"/><path fill="#868682" d="M5.752 11.31c1.388.781.796 3.521-.397 3.521.767.017 2.348.03 2.348.03l-.022-3.55z"/><path fill="#d7d7d7" d="M9.314 25.96C8.296 24.905 7.77 23.23 7.6 20.502c-.061-.969-.063-2.497-.004-2.533.024-.015.194-.064.377-.109l.333-.082-.354-.083c-.195-.046-.365-.102-.379-.125s-.011-.232.007-.465c.029-.391.041-.427.144-.466.061-.023.513-.102 1.005-.174.954-.141 1.448-.172.646-.225-.471-.031-1.514-.094-1.649-.136-.072-.022-.081-.093-.081-.601v-.576c.156-4.968-.696-5.518-2.098-5.527l.158-.106h5.47c5.832 0 5.98.005 6.622.228.823.285 1.555.729 1.879 1.651s.569 1.496.982 6.795l.032.561c.025.451.019.572-.033.615-.035.029-.238.095-.451.146s-.946.117-.96.131c-.014.014.703.012.922.012.511 0 .547.015.547.228 0 .526.338 2.443.576 3.142.156.457-.913.238-.895.351-.158.005.591-.02.838.021.164.027.176.043.333.434.421 1.049.826 1.76 1.271 2.231l.231.244h1.986c2.239 0 2.072-.032 1.893.365-.149.328-.355.55-.641.691l-.265.13-6.837.013c-5.959.011-6.896.004-7.293-.058-1.067-.139-1.95-.6-2.596-1.265z"/><path fill="#65656a" d="M14.509 26.107l10.546-.027c2.239 0 2.072-.032 1.892.365-.149.328-.355.55-.641.691l-.265.13-6.837.013c-5.959.011-6.896.004-7.293-.058 1.54-.017 2.272-.377 2.601-1.114z"/><path fill="#1c1c1e" d="M25.383 6.112s.244 2.84-1.394 5.122c0 0 1.309-.309 2.491-.993-.074-.961-.487-3.135-1.097-4.129zs-.335 1.263-2.056 2.909c.421.661.562 1.338.593 1.513l-.102.158c-.059-.211-.299-1.026-.638-1.494-.649.88-1.037 1.374-2.303 2.147.496.762.584 1.635.6 1.918l-.016.014c-.068-.272-.328-1.216-.817-1.809-1.552 1.08-3.046 1.845-3.046 1.845.286.649.555 1.776.581 2.51-.062.049-.143.11-.204.159-.084-.771-.298-1.883-.639-2.529-1.22.614-2.517 2.413-2.648 2.996 0 0 .11 1.004.547 2.328a8.069 8.069 0 00-.141.217c-.123-.317-.484-1.204-.559-2.263-.78 1.87-.573 4.396-.512 5.045-.02.11-.037.222-.053.335-.008-.022-.34-.871-1.087-.656.778-.126 1.012.99 1.036 1.113-.059.67-.052 1.401.032 2.202l.546 1.089c-2.021-10.456 10.891-9.783 10.891-19.746zm1.141 4.442c-1.586.854-2.709.958-2.709.958-.47.74-1.681 1.943-2.099 2.287.048.013 2.378.157 4.587-.715 0 0 .336-1.355.221-2.53zm-.34 2.874c-2.198.695-3.625.654-4.721.592-1.421 1.325-1.728 1.339-4.094 3.415 2.575-.677 4.582-.401 4.582-.401 2.334-.976 4.155-3.458 4.233-3.606zm-5.645 3.862c-.679-.001-1.805.072-3.406.411a9.868 9.868 0 00-1.977 2.487s1.36-.855 2.693-.698c1.232-1.527 3.476-2.153 3.476-2.153s-.258-.046-.786-.047zm-3.122 2.514c-1.22 0-2.352.623-2.352.623-.488.901-.675 2.217-.675 2.217s.823-2.186 3.027-2.84zm-2.263 2.18c-.351-.002-.786.845-.786.845-.034.206-.05.549-.05.549s.751-2.172 1.16-.978c-.081-.303-.197-.415-.324-.416zm-1.583.629c-.197-.006-.435.09-.557.449.505-.714.847.353.847.353s-.011-.425.024-.682c-.031-.05-.16-.116-.314-.12z"/><path fill="none" stroke="#c9c9c9" stroke-width=".325" d="M31.585 16.002c0 8.747-7.034 15.837-15.711 15.837v0C7.197 31.839.163 24.748.163 16.002v0C.163 7.255 7.197.165 15.874.165v0c8.677 0 15.711 7.091 15.711 15.837v0z"/></svg>