<svg xmlns="http://www.w3.org/2000/svg" height="233.2mm" width="888.9mm" viewBox="0 0 888.934 233.162"><g fill="#8d0202"><path style="text-decoration-color:#000;font-variant-numeric:normal;font-variant-ligatures:normal;text-decoration-line:none;font-variant-position:normal;mix-blend-mode:normal;solid-color:#000;font-feature-settings:normal;shape-padding:0;font-variant-alternates:normal;text-indent:0;font-variant-caps:normal;white-space:normal;text-decoration-style:solid;text-orientation:mixed;isolation:auto;text-transform:none" d="M65.823 12.153c-.21 11.859.283 21.697-.17 32.651-.135 3.189-.43 6.34-.74 7.327l-.007.02-.005.022c-2.145 5.49-8.489 8.92-13.76 9.026h-.011c-1.452.026-2.5-.009-3.239-.082.185-.08.321-.147.558-.235l.006-.002c4.175-1.624 6.353-6.07 5.808-9.56-.658-3.623-3.403-6.912-7.118-7.6l-.014-.002-.014-.003c-2.905-.454-4.852.05-7.4 1.58l-.038.023-.035.026c-4.283 3.12-5.043 8.528-2.804 12.79 2.238 4.26 7.446 7.417 14.672 6.53h.011c3.694-.498 11.108-2.328 14.874-8.167 1.033-1.54 1.865-2.818 2.385-4.79.522-1.974.745-4.58.755-8.956.008-10.238.096-20.46.074-30.588zm.977 40.536l-.013.043c.003-.005.003-.012.004-.016l.009-.027z" color="#000"/><path d="M73.496 130.958c-.993-2.472-.234-7.35 3.31-9.496 1.946-1.274 4.176-2.032 6.316-1.603 7.885 1.794 7.975 12.537 1.143 15.275-1.89.7-2.331 1.083-1.917 1.67 6.65 3.28 12.037-1.872 13.106-8.769 1.366-6.464.99-16.609.935-17.57-16.193-.148-27.544-9.141-31.355-19.067-6.654-18.432 12.111-31.117 22.91-37.388l7.47-4.289c-.277-7.72-1.985-15.616-.675-22.112 1.482-7.671 5.234-13.582 13.238-12.294 20.66 4.057 1.755 35.192-10.171 43.421l.052 6.271.053 4.371c14.18.432 25.062 10.934 20.88 24.97-3.314 9.857-11.133 15.321-20.608 16.017l-.017 7.99c-.018 5.523-1.206 11.053-2.372 14.093-1.999 4.87-6.554 6.973-10.314 6.578-7.657-.736-10.41-4.646-11.976-8.067zm22.79-24.039c-.025-9.29.088-20.52.024-29.185-13.01.3-16.241 15.83-7.263 21.599-10.307-3.487-10.09-14.016-9.349-17.35 2.317-8.994 9.825-11.663 16.445-12.571l-.056-3.482c-.03-3.05-.131-5.602-.223-5.665-.175-.124-.614.158-8.28 5.305-12.182 8.179-14.833 12.928-15.894 17.755-2.45 12.394 7.385 24.61 24.595 23.586zm14.873-11.955c1.678-10.785-4.784-16.722-13.148-17.225.116 9.489.047 19.89.19 29.132 8.268-1.326 11.877-7.461 12.957-11.904zm-2.834-72.659c-8.409-1.72-9.33 10.547-10.671 25.495 10.565-5.446 20.316-23.947 10.671-25.495z"/><path style="text-decoration-color:#000;font-variant-numeric:normal;font-variant-ligatures:normal;text-decoration-line:none;font-variant-position:normal;mix-blend-mode:normal;solid-color:#000;font-feature-settings:normal;shape-padding:0;font-variant-alternates:normal;text-indent:0;font-variant-caps:normal;white-space:normal;text-decoration-style:solid;text-orientation:mixed;isolation:auto;text-transform:none" d="M7.875 11.359V83.33h10.481v10.714h30.27c-.52 1.724-1.561 4.329-3.876 7.117-3.829 4.61-10.865 9.338-24.51 9.338h-1.736v29.926h1.736c32.493 0 49.348-7.887 58.027-16.071 4.347-4.094 6.625-8.237 7.8-11.38a21.45 21.45 0 00.973-3.449c2.064.41 6.252 1.191 9.666 1.146 2.5-.033 5.397-.96 7.83-1.835.893-.322 1.582-.606 2.266-.883.197.93.472 2.028.95 3.337 1.213 3.318 3.538 7.702 7.936 12.044 8.795 8.685 25.78 17.09 58.29 17.09h1.747l-.166-29.026h-30.323c.41-3.109 1.912-5.559 4.138-7.65 2.625-2.465 6.271-4.33 9.978-5.664 7.414-2.665 14.92-3.202 14.92-3.202l1.616-.113V84.172h10.481V11.381zm3.472 3.471h171.725v65.833h-10.48v10.883c-2.684.304-8.404 1.137-14.241 3.233-3.988 1.433-8.036 3.448-11.182 6.4s-5.356 6.957-5.356 11.916v1.736h30.482l.126 22.057c-30.72-.299-46.252-8.306-54.11-16.061-4.004-3.953-6.055-7.864-7.116-10.767-1.061-2.902-1.12-4.662-1.12-4.662l-.107-2.575-2.346 1.068s-1.792.815-4.08 1.639-5.13 1.61-6.7 1.63c-3.432.045-10.714-1.409-10.714-1.409l-2.028-.423-.061 2.071s-.03 1.611-1.042 4.318-2.99 6.361-6.93 10.071c-7.729 7.277-23.166 14.82-53.925 15.1v-23.025c13.36-.415 21.186-5.384 25.446-10.51 4.448-5.353 5.15-10.856 5.15-10.856l.244-1.952H21.997V79.83h-10.48z" color="#000"/><path style="text-decoration-color:#000;font-variant-numeric:normal;font-variant-ligatures:normal;text-decoration-line:none;font-variant-position:normal;mix-blend-mode:normal;solid-color:#000;font-feature-settings:normal;shape-padding:0;font-variant-alternates:normal;text-indent:0;font-variant-caps:normal;white-space:normal;text-decoration-style:solid;text-orientation:mixed;isolation:auto;text-transform:none" d="M128.004 12.682c.015 13.415-.263 27.36.354 39.081.243 1.806.734 2.99 1.535 4.602l.023.048.03.046c3.657 5.679 9.616 8.883 16.302 8.671 3.641-.04 6.319-.494 8.478-1.712 5.157-3.144 7.53-11.479 4.226-16.062-2.081-2.415-5.358-3.64-8.446-3.18h-.008c-6.162.964-9.287 6.665-7.348 11.817 2.024 3.44 3.787 4.39 6.573 5.586-.737.073-1.784.108-3.236.082h-.05c-7.682.254-12.556-4.641-13.72-9.026l-.005-.021-.007-.021c-.31-.987-.605-4.136-.741-7.324-.302-10.907-.17-22.65-.169-32.572z" color="#000"/></g><g fill-rule="evenodd" fill="#323232"><path d="M22.977 185.707c.565-.34.821-.852 1.239-1.04.311-.14-.213 1.121-.26 1.242-.662 1.727-6.393 3.245-6.11.751.353-3.1 4.103-4.712 3.435-4.075-2.502 2.385.762 3.684 1.696 3.122z"/><path d="M21.795 183.293c-.728.34-.707 1.595.03 1.878.885.34 1.783-.493 1.44-1.387a1.024 1.024 0 00-1.47-.491zm.314.043c.412 0 .746.312.746.697s-.334.697-.746.697c-.411 0-.745-.312-.745-.697s.334-.697.745-.697zm-2.133 10.132c.915-.862 1.297-2.295 1.297-1.155 0 2.995-1.698 3.794-3.862 5.084-1.08.644-4.225.926-5.33.115-2.8-2.05.538-6.436 2.507-7.626 2.44-1.475.954-.334.955 1.77.002 1.977 1.964 4.14 4.433 1.812zm-2.449 8.624c.52-1.667-.528-3.145-2.38-2.86-5.42.836 1.002 7.265 2.38 2.86zm-3.01-1.516c.657-.193 1.351.2 1.55.877.198.676-.176 1.381-.834 1.574-.658.193-1.352-.2-1.55-.877-.198-.676.175-1.381.833-1.574z"/><path d="M12.43 200.54c-1.181 5.287 7.43 5.192 5.876-.122-.063-.216-.207-1.186-.075-1.163 1.472 1.995 2.187 3.926 1.519 6.218-.711 2.44-1.833 3.467-2.958 4.458-1.223 1.078-2.7 1.5-3.539 1.349-1.206-.217-2.603-4.678-2.585-5.872.018-1.19.268-1.984.772-3.055.172-.366.954-1.936.99-1.814zm.742 14.314c2.243 3.567 7.026.78 5.376-1.845-.31-.493-1.225-2.025-.986-1.838.709.553 1.798.852 2.674 1.492 2.984 2.18.388 11.055-1.499 10.124-3.891-1.932-5.36-3.31-5.566-7.932z"/><path d="M15.888 215.889c.74.17 1.882-.236 2.066-1.248.154-5.174-6.692-1.407-2.828 1.01 1.178.738 1.991-.112 1.718-1.49-.59-2.983-4.152.99-.956 1.728zm6.287 6.812c3.066-.303 3.755 4.157 1.586 4.123-.306-.005-1.666-.05-1.405.105 1.117.663 2.1.796 3.336.603.515-.08 3.042-.274 3.158-.908.224-1.232-2.041-3.655-3.029-4.24-.86-.51-3.157-.509-3.646.317z"/><path d="M23.64 223.822c1.322.862.918 2.28-.562 2.48-2.517.339-1.778-4.006.563-2.48zm-1.29.492c.555-.487 1.81.105 1.378.833-.19.322-.238.496-.59.656-.927.423-1.311-1.03-.788-1.49zm5.257-9.115c19.42 26.49 34.347 1.7 22.93-4.464 13.547 4.247 1.683 20.282-9.641 16.462-20.8-6.107-22.326-32.303-13.504-47.04.285-.475-.015-2.283-.349-4.51-.062-.413-2.38-1.5-2.433-1.893-.04-.282 2.345.83 2.314.57.427-2.107 1.75-2.333 1.75-2.333.002.017-.587 1.293-.548 2.785.05 1.86.781 3.966 1.409 3.324 27.896-27.474 54.042.926 119.174-18.85-4.346 1.964-17.868 6.299-30.889 8.462-39.831 6.62-51.248-4.235-72.608 4.89-21.352 9.123-24.31 30.56-17.626 42.599z"/><path d="M29.573 200.884c2.323 5.836 6.384 5.965 9.193 7.945 3.763 2.652 4.183 4.585 6.139 6.818 1.384 1.58-4.12 2.055-7.016 1.786-6.854-.831-10.33-9.2-8.316-16.548zm9.771-4.656c.86 1.575 2.34 7.062 3.833 7.943.193.115-.844.364-.923.376-6.102.962-12.452-2.828-11.064-9.477.652-3.116 1.353-4.833 2.186-5.475 1.038 3.54 4.6 4.12 5.97 6.63zm.146-11.297c2.878.771 4.583.967 5.404 3.949.76 2.756 2.303 5.075-3.745 1.84-3.847-2.06-7.757-2.459-4.454-5.384 10.994-12.03 20.635-10.952 42.452-9.848 2.331.117 17.954-.27 10.667.953-5.491.922-8.796 1.848-16.97 2.08-4.83.136-11.625.015-16.316.953-.612.123 9.624.96 13.513 7.886l3.781 6.735c3.233 5.759-3.328-6.23-13.357-11.426-7.174-3.715-18.377-.953-20.972 2.261z"/><path d="M62.911 187.432c.33 1.297.963 1.674 2.046 2.397.864.579.462-.626.462-1.3 0-1.092-.774-2.172-1.6-2.86-.308-.256-.942-1.008-1.354-1.107.45 1.121.21 1.94.446 2.869zm14.401.518c.384-.156-1.07-1.001-1.21-1.098-2.01-1.389-9.09-2.568-6.978-.912 2.556 2 6.317 2.768 8.188 2.01zm-9.141 1.551c1.62 1.515 2.882 4.901 2.882 7.107 0 1.16.115 2.32.115 3.467 0 1.643-.222 2.07-1.065.26-.8-1.715-1.678-4.047-1.989-5.922-.31-1.877.029-3.083.057-4.911zm51.74.345c-7.12-5.459-15.668-7.714-24.723-7.568-2.517.04-6.103.122-8.3 1.155-.761.359 4.153 2.214 4.784 2.485 4.36 1.872 5.92 3.814 9.969 3.004 1.03-.206 7.741-1.124 4.669.693-.642.38-3.763.858-3.977 1.098-.308.345 1.89.607 2.074.636 1.866.287 18.066.336 15.505-1.503zm-36.382-5.248c.663.165 1.15.808 1.4 1.002 4.819 3.764 8.796 6.521 14.4 8.298 2.167.685 1.899 4.627 6.343 4.815.267.011-1.052-.855-1.96-1.924-.801-.943-1.209-2.104-.981-2.115 6.446-.316 14.754.898 20.868-3.037 18.058 14.54 36.477 13.048 47.955 7.974 1.564-.714 2.182-1.058 4.294-2.235-4.087 1.574-8.42 2.559-9.624 2.697-20.299 2.31-26.085-1.965-40.34-10.426-.214-.127 5.18-4.718 7.629-7.844.868-1.11 2.153-2.972 2.094-2.923-1.477 1.25-10.253 10.943-12.236 8.951-.604-.605-1.886-1.186-1.566-1.285 1.022-.319 3.797-1.81 4.117-4.52.195-4.554-4.263-4.391-4.798-2.124-.138.581.096 1.852.423.848.92-2.822 4.74-.044 1.652 3.052-3.503 3.512-10.633-2.347-15.393-2.744.646-.74 6.47-1.806 6.47-1.806.06-.702-12.84.603-14.169.68-2.773.158.013-2.046 1.759-2.933 7.73-3.929-.261-2.65-2.393-.375-.756.807-2.309 3.597-2.637 3.582-4.714-.228-11.219 2.954-13.987 2.086-3.116-.731-6.888-.96-9.442-.96-6.337 0-2.682-.06 2.155 1.087 9.658 2.292 5.47 1.759 7.874 6.236.623 1.16 1.68 2.16 2.464 3.207 1.75 2.335.282-2.98-.187-3.67-.495-.726-1.016-1.66-1.613-2.281-.214-.222-.562-1.012-.58-1.32z"/><path d="M123.878 193.468c-2.794 1.4-2.944 4.354-2.334 7.077.258 1.153 1.103 2.366 1.988 3.12.588.502 2.612 2.069 1.873.636-.572-1.11-1.78-2.283-1.24-3.9.742-2.217 3.414-2.131 4.208-.548.414.825.807 1.986.807.635 0-3.794-1.53-6.141-5.302-7.02z"/><path d="M127.413 203.04c.81-.519 1.17-1.783.36-2.592-.423-.423-.957-.909-2.046-.621-1.945.514-1.024 4.951 1.686 3.213zm-.144-.693c.289-.255.317-.458.317-.867 0-.388-.444-.957-.864-1.068-2.372-.63-.742 3.073.547 1.935zm2.904 1.814c.307.914.584 1.294 1.29 1.87.283.233.929.415 1.296.491.15.032-.73-.9-.843-1.068-.5-.75-.3-1.65.238-2.29 1.743-2.07 3.258 1.652 3.026-.397-.388-3.426-3.616-4.089-3.735-3.981-.32.29-2.23 2.53-1.273 5.375z"/><path d="M132.587 203.385c-1.03 1.419.32 3.009 1.507 2.258 2.096-1.328-.793-3.241-1.507-2.258zm.455 1.225c.104.179.65.381.829.26.36-.246.269-.82-.058-1.04-.533-.361-1.152.125-.77.78zm8.6-17.696c-3.601 0-8.692.93-11.762 3.063-1.427.992 1.202.647 2.075.404 3.618-1.007 6.263-2.142 9.684-3.466zm-10.693 4.312c-.639.263 3.624 1.773 5.994 1.156.21-.055-3.219-2.298-5.994-1.156zm8.623 12.159c-.998-.472-2.386-.273-2.003 1.098.046.165.406.819.404.852-.01.117-.554-.048-.634-.115-1.135-.953-1.347-2.281-.793-3.64.347-.853 3.026.948 3.026 1.805z"/><path d="M138.538 203.644c-1.136 0 .458 2.022.936.808.078-.197-.15-.536-.302-.65-.242-.18-.315-.158-.635-.158zm16.125 7.243c-.492-.657-.684-1.983-1.037-2.773-.609-1.362-1.799-2.378-2.854-3.235-.673-.548-2.163-1.428-1.153.115.402.614.295 1.491.692 2.167.725 1.236 3.16 3.501 4.351 3.726zm-1.207-6.122c1.58.75 2.51 1.675 4.437 1.675.595 0 4.338-.2 4.15-.289-2.887-1.374-5.318-2.225-8.588-1.386zm26.474-4.139l-6.888-.145c-1.628-.034-2.635.194-4.035.895-.302.152-1.223.55-2.982.844 2.343.864 6.745 1.48 9.124.716 1.078-.347 4.116-1.42 4.784-2.31zm-8.883-2.501c1.855-1.323 3.301-1.923 4.208-2.947.614-.693 1.074-1.331 1.47-2.138.657-1.343-3.595 1.489-4.043 1.956-.242.253-1.391 1.41-1.635 3.129zm-21.817-3.881c.345.617.805 1.961.094 2.447-.526.36-2.116.223-2.664-.1-.175-.104-.953-.48-.561-.732.173-.11.731.12 1.083-.026.89-.37 1.014-.82.697-1.622-.243-.615-1.122-.61-.989-.786.202-.268 1.721-.287 2.34.819z"/><path d="M147.075 194.33c.078.314-.017.68-.328.816-.519.225-1.042-.389-.815-.92.083-.194.202-.335.403-.355.03-.004.682.227.74.46zm5.346-.862c.992-1.14 4.927 1.27 5.672 3.517.732 2.208-1.158 2.658-3.316 2.181-.5-.11-2.768-.83-2.611-1.538.1-.452 3.078.217 2.592-2.312-.189-.983-2.458-1.699-2.336-1.848z"/><path d="M152.335 196.918c-.764-.147-1.357-.96-.747-1.63.288-.316.648-.705 1.156-.718.743-.02 1.672.767 1.17 1.61-.237.398-1.08.921-1.58.737zm.726-1.615c.435.096.714.51.622.922-.09.413-.518.67-.952.573-.435-.096-.714-.509-.623-.921.091-.413.518-.67.953-.574zm5.483-2.438c1.688-3.167 7.912-.791 9.287 1.52.56.942 1.444 1.44.242 2.243-2.153 1.44-3.005 2.605-5.909 1.962-.55-.121-1.702-.208-2.143-.518-.024-.017 1.757-.58 2.083-1.078.77-1.176.64-2.894-.577-3.663-.861-.543-2.962-.064-2.982-.466z"/><path d="M162.08 195.365c-.407 2.223-3.35 2.044-3.676.648-.898-3.839 4.028-2.576 3.675-.648zm-2.663.728c.785 1.492 3.292-.561 1.362-1.71-.8-.476-2.273-.022-1.362 1.71zm6.198-7.023c.4-3.034 4.502-2.423 6.314-1.459.234.125 1.918.977 1.615 1.171-.417.267-.905 1.084-1.134 1.525-.6 1.151-2.262 2.377-3.59 2.283-.124-.008-.874-.132-.893-.227-.005-.024.718-.33.812-.471.887-1.326.616-3.129-1.188-3.236-.561-.034-1.506-.001-1.937.415z"/><path d="M167.34 191.83c-.643-.142-2.281-1.018-1.526-1.846 1.135-1.243 2.609-.821 2.85.264.19.844-.28 1.813-1.325 1.583zm-.542-.89c.51.434 1.14.52 1.314-.27.35-1.587-2.22-.5-1.314.27zm-146.865 1.32c.39-.794.176-2.46-.85-2.7-4.858-1.139-1.428 7.33.85 2.7zm-2.085-1.858a1.13 1.13 0 011.119 1.142c0 .631-.501 1.143-1.119 1.143a1.13 1.13 0 01-1.118-1.143c0-.63.5-1.142 1.118-1.142zm152.078-6.161c.022.655-.22 1.83.645.823.535-.624 1.137-1.999 1.161-2.85.036-1.284-3.06-1.03-3.69.138-.068.125-1.245 2.177-1.089 2.024.93-.91 2.9-2.46 2.973-.135z"/><path d="M167.77 184.931c.34.773 1.066.655 1.241-.14.114-.511-.056-.755-.536-.861-.48-.107-.9.556-.705 1.002zm.358-.212c-.134.332.235.316.391.356.79.204.025-1.38-.391-.356zM20.674 170.271c-.58-.313-1.152-.273-1.526-.536-.28-.197 1.073-.388 1.201-.41 1.824-.31 6.05 3.848 3.76 4.874-2.848 1.276-6.146-1.128-5.257-.878 3.327.938 2.781-2.532 1.822-3.05z"/><path d="M19.13 172.514c.665.453 1.734-.205 1.601-.982-.158-.935-1.333-1.284-1.927-.533a1.025 1.025 0 00.326 1.515zm-.122-.293c-.21-.354-.112-.8.22-.997.33-.196.769-.068.979.287s.111.8-.22.997c-.33.196-.77.068-.98-.287zm17.714-4.623c.818-.955 1.044-2.421 1.166-1.287.32 2.978-1.281 3.954-3.295 5.469-1.005.755-4.101 1.373-5.289.685-3.002-1.738-.153-6.457 1.677-7.85 2.268-1.728.912-.434 1.139 1.657.213 1.965 2.395 3.905 4.601 1.326zM84.21 200.28c1.969.919 3.967-.128 3.923-2.46-.132-6.822-9.124.03-3.922 2.46zm2.37-3.46c.128.844-.472 1.635-1.339 1.766-.867.132-1.674-.445-1.803-1.289-.128-.844.472-1.635 1.34-1.766.867-.132 1.674.445 1.802 1.29z"/><path d="M86.97 194.244c-6.324-2.335-7.637 8.301-.825 7.267.276-.042 1.497-.059 1.447.101-2.705 1.483-5.205 2.046-7.92.841-2.892-1.282-3.973-2.836-5.007-4.387-1.127-1.688-1.402-3.58-1.077-4.588.468-1.452 6.2-2.434 7.67-2.214 1.464.22 2.402.66 3.64 1.46.423.273 2.229 1.497 2.072 1.521zm28.63 3.45c-4.185.489-3.727 6.007-.65 5.646.579-.067 2.355-.234 2.083-.098-.804.401-1.542 1.256-2.498 1.772-3.253 1.755-10.15-4.41-8.49-5.71 3.418-2.682 5.293-3.414 9.554-1.61z"/><path d="M113.53 199.677c-.472.594-.597 1.8.237 2.402 4.603 2.366 4.15-5.434.305-2.988-1.172.746-.755 1.846.606 2.193 2.946.75.894-4.175-1.148-1.607zm35.442-15.694c-1.52 2.68-5.562.67-4.283-1.082.18-.248 1-1.332.724-1.209-1.186.531-1.86 1.257-2.416 2.378-.231.467-1.53 2.644-1.079 3.104.877.893 4.163.44 5.21-.029.913-.409 2.236-2.287 1.844-3.163z"/><path d="M147.16 184.5c-1.465.582-2.391-.565-1.7-1.89 1.174-2.251 4.297.858 1.7 1.89zm.343-1.338c.078.734-1.13 1.418-1.475.646-.153-.342-.267-.48-.195-.86.189-1.002 1.598-.478 1.67.214zM36.558 166.477c.304-.832-.088-2.465-1.135-2.595-4.951-.612-.634 7.44 1.135 2.595zm-2.271-1.625a1.132 1.132 0 011.235 1.016 1.13 1.13 0 01-.99 1.256 1.13 1.13 0 01-1.234-1.017 1.13 1.13 0 01.99-1.255zm-5.067 63.196c2.171-1.062 3.898 2.028 2.294 2.597-.227.08-1.239.42-1.005.462 1.003.181 1.762.01 2.618-.47.357-.2 2.162-1.034 2.073-1.532-.172-.966-2.5-2.128-3.386-2.288-.773-.14-2.46.49-2.595 1.231z"/><path d="M30.6 228.479c1.207.272 1.298 1.425.264 1.977-1.757.937-2.402-2.46-.264-1.977zm-.815.714c.275-.509 1.36-.417 1.242.236-.052.289-.04.43-.254.643-.567.565-1.246-.398-.987-.878zm7.989 1.7c1.562-1.021 3.182 1.18 2.008 1.77-.166.083-.91.44-.726.45.786.043 1.352-.161 1.961-.61.254-.188 1.558-1 1.442-1.373-.224-.725-2.12-1.391-2.814-1.43-.605-.032-1.838.612-1.87 1.193z"/><path d="M38.87 231.066c.95.093 1.13.967.392 1.49-1.257.886-2.078-1.654-.393-1.49zm-.556.625c.161-.416 1.001-.45.974.062-.013.226.01.333-.134.517-.38.487-.993-.185-.84-.579zm6.79-.366c1.377-1.26 3.33.652 2.266 1.423-.15.11-.826.581-.643.561.782-.084 1.307-.376 1.837-.918.22-.226 1.375-1.237 1.2-1.588-.338-.678-2.315-1.03-3.007-.957-.603.065-1.716.9-1.653 1.478z"/><path d="M46.208 231.325c.953-.062 1.273.772.627 1.407-1.097 1.078-2.316-1.298-.627-1.407zm-.448.706c.093-.437.916-.606.971-.096.025.225.064.327-.048.532-.296.542-1.01-.023-.923-.436zm68.805-53.05c1.457 1.38 3.273.825 4.784-.14.64-.408 1.187-1.184 1.449-1.883.174-.465.677-2.03-.027-1.27-.544.588-.988 1.574-2.083 1.602-1.5.038-2.034-1.594-1.252-2.42.407-.431 1.023-.923.207-.627-2.291.83-3.373 2.268-3.078 4.738z"/><path d="M119.566 174.67c-.49-.376-1.333-.316-1.644.35-.163.348-.34.777.073 1.37.736 1.063 3.213-.465 1.57-1.72zm-.387.238c-.217-.118-.346-.091-.593-.002-.234.085-.48.479-.456.757.14 1.569 2.02-.225 1.05-.755zm-11.772 13.904c.693 1.177 1.986 1.155 3.156.81.495-.147 1-.551 1.302-.96.201-.27.825-1.2.222-.835-.467.282-.944.843-1.664.655-.989-.258-1.03-1.425-.364-1.819.348-.204.843-.41.254-.37-1.655.112-2.634.848-2.905 2.519z"/><path d="M111.46 187c-.25-.337-.812-.457-1.14-.08-.173.197-.369.445-.211.91.281.834 2.19.302 1.352-.83zm-.298.084c-.12-.118-.209-.125-.387-.113-.17.012-.404.222-.44.409-.205 1.053 1.362.233.827-.296z"/></g><g aria-label="СУМСЬКИЙ АКАДЕМІЧНИЙ ТЕАТР ДРАМИ ТА МУЗИЧНОЇ КОМЕДІЇ ІМЕНІ М.С. ЩЕПКІНА" fill="#263238" stroke-width=".643"><path d="M224.41 14.14q-4.976 0-7.932 5.278-2.925 5.248-2.925 14.57 0 6.062 1.357 10.56 1.357 4.494 3.89 6.906 2.533 2.413 5.881 2.413 3.438 0 5.911-1.236v2.714q-2.352 1.357-6.182 1.357-4.192 0-7.359-2.714-3.136-2.714-4.855-7.841-1.719-5.157-1.719-12.21 0-10.56 3.74-16.59 3.77-6.032 10.25-6.032 4.041 0 7.057 1.87l-1.357 2.594q-2.533-1.629-5.76-1.629zm18.098 29.05l-9.44-31.18h3.076l6.695 22.59q.332 1.176 1.025 4.343h.273q.362-2.57.844-4.35l5.7-22.59h3.08l-9.835 36.8q-1.116 4.192-2.775 6.062-1.659 1.84-4.313 1.84-1.448 0-2.654-.603v-2.775q1.327.543 2.594.543 1.508 0 2.533-1.327 1.025-1.357 1.9-4.463zm30.642 12.9l-11.73-40.14h-.241q.301 6.333.301 8.022v32.12h-2.84v-44.09h4.373l9.892 33.72q1.327 4.463 1.72 7.6h.24q.302-2.232 1.87-7.54l9.802-33.78h4.524v44.09h-2.956v-31.88q0-1.87.301-8.203h-.22l-11.67 40.08zm40.05-41.95q-4.976 0-7.932 5.278-2.925 5.248-2.925 14.57 0 6.062 1.357 10.56 1.357 4.494 3.89 6.906 2.533 2.413 5.881 2.413 3.438 0 5.911-1.236v2.714q-2.352 1.357-6.182 1.357-4.192 0-7.359-2.714-3.136-2.714-4.855-7.841-1.719-5.157-1.719-12.21 0-10.56 3.74-16.59 3.77-6.032 10.25-6.032 4.041 0 7.057 1.87l-1.357 2.594q-2.533-1.629-5.76-1.629zm32.7 29.59q0 5.79-3.076 9.078-3.046 3.287-8.414 3.287h-7.73v-44.09h2.956v19.57h4.705q5.911 0 8.716 2.956 2.835 2.925 2.835 9.198zm-16.26 9.651h4.886q4.041 0 6.182-2.473 2.141-2.503 2.141-7.178 0-4.855-2.021-7.148-2.021-2.292-6.363-2.292h-4.825zM356.1 33.29L368.59 12h3.197l-12.61 21.29 13.6 22.8h-3.408l-13.3-22.55V56.1h-2.956V12h2.956zM377.6 12h2.895v30.82q0 1.025-.03 2.051 0 .995-.272 6.213h.242l16.56-39.09h3.83v44.09h-2.895v-31.62q0-3.8.362-7.901h-.242l-16.68 39.54h-3.77zm32.9 0h2.895v30.82q0 1.025-.03 2.051 0 .995-.272 6.213h.242l16.56-39.09h3.83v44.09h-2.895v-31.62q0-3.8.362-7.901h-.242l-16.68 39.54h-3.77zm11.58-3.529q-3.679 0-5.609-1.99-1.93-2.021-2.232-6.484h2.775q.332 3.408 1.478 4.825 1.176 1.417 3.589 1.417 2.533 0 3.679-1.508 1.176-1.508 1.448-4.735h2.775q-.513 8.474-7.901 8.474zM471.7 56.09l-3.89-15.98H457.1l-3.83 15.98h-3.076L460.814 12h3.046l10.86 44.09zm-4.584-18.97l-3.89-16.44q-.603-2.775-.935-5.248-.271 2.624-.844 5.248l-3.77 16.44zm15.384-3.83L494.99 12h3.197l-12.61 21.29 13.6 22.8h-3.408l-13.3-22.55V56.1h-2.956V12h2.956z"/><path d="M520.7 56.09l-3.89-15.98H506.1l-3.83 15.98h-3.1L509.79 12h3.046l10.86 44.09zm-4.584-18.97l-3.89-16.44q-.603-2.775-.935-5.248-.271 2.624-.844 5.248l-3.77 16.44zm34.584 30.1h-2.835V56.09h-21.1v11.13h-2.835V53.26h2.654q3.559-10.83 5.036-20.21 1.508-9.379 1.508-21.05h13.78v41.26h3.77zM544 53.26V14.84h-7.841q-.663 21.26-6.484 38.42zm28.8 2.83h-16V12h15.98v2.835h-13.03v16.74h12.3v2.835h-12.3v18.85h13.03zm22.3 0l-11.7-40.14h-.241q.301 6.333.301 8.022v32.12h-2.9v-44.09h4.373l9.892 33.72q1.327 4.463 1.72 7.6h.24q.302-2.232 1.87-7.54l9.802-33.78h4.524v44.09h-2.956v-31.88q0-1.87.301-8.203h-.241l-11.67 40.08zm27.6 0V12h2.956v44.09zm33.2 0h-2.986V37.18q-5.067 2.865-9.62 2.865-8.716 0-8.716-11.07v-16.97h2.956v17.1q0 4.071 1.448 6.092 1.478 1.99 4.554 1.99 2.322 0 4.343-.482 2.051-.513 5.036-2.112v-22.59h2.986zm30.9 0h-2.956V34.41h-15.38v21.68h-2.956V12h2.956v19.57h15.38V12h2.956zM696.5 12h2.895v30.82q0 1.025-.03 2.051 0 .995-.272 6.213h.242l16.56-39.09h3.83v44.09h-2.895v-31.62q0-3.8.362-7.901h-.242l-16.68 39.54h-3.77zm33 0h2.895v30.82q0 1.025-.03 2.051 0 .995-.272 6.213h.242l16.56-39.09h3.83v44.09h-2.895v-31.62q0-3.8.362-7.901h-.242l-16.8 39.53h-3.77zm11.58-3.529q-3.679 0-5.609-1.99-1.93-2.021-2.232-6.484h2.775q.332 3.408 1.478 4.825 1.176 1.417 3.589 1.417 2.533 0 3.679-1.508 1.176-1.508 1.448-4.735h2.775q-.513 8.474-7.901 8.474zM781.3 56.09h-2.956V14.83h-8.776v-2.835h20.51v2.835h-8.776zm30.1 0h-15.9V12h15.98v2.835h-13.03v16.74h12.3v2.835h-12.3v18.85h13.03zm24.5 0L832 40.11h-10.71l-3.83 15.98h-3.076L825.004 12h3.046l10.86 44.09zm-4.584-18.97l-3.89-16.44q-.603-2.775-.935-5.248-.271 2.624-.844 5.248l-3.77 16.44zM851 56.09h-2.956V14.83h-8.776v-2.835h20.51v2.835h-8.776zm32.6-31.42q0 6.816-3.136 10.01-3.106 3.197-9.228 3.197H868.1v18.22h-2.956v-44.1h6.032q6.454 0 9.44 3.046t2.986 9.621zm-15.5 10.49h2.956q5.187 0 7.359-2.443 2.171-2.443 2.171-8.052 0-5.338-2.262-7.63-2.232-2.322-6.936-2.322h-3.287zM234.185 144.41h-2.835v-11.1h-21.08v11.13h-2.835v-13.96h2.654q3.559-10.83 5.036-20.21 1.508-9.379 1.508-21.05h13.78v41.26h3.77zm-6.725-13.9V92.04h-7.841q-.663 21.26-6.484 38.42zm31.3-28.6q0 6.816-3.136 10.01-3.106 3.197-9.228 3.197h-3.138v18.2h-2.955v-44.1h6.032q6.454 0 9.44 3.046t2.986 9.621zm-15.5 10.5h2.956q5.187 0 7.359-2.443 2.171-2.443 2.171-8.052 0-5.338-2.262-7.63-2.236-2.36-6.94-2.36h-3.288zm39.06 20.9l-3.89-16h-10.71l-3.83 16h-3.08l10.62-44.1h3.046l10.85 44.1zm-4.59-19l-3.89-16.4q-.603-2.775-.935-5.248-.271 2.624-.844 5.248l-3.77 16.44zm26.9 19L292.9 93.16h-.241q.301 6.333.301 8.022v32.1h-2.83v-44.1h4.373l9.892 33.72q1.327 4.463 1.72 7.6h.24q.302-2.232 1.87-7.54l9.802-33.78h4.524v44.09h-2.956v-31.88q0-1.87.301-8.203h-.23l-11.67 40.1zm27.6-44.1h2.895v30.82q0 1.025-.03 2.051 0 .995-.272 6.213h.242l16.54-39.1h3.83v44.09h-2.895v-31.64q0-3.8.362-7.901h-.242l-16.7 39.5h-3.77zm51.87 44.1h-2.956V92.04h-8.776v-2.83h20.51v2.835h-8.776zm30.8 0l-3.89-15.98H400.3l-3.83 15.98h-3.076l10.62-44.09h3.046l10.86 44.09zm-4.584-18.97l-3.89-16.44q-.603-2.775-.935-5.248-.271 2.624-.844 5.248l-3.77 16.44zm38.484 18.97l-11.7-40.15h-.241q.301 6.333.301 8.022v32.12h-2.835v-44.1h4.373l9.892 33.72q1.327 4.463 1.72 7.6h.24q.302-2.232 1.87-7.54l9.802-33.78h4.524v44.09h-2.956v-31.88q0-1.87.301-8.203h-.241l-11.8 40.1zm32.2-12.9l-9.4-31.2h3.076l6.695 22.59q.332 1.176 1.025 4.343h.271q.362-2.563.845-4.343l5.7-22.59h3.076L482.456 126q-1.116 4.192-2.775 6.062-1.66 1.84-4.313 1.84-1.448 0-2.654-.603v-2.775q1.327.543 2.594.543 1.508 0 2.533-1.327 1.025-1.357 1.9-4.463zm32 1.1q0 5.881-2.956 9.138t-8.294 3.257q-4.222 0-7.721-1.659v-3.257q1.538.965 3.589 1.538 2.051.543 4.132.543 8.173 0 8.173-9.5 0-5.006-2.352-7.36-2.352-2.351-7.298-2.351h-3.016v-2.835h3.197q4.252 0 6.575-2.473 2.322-2.473 2.322-7.268 0-3.981-1.779-5.911-1.749-1.96-4.946-1.96-1.779 0-3.287.784-1.478.784-2.503 2.02l-1.99-2.05q3.317-3.59 8.022-3.59 4.494 0 6.997 2.866 2.533 2.835 2.533 7.84 0 4.314-2.051 7.239-2.021 2.895-5.489 3.8v.241q4.011.513 6.062 3.348 2.081 2.835 2.081 7.6zm8.6-32.3h2.895v30.82q0 1.025-.03 2.051 0 .995-.272 6.213h.242l16.56-39.09h3.83v44.09h-2.895v-31.64q0-3.8.362-7.901h-.242l-16.7 39.5h-3.77zm53.5 44.1h-2.986V114.4q-5.067 2.865-9.62 2.865-8.716 0-8.716-11.07v-17h2.956v17.1q0 4.071 1.448 6.092 1.478 1.99 4.554 1.99 2.322 0 4.343-.483 2.051-.512 5.036-2.11v-22.6h2.986zm30.9 0h-2.956v-21.68h-15.38v21.68h-2.956v-44.1h2.956v19.57h15.5v-19.6h2.956zm33.7-22.1q0 10.95-3.287 16.83-3.257 5.881-9.44 5.881-6.243 0-9.47-5.911-3.227-5.941-3.227-16.86 0-11.4 3.197-16.98 3.197-5.579 9.59-5.579 6.152 0 9.379 5.881 3.257 5.851 3.257 16.74zm-22.35 0q0 9.832 2.443 14.87 2.473 5.006 7.178 5.006 4.735 0 7.178-4.976 2.473-4.976 2.473-14.9 0-9.801-2.413-14.78-2.413-5.006-7.148-5.006-4.855 0-7.298 5.067-2.413 5.036-2.413 14.72zm30.45 22.1v-44.1h2.956v44.09zm-4.976-52.08q0-1.297.573-1.87.603-.573 1.357-.573.694 0 1.267.573t.573 1.87q0 1.327-.573 1.93t-1.267.603q-.754 0-1.357-.603-.573-.603-.573-1.93zm9.198 0q0-1.297.573-1.87.603-.573 1.297-.573.754 0 1.327.573t.573 1.87q0 1.327-.573 1.93t-1.327.603q-.694 0-1.297-.603-.573-.603-.573-1.93zM675 110.51l12.5-21.3h3.197l-12.61 21.29 13.6 22.8h-3.408l-13.27-22.56v22.56h-2.956V89.2h2.956zm45.5.7q0 10.95-3.287 16.83-3.257 5.881-9.44 5.881-6.243 0-9.47-5.911-3.227-5.941-3.227-16.86 0-11.4 3.197-16.98 3.197-5.579 9.59-5.579 6.152 0 9.379 5.881 3.257 5.851 3.257 16.74zm-22.35 0q0 9.832 2.443 14.87 2.473 5.006 7.178 5.006 4.735 0 7.178-4.976 2.473-4.976 2.473-14.9 0-9.801-2.413-14.78-2.413-5.006-7.148-5.006-4.855 0-7.298 5.067-2.413 5.036-2.413 14.72zm44.95 22.1l-11.7-40.15h-.241q.301 6.333.301 8.022v32.12h-2.835v-44.1h4.373l9.892 33.72q1.327 4.463 1.72 7.6h.24q.302-2.232 1.87-7.54l9.802-33.78h4.524v44.09h-2.956v-31.88q0-1.87.301-8.203h-.241l-11.7 40.1zm43.6 0h-16v-44.1h15.98v2.835h-13.03v16.74h12.3v2.835h-12.3v18.85h13.03zm30 11.1h-2.835v-11.1h-21.08v11.13h-2.835v-13.96h2.654q3.559-10.83 5.036-20.21 1.508-9.379 1.508-21.05h13.78v41.26h3.77zm-6.725-13.96V92.08h-7.841q-.663 21.26-6.484 38.42zm12.825 2.86v-44.1h2.956v44.09zm12.7 0v-44.1h2.956v44.09zm-4.976-52.08q0-1.297.573-1.87.603-.573 1.357-.573.694 0 1.267.573t.573 1.87q0 1.327-.573 1.93t-1.267.603q-.754 0-1.357-.603-.573-.603-.573-1.93zm9.198 0q0-1.297.573-1.87.603-.573 1.297-.573.754 0 1.327.573t.573 1.87q0 1.327-.573 1.93t-1.327.603q-.694 0-1.297-.603-.573-.603-.573-1.93zM211.96 210.51v-44.09h2.956v44.09zm27.171 0l-11.73-40.1h-.241q.301 6.333.301 8.022v32.12h-2.835v-44.09H229l9.892 33.72q1.327 4.463 1.72 7.6h.24q.302-2.232 1.87-7.54l9.809-33.8h4.524v44.09h-2.956v-31.88q0-1.87.301-8.203h-.23l-11.67 40.1zm43.579 0h-15.98v-44.09h15.98v2.835h-13.03v16.74h12.3v2.835h-12.3v18.85h13.03zm29.07 0h-2.95v-21.7h-15.38v21.68h-2.956V166.4h2.956v19.57h15.38V166.4h2.956zm9.71 0v-44.09h2.956v44.09zm38.71 0l-11.73-40.14h-.241q.301 6.333.301 8.022v32.12h-2.835v-44.09h4.373l9.892 33.72q1.327 4.463 1.72 7.6h.24q.302-2.232 1.87-7.54l9.802-33.78h4.524v44.09h-2.956v-31.88q0-1.87.301-8.203h-.241l-11.67 40.08zm26.8-2.7q0-3.227 2.352-3.227.965 0 1.659.724.694.724.694 2.503 0 1.719-.694 2.473-.694.724-1.659.724-2.352 0-2.352-3.197zm26.1-39.3q-4.976 0-7.932 5.278-2.925 5.248-2.925 14.57 0 6.062 1.357 10.56 1.357 4.494 3.89 6.906 2.533 2.413 5.881 2.413 3.438 0 5.911-1.236v2.714q-2.352 1.357-6.182 1.357-4.192 0-7.359-2.714-3.136-2.714-4.855-7.841-1.719-5.157-1.719-12.21 0-10.56 3.74-16.59 3.77-6.032 10.25-6.032 4.041 0 7.057 1.87l-1.357 2.594q-2.533-1.629-5.76-1.629zm12.7 39.3q0-3.227 2.352-3.227.965 0 1.659.724.694.724.694 2.503 0 1.719-.694 2.473-.694.724-1.659.724-2.352 0-2.352-3.197zm43-.1h11.97v-41.26h2.956v41.26h3.348v13.96h-2.835v-11.13h-33.29v-44.09h2.956v41.26h11.91v-41.26h2.986zm40.7 2.8h-15.98v-44.09h15.98v2.835h-13.03v16.74h12.3v2.835h-12.3v18.85h13.03zm29.1 0h-2.956v-41.26h-15.38v41.26h-2.956v-44.09h21.29zm12.6-22.8l12.49-21.29h3.197l-12.61 21.29 13.6 22.8h-3.408l-13.27-22.56v22.56h-2.956v-44.09h2.956zm21.6 22.8v-44.09h2.956v44.09zm33.9 0h-2.956v-21.68h-15.38v21.68h-2.956v-44.09h2.956v19.57h15.38v-19.57h2.956zm26.4 0l-3.89-15.98H618.5l-3.83 15.98h-3.076l10.6-44.1h3.046l10.86 44.09zm-4.584-18.97l-3.89-16.44q-.603-2.775-.935-5.248-.271 2.624-.844 5.248l-3.77 16.44z"/></g></svg>