<svg xmlns="http://www.w3.org/2000/svg" height="415.4mm" width="443.5mm" viewBox="0 0 443.459 415.404"><defs><linearGradient id="a" y2="560.5" gradientUnits="userSpaceOnUse" x2="988.1" gradientTransform="matrix(-2.408 0 0 2.408 2442 -172.6)" y1="560.5" x1="803.5"><stop stop-color="#880101" offset="0"/><stop stop-color="#fe130d" offset="1"/></linearGradient></defs><g transform="translate(113.6 15.78)"><circle cx="108.2" stroke="#000" cy="-47.59" r="446.7" stroke-width="3" fill="#fff" paint-order="markers stroke fill"/><path d="M62.8 1072c84.82 51.54 83.75 105.2 83.75 105.2s-53.68 26.84-83.75 105.2c26.72-11.1 82.62-15.03 146-15.25h-3.779v-107.5l302.4 80.37c-.282-23.1-.508-52.42-.596-75.56-.091-5.458-177.8-91.46-444.1-92.53zm146 195.2v90.41s632.8 297.1 1263 0c-.115-66.78 0-120.8 0-193l-297.8 79.33h-9.592c-245.8 49.06-474.7 34.58-647.2 0h-9.611l-298.4-79zm1408-195c-266.3 1.074-444.2 91.54-444.2 92.61.16 21.98.101 50.67.11 75.49 100.6-24.2 200.8-53.24 300.9-80.02l-.032 107.3c61.87.205 116.9 4.096 143.2 15.03-30.06-78.38-83.75-105.2-83.75-105.2s-1.075-53.68 83.75-105.2zm-1090 226.6l-29.11 48.95-10.39 17.02c-7.841 12.63-12.12 20.57-12.82 23.82-.33 1.521-.09 2.369.72 2.545 1.218.264 3.847-1.818 7.89-6.25 2.967-3.391 7.364-8.967 13.19-16.73 7.85-10.72 13.06-17.61 15.64-20.66 6.678-8.744 13.94-16.51 21.79-23.3 5.078-4.313 10.89-8.574 17.43-12.78l8.82-5.412c-3.21 4.507-7.457 11.6-12.75 21.29-3.315 5.97-8.11 15.34-14.39 28.1l-8.76 18.33c-3.107 6.971-5.124 12.59-6.05 16.85-1.41 6.49-.238 10.14 3.515 10.96 3.042.66 7.256-1.132 12.64-5.379l10.39-9.691 1.078-.563.746.96-.72 1.116-10.3 10.03c-5.798 4.688-10.78 6.58-14.93 5.676-5.477-1.19-9.306-4.09-11.49-8.707-1.959-4.673-2.2-10.41-.725-17.2 1.74-8.012 5.33-16.47 10.77-25.38 5.563-8.987 11.7-17.21 18.42-24.67 3.628-3.99 8.916-9.266 15.86-15.83-3.941 2.011-8.513 5.213-13.71 9.606-8.363 7.21-17.04 16.37-26.04 27.48l-24.09 31.72c-7.273 9.04-12.43 13.23-15.47 12.57-6.998-1.52-9.515-6.792-7.555-15.82.947-4.36 2.798-9.216 5.553-14.56 2.777-5.45 6.595-11.79 11.46-19.02 6.572-9.723 13.44-18.11 20.6-25.16 5.343-5.53 10.92-10.43 16.73-14.69l-9.475 6.226c-5.274 3.74-11.4 8.463-18.37 14.17-5.697 4.71-12.44 11.31-20.23 19.82l-18.78 20.45c-6.688 6.831-12.61 11.6-17.76 14.3-6.49 3.476-12.78 4.552-18.86 3.23-5.782-1.256-10.29-3.456-13.54-6.604-3.247-3.148-4.319-7.257-3.218-12.33.992-4.564 4.302-7.826 9.932-9.789 5.731-1.94 11.54-2.274 17.42-.996l3.094 1.15-.673.172c-6.085-1.322-11.92-1.102-17.51.658-5.586 1.76-8.865 4.872-9.834 9.334-.903 4.158.33 7.77 3.699 10.84 2.928 2.654 6.675 4.478 11.24 5.47 5.679 1.233 11.53.22 17.54-3.04 4.95-2.748 10.63-7.357 17.02-13.83l39.5-40.32c4.642-3.77 8.87-7.1 12.68-9.988a307.114 307.114 0 0110.2-7.344 119.598 119.598 0 014.78-2.943 200.943 200.943 0 017.21-3.852zm87.39 11.42c2.544-.01 5.219.164 8.025.516l3.553.445c1.133.142 2.304.393 3.514.754 1.854.232 3.321.624 4.402 1.178l.424.367-.695.541-2.471-.31c-12.67-1.587-22.44-.406-29.31 3.545-6.862 3.847-10.85 10.2-11.96 19.05-.684 5.458.564 10.53 3.742 15.22 2.934 4.133 6.69 7.112 11.27 8.94 8.1-12.06 17.96-21.86 29.57-29.4 13.88-8.93 27.72-12.53 41.52-10.8 4.222.53 7.38 2.024 9.479 4.483 2.213 2.369 3.094 5.357 2.643 8.96-.658 5.252-3.717 10.46-9.176 15.64-6.154 5.715-14.17 10.04-24.06 12.99-6.411 1.917-12.54 3.24-18.38 3.974-5.728.642-11.11.647-16.16.016-2.975 4.543-5.654 9.646-8.037 15.31-2.383 5.663-3.858 10.76-4.426 15.29-.62 4.943-.086 9.035 1.6 12.28 1.904 3.167 5.329 5.06 10.27 5.68 8.959 1.122 17.33-1.805 25.1-8.78 3.425-3.126 6.135-6.393 8.13-9.804s3.22-6.92 3.673-10.52c.812-6.487-1.612-10.09-7.275-10.79-5.046-.632-9.237 1.092-12.57 5.172-2.498 3.243-4.057 7.336-4.676 12.28-.207 1.648-.277 3.05-.213 4.209.076 1.056.237 1.859.482 2.412l.057.793-.368.423c-3.41-2.833-4.785-6.875-4.127-12.13.594-4.737 2.576-8.463 5.95-11.18 3.861-3.282 9.035-4.516 15.52-3.703 3.397.426 5.89 1.836 7.472 4.23 1.596 2.292 2.173 5.188 1.734 8.69-.967 7.723-5.1 14.84-12.4 21.35-8.137 7.348-17.05 10.42-26.72 9.203-9.885-1.238-16.97-4.793-21.26-10.66-1.763-2.626-2.978-5.445-3.646-8.457-.655-3.115-.72-6.784-.191-11.01.555-4.428 1.605-8.637 3.15-12.63 1.559-4.093 3.632-8.12 6.221-12.08-5.419-1.829-10.14-5.036-14.17-9.619-5.147-5.665-7.288-11.95-6.424-18.85.993-7.929 4.946-14.02 11.86-18.28 5.272-3.262 11.72-4.905 19.36-4.93zm167 11.14c8.819.2 15.66 3.054 20.51 8.562 4.345 5.185 6.432 11.57 6.26 19.14-.109 4.773-1.318 10.04-3.629 15.8-1.762 4.424-4.584 9.756-8.463 16l-8.885 14.12c-7.001 11.16-10.56 19.22-10.67 24.2-.116 5.084 2.159 7.679 6.828 7.785 5.395.123 12.21-5.171 20.45-15.88 3.318-4.388 6.115-8.685 8.391-12.89l36.27-68 14.65-.756-43.1 80.45c-2.712 5.128-4.106 9.352-4.182 12.67-.078 3.424 1.543 5.174 4.863 5.25 3.113.071 8.588-3.335 16.43-10.21 7.944-6.982 13.33-13.14 16.15-18.47l36.27-68 14.5-.76-42.94 80.46c-2.712 5.128-4.104 9.352-4.18 12.67-.078 3.424 1.491 5.173 4.707 5.246 3.113.071 5.998-1.316 8.658-4.162l4.496-5.97 1.436-1.525.47-.144.606.79c-.04 1.765-.459 4.144-1.254 7.136l-1.54 6.193 4.405-2.08a24.711 24.711 0 004.266-2.705l.61.637-.334.925c-.743.71-2.376 1.867-4.904 3.471l-4.422 2.701-1.564 7.127c-.699 3.306-1.588 5.933-2.67 7.881-1.656 4.322-4.092 6.446-7.31 6.373-3.32-.076-4.936-1.982-4.851-5.717.085-3.735 1.827-7.277 5.225-10.62 2.337-2.334 5.399-4.6 9.186-6.797l1.36-5.107 1.196-4.644c-2.252 3.167-4.378 5.454-6.383 6.861-1.898 1.306-4.561 1.92-7.984 1.842-4.67-.106-8.062-1.48-10.18-4.123-1.716-2.115-2.531-5.093-2.443-8.932.047-2.075.186-3.682.42-4.818l1.359-4.95c-1.52 2.871-5.348 6.936-11.49 12.2-7.727 6.57-13.98 9.801-18.75 9.692-4.876-.11-8.427-1.489-10.65-4.135-1.818-2.22-2.686-5.096-2.605-8.623.042-1.867.123-3.215.246-4.043.125-.931.516-2.116 1.172-3.555-2.054 3.586-4.835 7.208-8.344 10.87-5.634 5.788-10.89 8.627-15.77 8.516-6.225-.141-10.91-2.012-14.04-5.613-2.624-3.278-3.875-7.615-3.752-13.01.035-1.556.124-3.163.265-4.82.245-1.655.81-3.615 1.691-5.879 1.993-5.456 6.07-13.51 12.23-24.17a702.715 702.715 0 007.088-10.43c2.045-3.17 3.554-5.576 4.525-7.215 4.096-6.654 6.207-12.73 6.332-18.23.107-4.669-1.207-8.59-3.938-11.77-2.627-3.174-6.689-4.824-12.19-4.949-11.52-.262-21.75 4.488-30.69 14.25-7.987 8.85-12.09 17.99-12.3 27.44-.097 4.254.913 7.805 3.027 10.66 2.223 2.646 5.617 4.021 10.18 4.125 6.848.156 12.56-4.593 17.14-14.25 3.71-7.908 5.655-15.75 5.832-23.54l-.1-2.492.014-.623.34-1.238.322-.459.612.48.888 2.046c1.148 4.282 1.67 8.704 1.564 13.27-.191 8.404-2.264 15.11-6.219 20.1-4.702 5.914-11.51 8.768-20.44 8.564-5.188-.118-9.043-1.712-11.57-4.78-2.523-3.171-3.727-7.245-3.613-12.23.227-9.96 4.44-19.47 12.64-28.52 9.157-10.07 19.91-14.96 32.25-14.68zm-108.5 1.123c-7.745.185-16.42 4.298-26.03 12.34-9.579 8.004-18.03 17.87-25.36 29.61 5.664.71 10.47.787 14.4.234 4.132-.423 9.943-1.734 17.44-3.934 7.479-2.096 14.12-6.284 19.93-12.56 2.562-2.92 4.59-5.753 6.084-8.494 1.507-2.844 2.435-5.657 2.783-8.438.645-5.149-1.351-8.013-5.984-8.594a21.987 21.987 0 00-3.262-.16zm402.3 20.72c1.297-.062 2.412.303 3.344 1.094 1.051.8 1.687 2.023 1.91 3.668.237 1.748-.162 3.426-1.201 5.033-.936 1.593-2.536 2.543-4.799 2.85-1.851.251-3.302-.024-4.354-.824-1.065-.903-1.693-2.074-1.889-3.514-.265-1.954.122-3.735 1.16-5.342 1.142-1.621 2.895-2.591 5.26-2.912.193-.026.383-.044.568-.053zm122.5 1.238l-10.56 40.05-.791 3.824-.094 3.359c.19.914.703 1.338 1.537 1.27 2.54-.53 5.135-2.822 7.787-6.875 2.733-4.175 5.495-9.734 8.285-16.68l.813-1.443.392-.4.953.756-.564 1.867c-4.068 9.967-7.33 16.43-9.787 19.38-2.356 2.93-4.958 4.69-7.803 5.285-3.352.7-5.848.427-7.486-.82-1.64-1.249-2.692-2.99-3.158-5.226-.34-1.625-.48-2.815-.426-3.568l.043-2.076c-1.92 4.006-3.716 7.083-5.387 9.234-3.08 4.036-6.245 6.393-9.496 7.072-3.657.764-6.695.178-9.113-1.756-2.338-2.056-3.91-5.013-4.715-8.873a36.688 36.688 0 01-.496-3.027c-.335.741-.671 1.49-1.002 2.178a62.713 62.713 0 01-3.141 5.736c-4.188 7.017-8.38 10.88-12.58 11.58-3.684.619-6.63.01-8.832-1.832-2.203-1.84-3.562-4.295-4.078-7.365-.344-2.047-.397-3.93-.16-5.654.321-1.843.917-3.943 1.785-6.299l-8.904 1.496-7.445 23.35-12.28 2.062 12.85-39.09c.356-1.638.526-3.139.507-4.504-.343-2.047-1.693-2.874-4.047-2.478-2.252.378-5.87 5.458-10.86 15.24l-4.797 10.49.041.04-.43 1.472c-2.901 5.63-5.081 9.642-6.536 12.04-4.408 6.881-8.668 10.6-12.78 11.16-3.702.502-6.67-.141-8.902-1.934-2.144-1.908-3.433-4.456-3.865-7.644-.335-2.468-.119-4.748.644-6.842l7.377-22.05-9.68 17.82.467.299-.088.635-.643 1.322c-3.789 7.503-7.259 13.09-10.41 16.77-3.063 3.564-6.09 5.504-9.082 5.824-2.786.298-4.923-.15-6.408-1.348-1.279-1.22-2.049-3.068-2.314-5.545-.265-2.476-.083-5.158.547-8.043.63-2.886 1.718-5.402 3.262-7.551l2.422-3.703c.52-.995.833-1.97.94-2.92-.1-.929-.492-1.67-1.178-2.223l-3.338.984-1.531.32c-3.612.387-5.604-.18-5.977-1.707-.177-1.65 1.284-2.643 4.379-2.975a8.586 8.586 0 013.643.393l3.123 1.387c3.302-.354 5.443-2.773 6.424-7.262.28-1.282.535-2.303.767-3.06.325-.869.662-1.634 1.008-2.298.347-.663 1.1-1.422 2.26-2.277 1.253-.97 2.758-1.548 4.512-1.736 1.548-.166 2.835.167 3.863.996.708.76 1.236 1.798 1.586 3.117.144 1.341-.146 2.522-.873 3.539-.737.914-1.776 1.442-3.117 1.586-1.34.144-2.566-.091-3.676-.703-.685-.553-1.22-1.643-1.604-3.272l.182-2.682c-1.515.475-2.715 2.9-3.604 7.275-.571 2.462-1.319 4.264-2.24 5.406-.932 1.039-2.206 1.8-3.824 2.287 3.261 1.216 5.113 3.888 5.555 8.016.177 1.65.126 3.118-.154 4.4l-1.377 4.688c-1.168 2.734-1.643 5.134-1.422 7.197.176 1.65.942 2.456 2.295 2.416 2.373-.254 5.105-3 8.197-8.236l4.994-8.854-.551-.188.676-1.977 6.627-12.52 6.803-12.39 13.91-2.83-14.08 38.67c-.422 1.523-.543 2.952-.362 4.29.156 1.13.545 2.072 1.168 2.825.701.534 1.624.776 2.77.725 3.496-.474 7.138-3.742 10.92-9.807 1.78-2.691 3.88-6.743 6.291-12.11l.268-1.228 5.436-11.8c1.923-4.216 3.599-7.391 5.029-9.525 1.516-2.254 2.828-3.843 3.936-4.766 1.67-1.333 3.579-2.18 5.728-2.541 2.763-.464 5.094.25 6.99 2.141 1.879 1.789 3.068 4.169 3.566 7.137.464 2.763.287 5.16-.53 7.191l-1.503 4.199 9.057-1.522 7.779-21.35 11.97-2.957-12.85 39.09c-.374 1.536-.448 2.97-.225 4.301.19 1.126.609 2.054 1.258 2.787.717.51 1.646.723 2.789.637 3.48-.585 7.017-3.968 10.61-10.15 1.162-1.991 3.114-5.973 5.805-11.81 0-6.601 2.082-12.74 6.244-18.4 5.592-7.741 12.66-12.5 21.19-14.29 5.689-1.188 8.926.097 9.711 3.855l1.121-4.527zm-19.98 5.723a7.664 7.664 0 00-1.375.168c-5.282 1.103-9.874 8.051-13.78 20.85-3.546 11.45-4.841 19.46-3.887 24.03.446 2.133 1.836 2.955 4.172 2.467 2.133-.446 4.437-2.357 6.912-5.736 2.454-3.481 5.298-8.899 8.533-16.25l4.703-17.84c.199-.572.25-1.59.156-3.055-.297-1.422-1.018-2.597-2.166-3.523-.876-.771-1.969-1.139-3.274-1.106zm-155.3 20.72l-19.3 50.76-11.76 1.26 16.62-43.58-6.518 9.309a305.027 305.027 0 00-7.893 12.89l.13.143-.513 1.596c-4.614 8.436-8.629 14.28-12.04 17.54-2.829 2.694-5.797 4.149-8.902 4.365-4.14.288-7.14-.232-9.002-1.56s-2.929-3.956-3.203-7.89c-.13-1.864.17-4.28.9-7.242.834-2.971 2.205-6.446 4.112-10.43l5.107-9.562c1.38-2.593 2.127-4.57 2.24-5.93-.087-1.242-.962-1.858-2.625-1.846-2.174.15-5.136 2.437-8.885 6.859s-6.297 8.188-7.641 11.3l-11.6 28-12.27.853 17.14-38.49 1.059-2.726.603-2.537c-.065-.932-.615-1.363-1.65-1.29-2.692.186-6.88 4.275-12.57 12.27-2.439 3.4-5.092 7.465-7.936 12.12l.211.272-.57 1.424c-4.02 6.381-7.328 10.97-9.924 13.77-4.493 4.84-9.435 7.362-14.83 7.562-5.807.217-10.53-1.167-14.18-4.146-3.642-2.98-5.567-7.269-5.775-12.87-.259-6.948 2.56-13.54 8.455-19.79 6.697-7 15.13-10.69 25.29-11.07 5.704-.212 8.625 1.548 8.764 5.281.085 2.282-1.26 5.24-4.031 8.873-2.673 3.527-5.897 6.19-9.672 7.992-1.022.454-1.891.8-2.61 1.033-.614.231-1.898.641-3.85 1.232l-6.808 1.19-2.258 6.314c-.43 2.404-.61 4.54-.541 6.406.089 2.385.628 4.288 1.615 5.705 1.09 1.413 2.83 2.075 5.215 1.986 4.77-.177 9.505-2.69 14.21-7.539 2.25-2.426 5.113-6.434 8.52-11.86l-.035-.036.535-1.286 7.965-13.35c6.035-8.95 11.12-13.57 15.26-13.86 3.727-.259 6.334.598 7.824 2.575 1.033 1.384 1.647 3.476 1.842 6.272l-.149 2.35c2.261-3.383 4.658-6.307 7.191-8.773 2.533-2.464 5.093-3.786 7.682-3.966 2.381-.166 4.307.583 5.775 2.25 1.565 1.555 2.447 3.782 2.648 6.681.166 2.381-.074 4.895-.722 7.541s-1.957 5.493-3.93 8.543c-1.98 2.947-3.645 5.925-4.996 8.932-1.255 2.896-1.817 5.275-1.688 7.14.166 2.38 1.75 3.466 4.752 3.257 3.002-.208 6.515-2.794 10.54-7.756 2.028-2.642 4.438-6.473 7.197-11.39-.02-.023-.04-.039-.06-.062l.485-1.303a130.374 130.374 0 014.76-8.182 408.524 408.524 0 016.47-9.773l6.532-9.154 1.262-1.387zm-105.5 12c-1.141.042-2.374.4-3.699 1.072-1.225.565-2.736 1.816-4.533 3.752-1.801 1.832-3.984 4.563-6.549 8.189-2.062 3.192-3.669 6.055-4.82 8.59a28.63 28.63 0 005.271-.664c1.644-.477 2.825-.832 3.543-1.066.818-.342 1.837-.85 3.059-1.518 3.36-1.787 6.23-4.23 8.607-7.33 2.481-3.104 3.683-5.692 3.605-7.766-.085-2.282-1.581-3.37-4.484-3.262zm-45.08 51.4l-7.131 5.441c-1.594 1.624-2.768 3.103-3.525 4.436-.653 1.335-1.001 2.885-1.041 4.648-.054 2.386.904 3.602 2.875 3.646 1.453.033 3.1-1.642 4.941-5.025l1.836-5.408c.667-1.957 1.349-4.536 2.045-7.738z" transform="translate(-113.449 -15.612) scale(.2646)" fill="url(#a)"/><g fill-rule="evenodd" fill="#323232"><path d="M33.43 241.688c.584-.35.848-.88 1.278-1.073.322-.144-.22 1.156-.267 1.28-.683 1.782-6.593 3.347-6.3.775.364-3.196 4.23-4.86 3.54-4.202-2.579 2.46.786 3.799 1.75 3.22z"/><path d="M32.212 239.198c-.75.351-.729 1.645.03 1.937.913.35 1.84-.509 1.486-1.43a1.056 1.056 0 00-1.515-.507zm.324.044c.425 0 .77.322.77.719s-.345.719-.77.719c-.424 0-.769-.322-.769-.719s.345-.719.77-.719zm-2.2 10.448c.944-.889 1.338-2.367 1.338-1.191 0 3.089-1.751 3.912-3.982 5.242-1.114.664-4.357.955-5.497.12-2.887-2.115.556-6.637 2.586-7.865 2.515-1.52.983-.344.985 1.826.002 2.038 2.024 4.268 4.571 1.868zm-2.526 8.892c.538-1.718-.543-3.243-2.453-2.948-5.588.862 1.034 7.491 2.454 2.948zm-3.103-1.563c.678-.198 1.394.207 1.599.904.204.698-.181 1.425-.86 1.624-.679.198-1.394-.207-1.599-.904-.204-.698.181-1.425.86-1.623z"/><path d="M22.556 256.982c-1.218 5.452 7.661 5.354 6.059-.126-.065-.222-.214-1.222-.077-1.2 1.517 2.058 2.255 4.05 1.566 6.413-.734 2.516-1.89 3.575-3.05 4.597-1.262 1.111-2.784 1.546-3.65 1.39-1.244-.223-2.684-4.822-2.665-6.054.018-1.227.276-2.046.795-3.15.178-.378.985-1.996 1.021-1.87zm.764 14.76c2.313 3.678 7.246.803 5.544-1.903-.32-.508-1.263-2.087-1.017-1.895.731.57 1.854.879 2.758 1.539 3.076 2.248.4 11.4-1.546 10.439-4.013-1.992-5.526-3.412-5.74-8.179z"/><path d="M26.121 272.81c.763.175 1.94-.244 2.13-1.287.16-5.336-6.9-1.452-2.916 1.042 1.215.76 2.054-.117 1.773-1.537-.61-3.076-4.283 1.021-.987 1.781zm6.483 7.024c3.162-.313 3.872 4.286 1.636 4.251-.317-.005-1.718-.05-1.45.108 1.153.684 2.166.821 3.44.622.531-.082 3.138-.283 3.257-.937.231-1.27-2.105-3.768-3.123-4.372-.888-.526-3.256-.524-3.76.328z"/><path d="M34.115 280.99c1.362.888.946 2.35-.58 2.557-2.595.349-1.833-4.131.58-2.557zm-1.33.507c.571-.502 1.866.108 1.42.859-.196.332-.245.51-.607.676-.957.436-1.353-1.062-.813-1.536zm5.421-9.399c20.024 27.316 35.416 1.753 23.643-4.603 13.97 4.379 1.736 20.913-9.941 16.974-21.447-6.297-23.021-33.309-13.925-48.505.294-.489-.015-2.354-.36-4.65-.063-.425-2.453-1.547-2.509-1.951-.04-.291 2.419.856 2.387.587.44-2.173 1.804-2.406 1.804-2.406.002.017-.605 1.333-.564 2.872.051 1.918.805 4.09 1.452 3.427 28.765-28.33 55.725.955 122.886-19.437-4.481 2.025-18.424 6.495-31.851 8.726-41.072 6.826-52.845-4.367-74.87 5.042-22.016 9.407-25.066 31.513-18.175 43.926z"/><path d="M40.233 257.337c2.395 6.017 6.583 6.15 9.479 8.192 3.88 2.735 4.313 4.728 6.33 7.03 1.427 1.63-4.248 2.12-7.235 1.843-7.067-.858-10.652-9.488-8.574-17.064zm10.074-4.801c.888 1.624 2.415 7.282 3.953 8.19.2.119-.87.376-.952.388-6.292.992-12.84-2.916-11.408-9.772.672-3.213 1.395-4.984 2.254-5.645 1.07 3.65 4.742 4.247 6.156 6.837zm.152-11.649c2.967.795 4.725.997 5.572 4.072.784 2.842 2.374 5.233-3.862 1.897-3.967-2.123-7.999-2.535-4.593-5.552C58.913 228.9 68.854 230.012 91.35 231.15c2.403.12 18.512-.279 10.999.982-5.663.952-9.07 1.907-17.5 2.145-4.979.141-11.986.016-16.823.984-.631.126 9.923.988 13.934 8.131l3.899 6.945c3.333 5.938-3.432-6.425-13.774-11.782-7.397-3.83-18.948-.983-21.625 2.331z"/><path d="M74.609 243.466c.34 1.337.993 1.726 2.11 2.472.89.596.475-.645.475-1.34 0-1.127-.797-2.24-1.649-2.95-.318-.264-.971-1.039-1.396-1.141.464 1.156.217 2 .46 2.958zm14.849.534c.396-.16-1.102-1.032-1.248-1.132-2.073-1.432-9.372-2.648-7.195-.94 2.636 2.062 6.514 2.854 8.443 2.072zm-9.425 1.6c1.67 1.561 2.972 5.053 2.972 7.328 0 1.196.118 2.393.118 3.574 0 1.695-.229 2.135-1.099.268-.824-1.767-1.73-4.172-2.05-6.106-.32-1.934.03-3.178.06-5.063zm53.351.356c-7.34-5.63-16.156-7.955-25.493-7.805-2.595.042-6.293.126-8.558 1.192-.785.37 4.282 2.282 4.933 2.562 4.496 1.93 6.103 3.932 10.279 3.098 1.063-.213 7.982-1.16 4.814.714-.662.392-3.88.885-4.1 1.132-.318.356 1.948.627 2.139.656 1.924.296 18.628.346 15.987-1.55zm-37.515-5.412c.683.17 1.187.833 1.444 1.033 4.968 3.88 9.07 6.724 14.849 8.556 2.234.707 1.957 4.772 6.54 4.965.275.012-1.085-.881-2.021-1.983-.827-.973-1.247-2.17-1.012-2.182 6.647-.326 15.214.927 21.518-3.13 18.62 14.991 37.613 13.453 49.448 8.221 1.613-.736 2.25-1.091 4.428-2.304-4.215 1.623-8.683 2.638-9.923 2.78-20.932 2.382-26.898-2.026-41.596-10.75-.222-.131 5.34-4.865 7.865-8.089.896-1.143 2.22-3.064 2.16-3.013-1.523 1.29-10.572 11.284-12.617 9.23-.623-.624-1.945-1.223-1.615-1.325 1.054-.33 3.915-1.867 4.245-4.662.201-4.695-4.395-4.527-4.948-2.19-.141.6.1 1.91.437.875.95-2.91 4.887-.046 1.703 3.147-3.612 3.622-10.964-2.42-15.872-2.83.666-.763 6.67-1.861 6.67-1.861.063-.725-13.24.622-14.609.7-2.86.163.014-2.11 1.814-3.024 7.971-4.05-.27-2.733-2.467-.387-.78.833-2.381 3.71-2.72 3.694-4.86-.235-11.568 3.046-14.422 2.15-3.213-.753-7.103-.989-9.736-.989-6.535 0-2.766-.062 2.222 1.121 9.959 2.363 5.64 1.813 8.119 6.43.643 1.197 1.733 2.228 2.541 3.307 1.804 2.408.29-3.072-.193-3.783-.51-.75-1.048-1.712-1.664-2.353-.22-.23-.579-1.043-.596-1.36z"/><path d="M137.474 249.69c-2.88 1.443-3.035 4.49-2.407 7.298.267 1.189 1.138 2.439 2.05 3.217.607.517 2.694 2.133 1.932.655-.59-1.144-1.835-2.353-1.278-4.02.765-2.287 3.52-2.199 4.339-.566.427.85.832 2.047.832.655 0-3.912-1.578-6.333-5.468-7.238z"/><path d="M141.12 259.56c.835-.535 1.206-1.839.371-2.673-.436-.436-.987-.937-2.11-.64-2.006.53-1.056 5.105 1.739 3.314zm-.148-.715c.297-.262.327-.471.327-.893 0-.4-.46-.987-.892-1.102-2.446-.65-.765 3.17.564 1.995zm2.994 1.871c.316.943.602 1.334 1.329 1.929.293.24.958.427 1.337.506.156.032-.753-.928-.869-1.102-.516-.772-.31-1.701.245-2.36 1.798-2.136 3.36 1.702 3.12-.41-.4-3.533-3.728-4.217-3.85-4.105-.33.298-2.3 2.608-1.313 5.542z"/><path d="M146.455 259.916c-1.061 1.463.33 3.102 1.554 2.328 2.161-1.37-.818-3.342-1.554-2.328zm.47 1.263c.106.184.67.393.853.268.372-.253.278-.845-.059-1.073-.55-.371-1.188.13-.795.805zm8.867-18.246c-3.713 0-8.963.959-12.129 3.157-1.47 1.023 1.24.668 2.14.417 3.73-1.038 6.458-2.209 9.985-3.574zm-11.026 4.445c-.66.271 3.737 1.829 6.18 1.192.216-.056-3.319-2.369-6.18-1.192zm8.892 12.538c-1.03-.486-2.46-.282-2.066 1.132.048.17.419.845.416.879-.01.12-.57-.05-.654-.12-1.17-.982-1.388-2.351-.817-3.753.358-.878 3.12.979 3.12 1.862z"/><path d="M152.59 260.183c-1.17 0 .473 2.085.966.834.08-.204-.155-.553-.312-.67-.249-.187-.323-.164-.653-.164zm16.629 7.469c-.508-.678-.706-2.045-1.07-2.86-.628-1.405-1.855-2.452-2.943-3.336-.694-.564-2.23-1.472-1.188.12.414.632.304 1.537.713 2.234.748 1.274 3.258 3.61 4.487 3.842zm-1.245-6.313c1.63.774 2.587 1.727 4.575 1.727.613 0 4.473-.205 4.28-.297-2.978-1.418-5.484-2.295-8.856-1.43zm27.298-4.269l-7.102-.148c-1.679-.036-2.718.2-4.16.923-.312.156-1.262.567-3.076.87 2.416.89 6.956 1.527 9.408.738 1.112-.358 4.244-1.464 4.933-2.383zm-9.159-2.578c1.913-1.364 3.404-1.983 4.338-3.038.634-.715 1.108-1.373 1.516-2.205.678-1.385-3.707 1.535-4.169 2.017-.25.26-1.434 1.453-1.685 3.226zm-22.496-4.002c.355.636.83 2.023.096 2.523-.542.37-2.182.23-2.747-.104-.18-.106-.983-.494-.579-.753.179-.114.754.123 1.117-.028.918-.381 1.046-.845.72-1.671-.252-.635-1.158-.629-1.02-.812.208-.276 1.774-.295 2.413.845z"/><path d="M161.394 250.58c.08.322-.018.7-.338.84-.535.233-1.074-.4-.84-.949.085-.199.208-.345.415-.366.032-.003.703.234.763.474zm5.513-.89c1.022-1.176 5.08 1.31 5.848 3.626.755 2.278-1.194 2.742-3.42 2.25-.514-.114-2.853-.856-2.692-1.586.103-.467 3.175.224 2.673-2.384-.194-1.014-2.534-1.752-2.408-1.906z"/><path d="M166.818 253.247c-.788-.151-1.4-.99-.77-1.68.296-.326.668-.727 1.191-.74.767-.02 1.724.79 1.207 1.659-.245.411-1.114.95-1.629.76zm.748-1.664c.449.099.736.524.642.95-.094.426-.534.69-.982.591-.449-.099-.736-.525-.642-.95.094-.426.534-.69.982-.591zm5.654-2.515c1.74-3.265 8.158-.816 9.576 1.568.578.971 1.489 1.484.25 2.312-2.22 1.486-3.099 2.687-6.093 2.024-.566-.125-1.755-.215-2.21-.534-.025-.018 1.812-.6 2.148-1.112.794-1.213.66-2.985-.595-3.777-.888-.56-3.054-.066-3.074-.481z"/><path d="M176.866 251.647c-.42 2.292-3.453 2.107-3.79.667-.926-3.958 4.153-2.656 3.79-.667zm-2.745.75c.809 1.539 3.394-.579 1.404-1.763-.826-.491-2.344-.023-1.404 1.763zm6.39-7.242c.413-3.129 4.643-2.498 6.51-1.504.242.128 1.978 1.007 1.666 1.207-.43.275-.932 1.118-1.169 1.573-.618 1.187-2.332 2.451-3.7 2.354-.13-.009-.903-.137-.923-.234-.005-.025.741-.341.838-.486.914-1.368.635-3.226-1.225-3.337-.58-.035-1.553-.001-1.997.428z"/><path d="M182.29 248c-.663-.145-2.352-1.048-1.573-1.902 1.17-1.282 2.69-.847 2.94.272.194.87-.29 1.87-1.367 1.632zm-.559-.916c.526.447 1.176.535 1.355-.28.362-1.635-2.29-.514-1.355.28zm-151.439 1.361c.403-.82.181-2.536-.877-2.784-5.009-1.175-1.472 7.557.877 2.784zm-2.15-1.917c.638 0 1.154.528 1.154 1.179 0 .65-.517 1.178-1.153 1.178a1.166 1.166 0 01-1.154-1.178c0-.651.517-1.179 1.154-1.179zm156.815-6.352c.022.675-.227 1.887.665.849.552-.644 1.172-2.062 1.197-2.94.037-1.323-3.154-1.06-3.805.143-.07.13-1.283 2.245-1.123 2.087.959-.939 2.99-2.536 3.066-.139z"/><path d="M182.734 240.887c.351.798 1.1.675 1.28-.144.116-.527-.059-.78-.553-.888-.496-.11-.929.573-.727 1.033zm.369-.218c-.139.342.242.325.403.367.814.21.026-1.424-.403-.367zM31.056 225.771c-.598-.323-1.188-.281-1.573-.553-.288-.203 1.106-.4 1.238-.422 1.88-.32 6.238 3.967 3.877 5.025-2.936 1.316-6.337-1.163-5.42-.905 3.43.967 2.867-2.611 1.878-3.145z"/><path d="M29.465 228.083c.685.467 1.787-.211 1.65-1.012-.163-.965-1.375-1.324-1.987-.55a1.057 1.057 0 00.336 1.563zm-.127-.301c-.216-.366-.115-.826.227-1.028.34-.203.793-.07 1.01.295s.115.826-.227 1.028c-.341.202-.794.07-1.01-.295zm18.266-4.767c.843-.986 1.076-2.497 1.202-1.328.331 3.071-1.32 4.078-3.397 5.64-1.037.779-4.23 1.415-5.454.706-3.096-1.792-.157-6.658 1.729-8.095 2.339-1.781.94-.447 1.175 1.709.22 2.026 2.47 4.027 4.744 1.368zm48.968 33.7c2.029.947 4.09-.132 4.044-2.538-.136-7.033-9.408.032-4.044 2.538zm2.442-3.568c.132.87-.486 1.686-1.38 1.82-.894.136-1.726-.459-1.859-1.329-.132-.87.486-1.686 1.381-1.82.895-.137 1.727.459 1.858 1.329z"/><path d="M99.417 250.49c-6.521-2.407-7.874 8.56-.85 7.494.284-.043 1.543-.061 1.491.104-2.79 1.53-5.367 2.109-8.167.867-2.981-1.322-4.096-2.924-5.163-4.524-1.16-1.74-1.445-3.69-1.11-4.73.483-1.498 6.394-2.51 7.91-2.283 1.509.226 2.476.68 3.752 1.504.436.282 2.299 1.545 2.137 1.57zm29.521 3.557c-4.315.505-3.843 6.194-.669 5.823.597-.07 2.428-.242 2.148-.102-.83.414-1.591 1.296-2.576 1.827-3.354 1.81-10.466-4.547-8.755-5.888 3.525-2.765 5.458-3.52 9.852-1.66z"/><path d="M126.804 256.092c-.487.613-.616 1.856.245 2.478 4.746 2.439 4.28-5.604.314-3.081-1.208.769-.778 1.903.625 2.26 3.038.775.922-4.305-1.184-1.657zm36.546-16.182c-1.568 2.763-5.735.691-4.417-1.116.187-.255 1.033-1.374.747-1.246-1.222.547-1.919 1.296-2.491 2.451-.239.481-1.578 2.726-1.113 3.201.905.921 4.293.454 5.373-.03.942-.421 2.306-2.358 1.901-3.261z"/><path d="M161.483 240.443c-1.512.6-2.467-.583-1.755-1.95 1.211-2.32 4.432.885 1.755 1.95zm.353-1.38c.08.757-1.165 1.462-1.522.666-.157-.352-.275-.495-.201-.887.195-1.033 1.648-.493 1.723.222zM47.435 221.859c.314-.859-.09-2.542-1.17-2.676-5.106-.631-.654 7.672 1.17 2.676zm-2.342-1.676a1.167 1.167 0 011.273 1.048 1.165 1.165 0 01-1.02 1.295 1.166 1.166 0 01-1.273-1.049 1.166 1.166 0 011.021-1.294zm-5.225 65.164c2.24-1.095 4.02 2.091 2.366 2.678-.234.083-1.277.433-1.036.476 1.034.187 1.816.01 2.7-.483.367-.207 2.228-1.067 2.137-1.58-.177-.997-2.578-2.195-3.492-2.36-.796-.144-2.537.505-2.676 1.27z"/><path d="M41.291 285.791c1.245.281 1.34 1.47.273 2.04-1.812.965-2.478-2.537-.273-2.04zm-.84.737c.283-.525 1.402-.43 1.28.243-.053.298-.04.443-.262.663-.583.583-1.284-.41-1.017-.906zm8.238 1.753c1.61-1.054 3.281 1.217 2.07 1.825-.171.086-.937.454-.748.464.81.044 1.394-.166 2.022-.63.262-.193 1.606-1.031 1.487-1.415-.232-.747-2.186-1.435-2.902-1.474-.624-.033-1.895.631-1.927 1.23z"/><path d="M49.818 288.459c.981.096 1.167.998.405 1.536-1.296.915-2.142-1.705-.405-1.536zm-.572.645c.166-.43 1.032-.464 1.004.063-.013.234.01.344-.138.534-.391.502-1.024-.191-.867-.597zm7.001-.378c1.42-1.3 3.434.672 2.337 1.468-.155.112-.852.599-.663.578.807-.087 1.348-.388 1.893-.947.228-.233 1.419-1.276 1.24-1.637-.35-.7-2.39-1.063-3.102-.987-.622.068-1.77.928-1.705 1.524z"/><path d="M57.385 288.726c.984-.064 1.313.796.647 1.45-1.131 1.112-2.388-1.337-.647-1.45zm-.461.728c.095-.45.944-.624 1.001-.099.025.233.066.337-.05.549-.305.559-1.04-.024-.95-.45zm70.947-54.702c1.503 1.424 3.376.85 4.933-.144.66-.421 1.224-1.221 1.494-1.942.18-.48.699-2.093-.027-1.31-.562.606-1.019 1.624-2.148 1.652-1.547.039-2.098-1.643-1.291-2.496.42-.444 1.054-.95.213-.646-2.362.857-3.478 2.339-3.173 4.886z"/><path d="M133.029 230.306c-.506-.387-1.375-.325-1.696.361-.168.359-.35.802.075 1.414.76 1.095 3.314-.48 1.62-1.775zm-.4.246c-.223-.122-.356-.094-.61-.002-.242.088-.496.494-.471.78.143 1.618 2.082-.232 1.081-.778zm-12.138 14.337c.714 1.213 2.048 1.191 3.254.835.51-.151 1.03-.568 1.342-.989.208-.28.851-1.238.23-.862-.482.291-.974.87-1.717.676-1.019-.266-1.063-1.47-.374-1.875.358-.212.868-.424.26-.383-1.705.116-2.715.875-2.995 2.598z"/><path d="M124.67 243.021c-.258-.348-.837-.471-1.176-.083-.178.203-.38.459-.218.94.29.858 2.258.31 1.395-.857zm-.307.086c-.123-.122-.216-.128-.4-.116-.174.012-.417.23-.454.421-.211 1.086 1.405.24.854-.305z"/></g><g fill="#8d0202"><path style="text-decoration-color:#000;font-variant-numeric:normal;font-variant-ligatures:normal;text-decoration-line:none;font-variant-position:normal;mix-blend-mode:normal;solid-color:#000;font-feature-settings:normal;shape-padding:0;font-variant-alternates:normal;text-indent:0;font-variant-caps:normal;white-space:normal;text-decoration-style:solid;text-orientation:mixed;isolation:auto;text-transform:none" d="M80.163 89.547c-.194 11.013.263 20.148-.157 30.32-.126 2.96-.4 5.887-.688 6.803l-.006.02-.005.02c-1.992 5.098-7.882 8.282-12.777 8.38h-.01c-1.349.025-2.322-.008-3.008-.076.172-.073.298-.136.518-.218l.006-.002c3.877-1.508 5.899-5.636 5.393-8.877-.61-3.364-3.16-6.418-6.61-7.057l-.013-.002-.012-.003c-2.698-.422-4.506.046-6.872 1.468l-.035.02-.032.025c-3.978 2.897-4.683 7.919-2.605 11.877 2.079 3.956 6.914 6.887 13.624 6.064h.011c3.43-.464 10.315-2.163 13.81-7.585.96-1.43 1.733-2.617 2.216-4.447.485-1.833.692-4.253.7-8.317.008-9.506.09-18.998.07-28.403zm.907 37.642l-.011.039c.002-.004.002-.01.003-.014l.008-.025z" color="#000"/><path d="M87.043 199.867c-.922-2.296-.218-6.826 3.073-8.818 1.807-1.183 3.877-1.886 5.865-1.489 7.322 1.666 7.405 11.642 1.061 14.185-1.756.649-2.165 1.005-1.78 1.55 6.175 3.047 11.177-1.738 12.17-8.143 1.269-6.002.92-15.422.869-16.314-15.037-.138-25.578-8.489-29.116-17.705-6.18-17.116 11.246-28.894 21.273-34.718l6.936-3.982c-.257-7.17-1.842-14.502-.626-20.534 1.377-7.122 4.86-12.611 12.292-11.415 19.185 3.767 1.63 32.678-9.444 40.32l.048 5.823.05 4.059c13.166.4 23.272 10.152 19.387 23.186-3.076 9.153-10.336 14.226-19.135 14.873l-.016 7.42c-.016 5.128-1.12 10.263-2.202 13.086-1.856 4.52-6.086 6.474-9.577 6.108-7.11-.684-9.666-4.315-11.12-7.492zm21.162-22.322c-.024-8.627.081-19.054.022-27.1-12.081.279-15.081 14.7-6.745 20.056-9.57-3.239-9.368-13.015-8.68-16.11 2.15-8.352 9.123-10.831 15.27-11.674l-.052-3.234c-.029-2.832-.122-5.201-.207-5.26-.162-.115-.57.147-7.688 4.926-11.312 7.595-13.774 12.005-14.76 16.487-2.275 11.508 6.858 22.852 22.838 21.901zm13.81-11.1c1.559-10.016-4.442-15.53-12.208-15.996.107 8.81.043 18.47.175 27.052 7.678-1.232 11.03-6.93 12.032-11.054zm-2.631-67.47c-7.808-1.598-8.663 9.794-9.91 23.673 9.812-5.056 18.866-22.236 9.91-23.673z"/><path style="text-decoration-color:#000;font-variant-numeric:normal;font-variant-ligatures:normal;text-decoration-line:none;font-variant-position:normal;mix-blend-mode:normal;solid-color:#000;font-feature-settings:normal;shape-padding:0;font-variant-alternates:normal;text-indent:0;font-variant-caps:normal;white-space:normal;text-decoration-style:solid;text-orientation:mixed;isolation:auto;text-transform:none" d="M26.355 88.81v66.83h9.732v9.95h28.108c-.482 1.6-1.45 4.019-3.6 6.608-3.555 4.28-10.088 8.671-22.759 8.671h-1.612v27.789h1.612c30.172 0 45.823-7.324 53.882-14.924 4.037-3.801 6.152-7.649 7.243-10.568.475-1.27.735-2.341.904-3.201 1.916.38 5.805 1.106 8.975 1.064 2.321-.03 5.012-.891 7.27-1.704.83-.3 1.47-.562 2.105-.82.183.864.438 1.883.883 3.098 1.126 3.081 3.285 7.153 7.368 11.185 8.167 8.063 23.939 15.87 54.128 15.87h1.62l-.153-26.954h-28.157c.38-2.887 1.775-5.162 3.842-7.103 2.438-2.29 5.823-4.022 9.266-5.26 6.884-2.475 13.855-2.974 13.855-2.974l1.5-.104v-9.84h9.732V88.83zm3.223 3.224H188.89v61.13h-9.732v10.106c-2.492.282-7.804 1.055-13.224 3.002-3.702 1.33-7.462 3.202-10.383 5.944s-4.973 6.46-4.973 11.063v1.613h28.305l.117 20.481c-28.526-.278-42.949-7.712-50.246-14.914-3.717-3.67-5.621-7.302-6.607-9.997-.985-2.696-1.04-4.33-1.04-4.33l-.1-2.39-2.178.99s-1.664.758-3.789 1.523-4.764 1.494-6.22 1.513c-3.187.043-9.95-1.308-9.95-1.308l-1.882-.392-.057 1.923s-.028 1.496-.968 4.01c-.94 2.513-2.776 5.906-6.435 9.35-7.177 6.757-21.51 13.762-50.073 14.023v-21.381c12.405-.385 19.673-5 23.629-9.76 4.13-4.97 4.78-10.08 4.78-10.08l.228-1.813H39.32v-9.948h-9.732z" color="#000"/><path style="text-decoration-color:#000;font-variant-numeric:normal;font-variant-ligatures:normal;text-decoration-line:none;font-variant-position:normal;mix-blend-mode:normal;solid-color:#000;font-feature-settings:normal;shape-padding:0;font-variant-alternates:normal;text-indent:0;font-variant-caps:normal;white-space:normal;text-decoration-style:solid;text-orientation:mixed;isolation:auto;text-transform:none" d="M137.657 89.793c.014 12.457-.244 25.405.328 36.29.226 1.677.682 2.776 1.426 4.273l.022.045.028.043c3.395 5.272 8.928 8.248 15.137 8.051 3.381-.037 5.867-.458 7.872-1.59 4.79-2.92 6.993-10.659 3.924-14.914-1.932-2.243-4.975-3.381-7.843-2.953h-.006c-5.723.895-8.624 6.189-6.823 10.972 1.879 3.195 3.515 4.077 6.103 5.187-.684.069-1.657.101-3.005.077h-.047c-7.133.235-11.658-4.31-12.74-8.381l-.005-.02-.006-.02c-.288-.916-.562-3.84-.688-6.8-.28-10.128-.157-21.032-.157-30.246z" color="#000"/></g><path fill="none" d="M276.477 182.668a168.501 168.501 0 01-167.493 168.5A168.501 168.501 0 01-60.5 184.659 168.501 168.501 0 01105.003 14.19a168.501 168.501 0 01171.45 164.496L108 182.673z" paint-order="markers stroke fill"/><g fill="#323232" aria-label="Сумський академічний театр імені"><path d="M-81.326 237.85q-3.815.855-6.921-1.624-3.165-2.517-4.376-7.917l-.255-1.14q-.122-.545-.156-1.162-.2-.892-.124-1.481l.066-.17.242.153.178.793q1.365 6.093 4.323 8.606 2.907 2.523 7.169 1.568 2.626-.588 4.258-2.828 1.418-2.035 1.502-4.448-6.893-1.734-12.286-5.833-6.408-4.914-7.896-11.553-.455-2.032.33-3.404.724-1.411 2.459-1.8 2.527-.566 5.811 1.091 3.649 1.888 6.642 5.954 1.944 2.635 3.248 5.204 1.243 2.531 1.786 4.958 2.584.618 5.587.778 3.001.16 5.182-.328 2.379-.533 3.595-1.846 1.143-1.4.61-3.779-.966-4.31-5.465-6.738-2.006-1.06-3.907-1.414-1.901-.355-3.636.034-3.122.699-2.51 3.425.543 2.428 2.974 3.29 1.906.613 4.285.08.793-.178 1.316-.399.473-.21.688-.414l.236-.105.171.066q-.74 2.039-3.267 2.605-2.28.51-4.088-.594-2.15-1.235-2.848-4.357-.366-1.636.474-2.76.791-1.113 2.476-1.49 3.716-.833 7.923 1.45 4.73 2.531 5.774 7.19 1.066 4.755-.928 7.7-.918 1.246-2.194 2.053-1.326.817-3.358 1.272-2.131.477-4.224.426-2.143-.04-4.396-.576.055 2.796-1.39 5.411-1.756 3.307-5.077 4.05zm.641-24.549q-2.202-3.096-6.056-4.73-1.77-.697-3.28-.931-1.559-.224-2.896.076-2.477.556-1.978 2.785.922 4.113 6.97 7.648 5.272 3.087 11.89 4.518-.611-2.724-1.519-4.447-.878-1.832-3.132-4.918zm16.811-14.374q.913-.054.868-.814-.085-1.42-4.511-4.87l-3.718-2.627-6.633-2.912-.697-4.029 15.981 6.984q-1.284-2.772-3.593-4.822-1.506-1.385-4.25-3.053-.269-.239-.328-.388l.238-.268.522.223q2.687 1.57 4.304 3.1 2.261 2.104 3.938 5.463l8.668 3.756q2.766 1.159 4.394 3.758 1.627 2.549 1.802 5.49.114 1.926-.88 3.155-.993 1.28-2.818 1.389-3.293.196-6.468-4.397-2.452-3.619-3.988-8.868l-7.473-3.32q2.695 1.671 4.045 3.015 2.102 1.96 2.206 3.733.096 1.623-.6 2.733-.707.957-2.43 1.06-1.673.1-3.54-.502-1.868-.6-3.496-1.47l-2.254-1.137q-1.05-.548-1.51-.572-.456.028-.416.686.066 1.116 4.514 4.055l3.757 2.422.173.345-.239.269-.26-.086-7.096-4.716q-.59-.524-.985-1.162-.397-.688-.556-1.645-.07-1.166.63-2.225.65-1.056 2.221-1.15 1.927-.115 5.533 1.502l2.622 1.32 1.196.437zm3.552-3.57q1.861 5.637 5 8.808 2.596 2.592 5.13 2.442 1.267-.076 1.935-.828.724-.653.657-1.768-.093-1.572-1.335-2.77-1.193-1.25-4.437-2.737zm-11.753-25.117q-2.99-2.285-4.37-4.31-.715-1.04-1.222-2.62l1.718.17q1.046.256 2.047.456 1 .201 3.528 1.47l3.661 1.689q.637.266 1.471.604.79.282 1.193.322.708.07.869-.527.044-.455-2.125-1.74l-5.455-3.14q-3.323-2.012-4.946-4.161-.942-1.318-1.222-2.621.708.07 1.511.2.804.13 2.047.457 1.249.276 3.742 1.39l2.998 1.163 2.39.592q1.97.195 2.12-1.321.09-.91-2.315-3.442-1.715-1.751-3.415-3.143l-.136-.167.494-.36.147.066 3.84 3.492q2.222 2.31 2.082 3.725-.19 1.92-1.522 3.013-1.378 1.038-3.6.819-1.668-.165-3.29-.784-1.623-.619-3.211-1.592-.678-.373-.966-.555-.334-.237-.85-.696l1.392 1.413q1.224 1.04 2.97 1.977 8.13 4.475 8.016 5.637-.12 1.213-1.27 2.018-1.192.7-3.011.52l-1.956-.346q-.697-.171-.99-.302-.344-.136-1.315-.64l-2.27-1.295-2.276-1.755 1.847 1.968 2.114 1.841 5.672 4.59q2.696 2.665 2.409 5.595-.29 2.93-2.412 2.723-.86-.085-1.305-.74-.496-.662-.512-1.531.08-.809.64-1.315.51-.51 1.52-.411.657.065 1.041.307.334.237.573.924.284-2.881-3.48-6.11zm2.423-34.615q.643.15 1.071.772.39.56.194 1.4-.116.495-.456.833-.546.55-1.386.353-.643-.15-.958-.588-.364-.45-.228-1.253l.058-.247q-.305.189-.555.808-.52 2.225 3.11 6.1t6.695 4.59q2.028.475 2.479-1.453.59-2.522-.821-5.406-1.044-2.226-3.269-4.312l-.215-.416-.015-.16.232-.102.597.349q2.801 2.741 3.743 5.62.826 2.488.27 4.861-.532 2.275-2.202 3.397-1.709 1.06-3.835.563-3.609-.845-6.094-4.713t-1.48-8.168q.787-3.362 3.062-2.83zm.804-10.188l3.934 4.255-.24-.723q-.113-.305-.226-1.092-.113-1.268.257-2.376.626-1.88 2.167-2.81 1.51-.996 3.725-.258 2.697.9 4.224 3.71 1.494 2.746.45 5.877-.899 2.698-2.745 3.903-1.847 1.205-4.062.466-1.012-.337-2.136-1.14-1.172-.818-2.89-2.408l-3.453-3.45zm9.347 8.253q1.445.481 2.634.128 1.188-.354 1.573-1.51.642-1.927-1.397-4.32-2.04-2.392-4.544-3.227-1.156-.385-1.943-.112-.819.21-1.252 1.51-.401 1.204-.112 2.584.177.916.771 2.024l2.41 1.926q.53.338.93.578.402.241.932.418zm8.546-13.863l-1.596 3.514-9.487-11.895 1.534 3.374q1.375 2.744 2.686 5.014l.121.222q-.084.185-.445.244l-.286-.353q-.798-1.31-1.509-2.693-.736-1.45-1.672-3.437l-1.489-3.352-.18-.584 1.263-3.887zm-5.768-20.691q.6.273.849.832.201.538-.072 1.139-.273.6-.806.916-.403.152-1.185-.092l-.723-.496q-.176.757 1.446 2.219.895.853 1.148 1.525.206.651.008 1.454 1.324-1.072 3.174-.232.74.336 1.21.774l1.09 1.163q.86 1.173 1.785 1.593.74.336 1.06-.244.483-1.064-.955-3.669l-1.968-3.402-.126-.336.017-.16.29-.147.164.13.265.4q2.218 3.463 2.984 5.705.74 2.176.13 3.518-.567 1.248-1.44 1.576-.833.235-1.942-.269t-2.168-1.487q-1.06-.983-1.58-2.168l-.64-1.294q-.29-.467-.664-.748-.416-.19-.82-.038l-.276 1.102-.164.483q-.735 1.618-1.47 1.395-.74-.336-.11-1.723.252-.555.714-.958l.908-.647q.672-1.48-.975-3.01-.471-.437-.732-.722-.285-.353-.479-.664-.193-.311-.265-1.013-.097-.769.26-1.555.316-.693.92-.92.497-.11 1.14.07zm17.556-16.877l.252-.025q.381.35.415.49 1.598 3.233 2.119 4.919 1.04 3.368.01 5.058-1.03 1.692-2.156 2.075-1.1.341-2.444-.477-.564-.344-1.135-.87-.615-.553-1.27-1.428-.312-.368-.7-.902-.406-.603-.931-1.4l.929 1.696 1.04 2.001q1.116 2.464 1.499 3.885.757 2.66.018 3.874-1.77 2.906-4.936.977-.824-.502-1.707-1.396-.899-.964-1.753-2.197l-3.907-5.591 2.25-4.28 5.004 7.986 1.655 2.554q.907 1.147 1.514 1.516.91.555 1.466-.356.422-.694-.052-2.649-.356-1.465-1.575-4.05l-2.108-3.96-1.775-3.042-1.336-2.003 2.328-4.409 6.04 9.803q1.233 1.88 2.015 2.357 1.084.66 1.586-.164.924-1.518-.702-5.779-.4-1.195-1.536-3.432l-.118-.489zm-6.626-16.884q-1.148-.922-.226-2.07.858-1.069 2.046-.115.515.413.735 1.437 1.95-.322 3.287-1.984 1.24-1.544 1.474-3.7-.548-.049-1.205-.447-.594-.477-.672-1.19-.117-.746.296-1.26.35-.436.92-.499.524-.165 1.118.311.436.35.553 1.096.15.706.037 1.657-.273 1.475-.695 2.57-.422 1.093-1.185 2.043-1.526 1.9-3.812 2.475-1.682.473-2.671-.322zm21.072-.857l.254.009q.333.397.348.54 1.168 3.412 1.465 5.148.597 3.473-.643 5.017-1.24 1.545-2.406 1.78-1.135.197-2.363-.79-.514-.413-1.013-1.008-.538-.627-1.076-1.58-.26-.405-.577-.985-.324-.65-.742-1.508l.702 1.802.773 2.118q.789 2.587.984 4.046.408 2.736-.482 3.844-2.13 2.652-5.021.332-.753-.604-1.512-1.605-.767-1.072-1.455-2.405l-3.153-6.05 2.783-3.95 3.933 8.562 1.312 2.746q.75 1.255 1.305 1.7.831.667 1.499-.164.509-.633.29-2.633-.163-1.5-1.038-4.222l-1.579-4.199-1.366-3.245-1.067-2.159 2.879-4.072 4.723 10.5q.98 2.024 1.693 2.596.99.795 1.593.042 1.113-1.385.051-5.821-.244-1.238-1.08-3.603l-.054-.5zm20.672-9.869q.3.346.64.118.96-.831 1.13-3.194.175-2.435-.284-6.068l.003-.54.049-.176.391.064.135.621q.632 5.23.283 7.077-.31 1.814-1.386 2.744-1.267 1.097-2.264.953-.998-.144-1.729-.988-.532-.615-.688-.95l-.316-.599q.131 2.17-.072 3.487-.357 2.46-1.585 3.523-1.382 1.196-2.875.945-1.489-.323-2.753-1.782-3.057-3.532-2.473-8.133.55-4.641 3.774-7.432 2.15-1.86 3.379-.44l-.399-1.47 2.811-3.037 3.34 13.092.38 1.215zm-6.73-10.023q-.464-.538-1.176-.661-.744-.162-1.473.47-1.997 1.728-.622 8.128 1.207 5.739 2.704 7.466.698.806 1.58.042.807-.698 1.061-2.733.222-2.072-.145-5.985l-1.487-5.83q-.051-.292-.44-.896zm15.389 3.85L1.429 50.66-.552 35.572l-.429 3.683q-.24 3.06-.289 5.68l-.01.254q-.168.115-.508-.021l-.062-.45q-.007-1.535.098-3.085.119-1.621.342-3.806l.457-3.64.147-.594 3.09-2.675zm5.745-20.697q.374.544.297 1.15-.105.566-.649.94t-1.164.367q-.423-.078-.967-.69l-.363-.799q-.542.557.093 2.647.326 1.193.195 1.899-.16.664-.744 1.25 1.687-.235 2.837 1.44.46.67.637 1.286l.331 1.56q.133 1.448.707 2.285.46.67 1.033.338.963-.66 1.078-3.635l.072-3.93.066-.353.097-.128.324.023.073.197.02.478q.113 4.112-.39 6.427-.49 2.247-1.704 3.08-1.13.775-2.048.605-.834-.228-1.524-1.233t-1.09-2.393-.233-2.672l.12-1.439q-.007-.549-.182-.983-.258-.377-.682-.456l-.806.8-.39.33q-1.465 1.005-1.98.435-.46-.67.796-1.533.502-.344 1.106-.451l1.112-.086q1.34-.92.718-3.08-.177-.617-.253-.996-.062-.45-.067-.816-.005-.367.296-1.004.314-.709 1.026-1.198.628-.43 1.263-.313.481.163.939.65z"/><path d="M27.416 33.465q.215.403.598.257 1.12-.598 1.81-2.865.711-2.336 1.07-5.98l.122-.525.087-.161.367.15-.006.636q-.544 5.237-1.293 6.961-.705 1.7-1.96 2.368-1.478.789-2.42.427-.94-.361-1.466-1.347-.382-.717-.46-1.078l-.176-.654q-.352 2.144-.842 3.383-.893 2.318-2.327 3.083-1.613.86-3.014.284-1.38-.645-2.288-2.348-2.198-4.122-.609-8.48 1.565-4.401 5.33-6.409 2.509-1.338 3.393.32l-.062-1.52 3.415-2.34.354 13.507.101 1.27zm-4.339-11.266q-.334-.628-1-.905-.69-.323-1.542.13-2.33 1.243-2.408 7.788-.096 5.863.98 7.88.501.94 1.532.39.94-.501 1.64-2.428.675-1.971 1.186-5.869l-.158-6.016q.015-.296-.23-.97z"/><path d="M40.79 24.684q-.343 1.611-1.309 3.032-.984 1.374-2.447 1.955-1.368.544-2.734-.28-1.366-.824-2.078-2.617-1.424-3.587.189-7.779 1.765-4.635 6.296-6.433 1.227-.487 2.113-.184.574.21 1.082.937l.126-1.471 3.7-1.963-1.6 17.298q2.646-1.87 3.834-5.62l1.161-4.503.208-.302q.283-.112.433.266l-.067.518q-1.048 4.515-1.646 5.9Q46.885 26.14 44.127 28l-.88 8.926q-.31 3.346-2.089 5.747-1.76 2.447-4.354 3.478-1.652.656-2.83.031-1.186-.512-1.786-2.022-.955-2.407.334-5.486 1.745-4.136 7.724-8.751zM39.141 13.1q-2.312.918-3.12 7.414-.713 5.91.037 7.798.319.802 1.168.465 1.038-.413 2.071-2.353 1.032-1.94 1.642-4.532l.83-7.54q-.338-.85-.987-1.247-.65-.398-1.64-.004zm1.127 17.691q-3.609 2.744-5.513 6.616-1.905 3.87-.762 6.75.375.944 1.025 1.341.65.398 1.593.023 1.463-.581 2.176-2.777.475-1.555.833-5.193zM61.697 7.164q.308 1.073-.581 3.125-.855 1.989-2.437 3.289-.432.335-.745.53-.265.183-1.122.693l-2.064.91-.22 2.176q.079 1.193.331 2.071.323 1.123.958 1.68.684.543 1.807.22 2.245-.644 3.907-3.5.87-1.57 1.98-5.059l.272-.342.342.272-.07.495q-1.16 3.503-2.064 5.137-1.565 2.828-4.103 3.557-2.733.785-4.812-.203-2.08-.987-2.837-3.622-.94-3.269 1.127-6.928 2.358-4.112 7.14-5.484 2.685-.771 3.19.986zm-6.84 7.83q.879-.253 1.618-.624.724-.42 1.038-.615.348-.259.85-.72 1.386-1.243 2.151-2.996.814-1.766.533-2.742-.308-1.073-1.675-.68-.536.153-1.087.628-.515.413-1.141 1.543-.64 1.082-1.432 3.105-.605 1.759-.854 3.1zM74.743 8.69q1.484-3.456 3.11-5.292.833-.947 2.242-1.826l.255 1.708q.008 1.077.058 2.096.05 1.02-.563 3.781l-.74 3.962q-.104.683-.227 1.574-.08.833-.02 1.235.106.703.723.713.452-.067 1.168-2.485l1.71-6.057q1.138-3.714 2.825-5.814Q86.331 1.05 87.527.46q.105.703.175 1.513.07.812.058 2.097.037 1.278-.433 3.966l-.394 3.192.01 2.464q.293 1.958 1.8 1.732.903-.135 2.772-3.085 1.278-2.091 2.212-4.08l.128-.174.47.392-.028.158-2.445 4.577q-1.698 2.718-3.104 2.93-1.909.286-3.293-.738-1.343-1.082-1.674-3.293-.249-1.657-.045-3.382t.759-3.503q.195-.748.301-1.072.148-.382.467-.994l-1.03 1.694q-.708 1.442-1.19 3.362-2.35 8.977-3.506 9.151-1.205.18-2.267-.738-.97-.984-1.24-2.792l-.143-1.981q-.005-.718.05-1.035.048-.367.3-1.431l.7-2.52 1.145-2.634-1.456 2.272-1.268 2.5-3.064 6.62q-1.924 3.267-4.835 3.704-2.914.436-3.23-1.673-.127-.854.4-1.446.52-.643 1.359-.871.803-.12 1.43.299.62.369.771 1.373.098.653-.043 1.085-.148.381-.755.78 2.863-.428 5.071-4.867zM100.032.897l4.611-.425-5.933 12.04q-.286.719-.269 1.379.015.558.28.958.312.296.871.332 1.726-.045 3.89-2.794 1.035-1.246 2.542-3.825l.349-.263.199-.158.21.249-.191.462q-1.71 2.583-2.546 3.672-2.51 3.113-4.54 3.167-1.827.048-2.818-.942-.941-1.042-.982-2.616-.032-1.218.45-2.196l3.173-6.889-4.162 6-.247.26-.411-.192.289-.617 2.592-3.827zm5.168-8.262q.76-.02 1.231.476.469.445.49 1.257.022.862-.568 1.59-.54.724-1.657.753-.913.024-1.382-.42-.47-.496-.489-1.207-.025-.964.566-1.691.641-.728 1.809-.758z"/><path d="M107.16 8.784l-.319.235q-.098-.056-.143-.16-.092-.159-.14-.213l.227-.393 4.445-5.538-.131-1.229q.05-.862.489-1.395.491-.582 1.201-.54.963.056.907 1.02-.021.354-.298.745t-.758.77q.471 2.367 2.144 2.465 1.673.098 5.096-1.889l1.282-1.043 1.112-.749q.424-.28.778-.26.558.033.615.8-.072 1.216-1.977 4.206l-2.51 3.77-2.01 3.034q-.849 1.476-.894 2.237-.035.608.62.698 1.673.098 4.512-3.195l2.632-3.252.475-.278.143.161-.239.597q-2.006 2.984-4.15 4.842-1.017.856-1.908 1.312-.889.406-1.649.36-1.571-.091-2.382-1.004-.754-1.01-.683-2.227.158-2.687 2.096-5.37 1.163-1.61 3.265-3.624-2.979 2.217-4.956 2.099-1.926-.113-2.559-2.338l-1.97 2.376zm26.93 1.746l-4.832 6.367-4.001-.704 8.21-10.62q.432-.697.646-1.33.176-1-.974-1.203-1.1-.193-4.997 3.503l-2.773 2.865-.503.22-.159.024-.123-.176.288-.465 2.957-3.038q1.576-1.63 2.585-2.382 1.067-.792 1.729-1.037.988-.342 2.038-.157 1.35.237 1.916 1.42.574 1.132.319 2.582-.238 1.35-.946 2.154l-.92 1.127 2.95.519 4.72-5.718 4.003.395-8.21 10.62q-.423.648-.538 1.298-.097.55.083.994.248.353.789.5 1.7.299 4.367-1.965.908-.768 3.301-3.235l.403-.238.168-.074.206.294-.33.406q-.834.936-1.584 1.681-.75.745-1.59 1.422-3.078 2.551-5.13 2.192-1.8-.317-2.516-1.526t-.451-2.71q.176-1 .567-1.756.45-.797 1.234-1.742zm34.777 8.799l.085.24q-.25.453-.376.52-2.752 2.33-4.262 3.24-3.018 1.822-4.909 1.23-1.89-.592-2.534-1.592-.596-.985-.126-2.487.197-.63.57-1.311.388-.73 1.08-1.578.282-.39.706-.896.488-.539 1.134-1.241l-1.422 1.31-1.691 1.493q-2.121 1.677-3.408 2.392-2.4 1.376-3.756.952-3.248-1.017-2.14-4.554.288-.92.943-1.992.719-1.106 1.71-2.232l4.484-5.14 4.694 1.15-6.543 6.785-2.079 2.221q-.894 1.157-1.107 1.835-.318 1.018.7 1.336.775.243 2.556-.689 1.337-.699 3.551-2.505l3.334-2.999 2.525-2.455 1.622-1.78 4.84 1.196-8.058 8.226q-1.528 1.65-1.801 2.522-.38 1.211.541 1.5 1.696.53 5.44-2.076 1.063-.678 2.96-2.317l.446-.233zm14.63-10.744q.618-1.337 1.955-.72 1.244.576.605 1.96-.277.598-1.217 1.059.783 1.816 2.718 2.71 1.797.832 3.947.539-.085-.543.142-1.277.32-.691.994-.94.695-.293 1.295-.016.506.234.705.773.287.469-.033 1.16-.234.507-.93.8-.649.316-1.6.436-1.496.091-2.66-.055-1.162-.146-2.268-.657-2.213-1.023-3.321-3.102-.865-1.518-.332-2.672zm5.913 20.243l.053.248q-.305.419-.44.468-3.03 1.956-4.643 2.665-3.228 1.416-5.027.585-1.798-.83-2.308-1.906-.464-1.054.196-2.482.277-.6.735-1.227.48-.674 1.274-1.425.33-.35.816-.797.554-.472 1.285-1.085l-1.579 1.116-1.87 1.262q-2.32 1.389-3.689 1.93-2.558 1.055-3.85.459-3.087-1.428-1.531-4.793.405-.876 1.192-1.854.856-1.003 1.984-1.992l5.11-4.518 4.507 1.747-7.363 5.883-2.349 1.935q-1.036 1.03-1.334 1.676-.448.968.52 1.416.737.34 2.624-.354 1.415-.52 3.845-2.025l3.693-2.545 2.821-2.11 1.838-1.555 4.646 1.812-9.051 7.114q-1.728 1.44-2.112 2.27-.533 1.151.343 1.556 1.613.746 5.66-1.355 1.143-.535 3.235-1.917l.472-.173zm26.78 8.812q1.336 1.01 1.493 2.402.086 1.148-.587 2.04l-.602.627q1.749-.46 3.395-.616 2.02-.063 2.993.672.972.735 1.018 1.852.046 1.118-.75 2.17-.674.892-1.876 1.638-1.13.737-2.798 1.258-1.667.522-3.052 1.257-1.384.736-1.875 1.384-.735.972.318 1.768 1.134.858 4.783-.01l4.007-1.173.65-.017-.022.365-.57.333q-1.14.412-2.187.702-1.006.32-1.81.541-3.925.98-5.786-.43-1.417-1.072-1.829-2.21-.371-1.11.609-2.406.857-1.134 2.71-2.153l5.515-2.323q1.953-.814 2.382-1.381.306-.405-.109-.783-.85-.643-3.655-.218-2.44.447-5.033 1.35l-8.221 3.966-3.079-2.327 12.06-5.842.773-.434.642-.596q.399-.527-.138-.996-.688-.52-2.467-.275-.427.06-1.83.4-1.332.329-3.599.97l-8.802 4.23-3.16-2.39 12.465-5.79.774-.433.621-.485q.215-.283-.2-.66-1.215-.92-5.525.15l-5.156 1.513-.294-.032-.09-.386.275-.11 7.147-2.044q3.263-.525 4.558.455 1.094.827 1.14 1.944t-.658 2.05l-.572.586q1.882-.551 3.061-.678 1.93-.195 2.943.57zm21.629 21.693q-.786.794-3.011 1.022-2.153.228-4.062-.516-.504-.212-.828-.39-.288-.142-1.153-.64l-1.803-1.354-2.005.874q-1.002.652-1.645 1.302-.82.83-.996 1.657-.138.863.692 1.684 1.661 1.642 4.965 1.695 1.795-.01 5.382-.75l.432.07-.07.431-.466.183q-3.622.703-5.49.713-3.23.019-5.108-1.837-2.022-2-2.18-4.298-.156-2.297 1.772-4.248 2.391-2.418 6.592-2.407 4.741.045 8.279 3.543 1.986 1.964.7 3.265zM227.645 57.2q.65.642 1.335 1.105.72.427 1.045.605.396.177 1.043.389 1.763.6 3.665.41 1.938-.155 2.652-.877.786-.795-.226-1.794-.397-.393-1.08-.64-.612-.248-1.905-.241-1.257-.029-3.409.271-1.83.334-3.12.772z"/><path d="M236.576 77.266q-.352.292-.132.637.811.977 3.17 1.196 2.431.226 6.072-.158l.54.014.175.052-.072.39-.625.123q-5.241.523-7.08.136-1.806-.348-2.714-1.442-1.07-1.29-.906-2.284.165-.995 1.024-1.708.625-.52.964-.668l.605-.304q-2.172.087-3.484-.143-2.452-.409-3.489-1.659-1.167-1.406-.885-2.895.354-1.482 1.839-2.713 3.593-2.983 8.184-2.306 4.627.646 7.352 3.928 1.816 2.188.37 3.389l1.477-.368 2.978 2.873-13.157 3.07-1.224.355zm10.16-6.52q.547-.454.685-1.162.177-.741-.44-1.483-1.686-2.032-8.112-.79-5.762 1.087-7.52 2.548-.821.68-.075 1.58.68.82 2.708 1.116 2.067.264 5.989-.02l5.86-1.366q.293-.045.905-.421zm15.372 17.796q.872 1.431.506 2.785-.34 1.1-1.295 1.68l-.79.362q1.795.215 3.383.674 1.903.684 2.536 1.725.634 1.04.267 2.097t-1.495 1.743q-.954.581-2.345.834-1.322.27-3.065.143-1.743-.128-3.3.048-1.557.176-2.251.599-1.041.634-.354 1.761.74 1.214 4.452 1.747l4.156.381.611.222-.154.332-.652.1q-1.211-.035-2.292-.15-1.054-.07-1.882-.16-4.01-.531-5.226-2.526-.924-1.518-.889-2.729.062-1.167 1.45-2.012 1.214-.74 3.31-1.007l5.983-.136q2.116-.04 2.722-.41.434-.264.187-.768-.555-.91-3.32-1.545-2.433-.48-5.177-.592l-9.104.672-2.007-3.296 13.36-1.004.878-.12.817-.318q.564-.344.237-.977-.45-.738-2.194-1.161-.418-.102-1.848-.301-1.36-.183-3.703-.42l-9.74.702-2.06-3.383 13.72-.807.878-.119.756-.223q.304-.185.056-.688-.792-1.3-5.194-1.89l-5.35-.486-.263-.138.058-.392.296-.002 7.4.726q3.226.71 4.072 2.097.713 1.171.345 2.227t-1.364 1.664l-.747.336q1.952.178 3.094.492 1.867.528 2.527 1.612zm6.187 24.629l-27.305-2.167-1.439-3.416 36.83 2.79-7.93-1.95-5.919-1.364-.505-.284q-.118-.28.19-.465l.5.01 7.576 1.768q4.906 1.185 9.192 2.466l4.392.354 2.25 3.515-13.795-.968q1.263.515 2.027 1.02 1.061.82 1.534 1.943.65 1.544-.04 3.047-.67 1.549-2.307 2.239-1.357.572-3.209.36-1.805-.232-3.61-1.51-2.806-1.958-4.304-1.327-1.03.433-.478 1.744.572 1.357 3.95 2.579 2.363.768 4.82 1.11l.326.25q-.035.18-.23.371l-.612-.017q-4.016-.9-5.24-1.32-2.887-1.099-3.774-3.205-.729-1.731-.428-2.85.32-1.072 1.397-1.525 1.872-.788 4.198.547 2.344 1.382 4.623 1.69 1.958.332 3.27-.22 1.59-.67 1.039-1.98-.493-1.17-2.48-2.096-1.969-.88-4.501-1.135zm14.288 25.665l1.418 4.41-13.043-3.172q-.764-.123-1.404.038-.542.135-.874.48-.222.37-.135.924.42 1.675 3.573 3.188 1.441.739 4.287 1.649l.332.283.197.16-.197.259-.492-.086q-2.896-1.108-4.139-1.685-3.584-1.772-4.079-3.742-.444-1.773.307-2.956.812-1.146 2.34-1.528 1.181-.296 2.24-.038l7.415 1.597-6.762-2.755-.307-.185.098-.443.665.147 4.3 1.698zm9.19 3.247q.184.74-.197 1.306-.332.554-1.12.752-.838.21-1.675-.209-.826-.369-1.097-1.453-.222-.886.11-1.44.382-.567 1.071-.74.936-.235 1.774.184.85.467 1.133 1.6zm-10.734 15.877q3.418 1.575 5.21 3.246.925.858 1.766 2.29l-1.713.21q-1.077-.02-2.097.004t-3.767-.661l-3.94-.844q-.68-.12-1.568-.267-.831-.102-1.234-.052-.706.087-.732.704.056.453 2.453 1.232l6.013 1.867q3.682 1.234 5.74 2.976 1.208 1.079 1.767 2.289-.706.087-1.518.136t-2.098.003q-1.278.004-3.955-.535l-3.179-.478-2.462-.054q-1.966.243-1.779 1.754.112.907 3.012 2.852 2.057 1.332 4.02 2.318l.17.132-.403.46-.158-.032-4.511-2.564q-2.675-1.768-2.848-3.179-.236-1.915.824-3.274 1.117-1.314 3.334-1.588 1.663-.205 3.383.043 1.72.249 3.483.85.743.215 1.063.33.378.157.982.492l-1.667-1.073q-1.422-.745-3.329-1.277-8.914-2.584-9.056-3.743-.15-1.21.797-2.247 1.009-.943 2.823-1.167l1.984-.092q.718.014 1.033.078.365.057 1.423.336l2.5.766 2.605 1.213-2.234-1.515-2.466-1.333-6.54-3.235q-3.214-2.008-3.574-4.932-.361-2.922 1.756-3.185.857-.105 1.435.437.629.536.836 1.38.1.807-.336 1.424-.386.61-1.393.734-.656.081-1.084-.07-.377-.159-.76-.777.354 2.873 4.734 5.198zm5.801 34.163q-1.117-.01-2.832-1.445-1.665-1.385-2.463-3.27-.199-.509-.297-.865-.1-.305-.345-1.272l-.287-2.237-2.024-.829q-1.166-.263-2.08-.27-1.168-.01-1.882.44-.715.503-.725 1.67-.019 2.336 2.248 4.741 1.259 1.28 4.288 3.335l.25.358-.357.25-.455-.206q-3.03-2.107-4.338-3.438-2.266-2.303-2.244-4.944.023-2.843 1.56-4.558 1.538-1.714 4.281-1.692 3.402.028 6.323 3.048 3.273 3.429 3.23 8.406-.022 2.792-1.85 2.778zm-5.564-8.78q-.007.914.139 1.727.196.814.295 1.17.149.408.448 1.02.8 1.682 2.262 2.913 1.462 1.281 2.476 1.29 1.117.009 1.129-1.413.005-.559-.295-1.222-.248-.611-1.155-1.532-.856-.921-2.572-2.256-1.515-1.078-2.728-1.698zm-1.318 18.951l-6.641-4.451.467-4.036 11.083 7.572q.722.39 1.366.567 1.009.117 1.143-1.043.129-1.11-3.79-4.784l-3.022-2.6-.25-.488-.033-.157.169-.134.48.26 3.207 2.774q1.72 1.477 2.528 2.44.853 1.019 1.136 1.665.4.966.276 2.025-.157 1.362-1.304 1.996-1.097.64-2.56.47-1.361-.157-2.205-.818l-1.18-.852-.344 2.977 5.984 4.373-.159 4.02-11.083-7.571q-.671-.385-1.327-.46-.554-.065-.987.14-.338.268-.453.817-.198 1.715 2.219 4.244.82.861 3.423 3.106l.262.388.083.163-.281.223-.425-.305q-.983-.778-1.77-1.483t-1.513-1.504q-2.728-2.923-2.488-4.992.21-1.815 1.375-2.602 1.165-.785 2.678-.61 1.009.117 1.786.463.823.402 1.812 1.13zm4.115 19.796l-.684 4.578-10.284-8.629q-.63-.448-1.274-.589-.546-.119-.997.043-.363.233-.531.768-.367 1.687 1.788 4.442.964 1.301 3.111 3.38l.173.401.105.231-.291.144-.403-.295q-2.103-2.277-2.963-3.348-2.427-3.179-1.993-5.162.388-1.787 1.586-2.514 1.236-.666 2.775-.331 1.191.259 2.026.96l5.937 4.721-4.838-5.469-.194-.302.285-.354.53.427 3.1 3.428zm6.794 6.985q-.162.744-.755 1.083-.544.35-1.338.177-.843-.184-1.409-.93-.575-.697-.338-1.789.194-.893.738-1.242.593-.338 1.288-.187.943.205 1.508.951.554.796.306 1.938z"/></g><path fill="none" d="M-58.412 287.09s167.42 76.118 334.152 0c.494 16.47 0 56.24 0 56.24-166.634 78.6-334.152 0-334.152 0z"/><path d="M34.586 355.022q-.097.61-.588 1.074t-1.263.342q-.61-.097-.918-.521-.193-.364-.17-1.028.096-.61.587-1.074.531-.458 1.263-.342.57.09.871.555.309.425.218.994zm30.746 3.873q-.057.615-.516 1.11-.46.495-1.239.423-.615-.057-.95-.46-.216-.352-.237-1.015.057-.616.517-1.11.5-.492 1.239-.423.574.053.905.497.335.404.281.978z" aria-label="М.С. Щепкіна" fill="#fff"/></g></svg>