<svg xmlns="http://www.w3.org/2000/svg" width="32" height="32"><path d="M15.293 6.067c-1.086 1.997-1.728 3.942-2.01 5.758 1.682-1.023 2.695-1.969 2.695-1.969l.516-.487.265.658c.379.942.703 1.844.977 2.707.486.092 1.065.088 1.753-.077 0 0-.354 1.061-1.399 1.264.394 1.428.642 2.739.762 3.938.423.091.893.289 1.418.626 1.186.772 1.97 2.532 1.97 2.532s-1.338-1.134-3.301-1.445c-.004 1.114-.132 2.111-.369 2.993-.019.071-.04.141-.06.211 3.68.85 8.278-2.409 10.526-12.616 0 0-8.464 1.341-13.738-4.091zm6.262 7.187s2.433 1.926 4.444.118c0 0-.13 1.82-2.021 2.02a2.323 2.323 0 01-1.364-.295c-.939-.573-1.058-1.843-1.058-1.843z"/><path d="M16.242 10.352s-6.235 5.879-13.66 4.368c1.708 16.93 22.396 17.366 13.66-4.368zm-1.611 4.87c1.758.034 1.984 1.832 1.984 1.832s-2.016-1.642-4.3.5c0 0-.378-1.911 1.72-2.281.216-.038.414-.054.596-.05zm-6.237 1.753c1.1.034 1.83 1.081 1.83 1.081s-2.945-.511-3.799 2.054c0 0-1.082-1.529.76-2.754.435-.29.843-.391 1.209-.38zm7.171 4.127s.417 2.244-2.465 3.254c-2.064.723-3.696-1.237-3.696-1.237s3.689.784 6.161-2.016z"/><path fill="none" stroke="#c9c9c9" stroke-width=".325" d="M31.585 16.002c0 8.747-7.034 15.837-15.711 15.837v0C7.197 31.839.163 24.748.163 16.002v0C.163 7.255 7.197.165 15.874.165v0c8.677 0 15.711 7.091 15.711 15.837v0z"/></svg>