<svg xmlns="http://www.w3.org/2000/svg" width="32" height="32"><path fill="none" stroke="#c9c9c9" stroke-width=".325" d="M31.585 16.002c0 8.747-7.034 15.837-15.711 15.837v0C7.197 31.839.163 24.748.163 16.002v0C.163 7.255 7.197.165 15.874.165v0c8.677 0 15.711 7.091 15.711 15.837v0z"/><path d="M15.526 6.066A10.635 10.635 0 005.31 13.684v2.308l.679-.006c.285-.705.851-2.833.998-4.567.092 1.568-.773 4.565-.773 4.565l.969-.009c.403-.81 1.688-3.253 2.123-6.404-.024 2.666-1.888 6.402-1.888 6.402l1.321-.012c1.44-1.975 2.012-3.041 2.667-6.439 2.845.732 5.155.768 8.342.023.149 2.719 1.247 4.636 2.64 6.416l1.012.009s-1.562-2.524-1.896-6.429c.338 2.031.867 4.589 2.13 6.431l.961.009s-1.056-2.12-1.304-4.562c.367 2.367 1.227 4.011 1.53 4.564l1.017.009v-1.945a10.612 10.612 0 00-10.303-7.981zm.112 6.475a5.246 5.246 0 00-.593 1.7c.496-.302.796-.581.796-.581l.152-.144.078.194c.112.278.207.544.288.799.144.027.315.026.517-.023 0 0-.105.313-.413.373.116.421.19.808.225 1.162.125.027.264.085.419.185.35.228.581.747.581.747s-.395-.335-.974-.427a3.45 3.45 0 01-.109.884l-.018.062c1.086.251 2.444-.711 3.106-3.725 0 0-2.499.396-4.056-1.207zm.28 1.266s-1.84 1.736-4.031 1.29c.504 4.997 6.611 5.126 4.031-1.29zm1.568.856s.718.568 1.311.035c0 0-.038.537-.597.596a.687.687 0 01-.402-.087c-.277-.169-.313-.544-.313-.544zm-2.044.582c.519.01.586.541.586.541s-.595-.485-1.269.147c0 0-.112-.564.508-.674a.936.936 0 01.176-.015zm-1.841.517c.325.01.54.319.54.319s-.869-.151-1.121.606c0 0-.319-.451.224-.813a.601.601 0 01.357-.112zm12.238.757l-.998.01v5.359c.433-.78.772-1.621.998-2.508zm-20.539.02v3.223c.165.56.374 1.101.625 1.619v-4.837zm.849 0v5.279c.229.421.485.825.767 1.209h.323l-.611-6.489zm.704 0l.611 6.489h1.493v-.503c0-.322.033-.583.091-.723l.01-.021-1.632-5.244h-.515zm.812 0l1.551 4.979c.208-.267.524-.461.88-.527.12-.023.219-.053.219-.069s-.403-1.008-.896-2.206l-.895-2.177zm16.94.01l-.487.005-.61 6.474h.602c.175-.238.34-.484.494-.737zm-.712.006l-.593.006-1.657 5.322c.075.216.116.466.116.742v.402h1.526zm-.832.009l-.487.005-.909 2.207c-.5 1.214-.909 2.215-.909 2.226s.088.056.197.102c.228.095.412.258.547.476zm-7.354.434c0 .001.123.662-.728.96-.609.213-1.09-.365-1.09-.365s1.089.232 1.819-.595zm-.36 4.378c-1.156 0-1.323.039-1.578.373a1.004 1.004 0 00-.193.537l-.034.329h-.632l-.002-.221c-.002-.31-.185-.679-.419-.846-.19-.135-.246-.142-1.29-.159-1.04-.016-1.104-.011-1.352.118-.435.225-.476.365-.476 1.623v1.078h3.539v-1.003h.649v1.003h3.534l.034-.973h.649l.034.973h3.541l-.018-1.116c-.017-1.02-.029-1.131-.14-1.28-.291-.389-.345-.404-1.537-.424-1.002-.017-1.111-.009-1.342.103-.318.154-.509.474-.509.852v.272h-.708v-.281c0-.38-.16-.658-.473-.823-.236-.125-.326-.134-1.279-.134zm-3.999 3.128c-.418 0-.836.02-1.026.061-.434.093-.693.397-.747.877l-.014.127a10.592 10.592 0 003.566 1.543l.026-.723h.644v.853c.342.055.689.094 1.041.116.431.002.935.001 1.411-.003.368-.025.73-.068 1.086-.129v-.836h.649v.704a10.592 10.592 0 003.547-1.566l-.008-.092c-.034-.38-.17-.604-.478-.785-.181-.107-.306-.118-1.292-.118-1.05 0-1.1.005-1.32.142-.27.168-.447.513-.449.876l-.001.251h-.635l-.026-.355c-.029-.401-.152-.61-.467-.796-.181-.107-.306-.118-1.292-.118-.924 0-1.12.015-1.278.102-.295.161-.452.431-.481.823l-.025.343h-.619l-.04-.357c-.054-.48-.314-.784-.748-.877a7.9 7.9 0 00-1.026-.061z"/></svg>