<svg xmlns="http://www.w3.org/2000/svg" width="32" height="32"><path d="M27.75 3.119C26.956 2.388 23.744.056 16.581.025c0 0-8.444-.506-12.556 3.269C1.737 5.582.931 8.938.844 13.094S.65 25.038 8.157 27.15h.006l-.006 3.225s-.05 1.306.813 1.569c1.037.325 1.65-.669 2.644-1.738a97.604 97.604 0 001.863-2.106c5.137.431 9.081-.556 9.531-.7 1.038-.337 6.906-1.087 7.856-8.875.988-8.037-.475-13.113-3.113-15.406zm.869 14.819c-.806 6.5-5.563 6.913-6.438 7.194-.375.119-3.844.981-8.2.7 0 0-3.25 3.919-4.262 4.938-.331.331-.694.3-.688-.356 0-.431.025-5.356.025-5.356-.006 0-.006 0 0 0-6.362-1.762-5.987-8.394-5.919-11.863S3.862 6.882 5.8 4.97c3.481-3.156 10.65-2.688 10.65-2.688 6.056.025 8.956 1.85 9.631 2.463 2.231 1.912 3.369 6.488 2.538 13.194zm-8.688-5.051c.025.537-.781.575-.806.037-.069-1.375-.712-2.044-2.038-2.119-.538-.031-.488-.838.044-.806 1.744.094 2.712 1.094 2.8 2.888zm1.269.707c.063-2.65-1.594-4.725-4.738-4.956-.531-.037-.475-.844.056-.806 3.625.262 5.556 2.756 5.488 5.781-.006.537-.819.512-.806-.019zm2.937.837c.006.537-.806.544-.806.006-.038-5.094-3.431-7.869-7.55-7.9-.531-.006-.531-.806 0-.806 4.606.031 8.313 3.213 8.356 8.7zm-.706 6.132v.012c-.675 1.188-1.938 2.5-3.238 2.081l-.012-.019c-1.319-.369-4.425-1.969-6.387-3.531a16.35 16.35 0 01-2.65-2.65 20.218 20.218 0 01-1.925-2.912c-1.331-2.406-1.625-3.481-1.625-3.481-.419-1.3.887-2.563 2.081-3.237h.012c.575-.3 1.125-.2 1.494.244 0 0 .775.925 1.106 1.381.313.425.731 1.106.95 1.488.381.681.144 1.375-.231 1.662l-.75.6c-.381.306-.331.875-.331.875s1.113 4.206 5.269 5.269c0 0 .569.05.875-.331l.6-.75c.288-.375.981-.613 1.663-.231.919.519 2.087 1.325 2.863 2.056.438.356.538.9.238 1.475z"/></svg>