<svg xmlns="http://www.w3.org/2000/svg" width="36" height="32"><path d="M34.063 7.356c.231-.781 0-1.356-1.112-1.356H29.27c-.938 0-1.369.494-1.6 1.044 0 0-1.875 4.569-4.525 7.531-.856.856-1.25 1.131-1.719 1.131-.231 0-.587-.275-.587-1.056V7.356c0-.938-.262-1.356-1.038-1.356h-5.787c-.588 0-.938.438-.938.844 0 .888 1.325 1.094 1.463 3.594v5.425c0 1.188-.213 1.406-.681 1.406-1.25 0-4.287-4.588-6.088-9.838C7.408 6.412 7.051 6 6.108 6H2.427c-1.05 0-1.262.494-1.262 1.044 0 .975 1.25 5.819 5.819 12.219 3.044 4.369 7.331 6.738 11.231 6.738 2.344 0 2.631-.525 2.631-1.431 0-4.175-.212-4.569.962-4.569.544 0 1.481.275 3.669 2.381 2.5 2.5 2.913 3.619 4.313 3.619h3.681c1.05 0 1.581-.525 1.275-1.563-.7-2.181-5.431-6.669-5.644-6.969-.544-.7-.387-1.012 0-1.637.006-.006 4.5-6.331 4.963-8.475z"/></svg>